<?xml version="1.0" encoding="UTF-8" standalone="no"?>
<!-- Created with Inkscape (http://www.inkscape.org/) -->

<svg
   width="383.25516mm"
   height="324.70892mm"
   viewBox="0 0 383.25516 324.70892"
   version="1.1"
   id="svg1"
   sodipodi:docname="sevencities-poly-cities-water-bodies.svg"
   inkscape:version="1.4.2 (ebf0e940d0, 2025-05-08)"
   xmlns:inkscape="http://www.inkscape.org/namespaces/inkscape"
   xmlns:sodipodi="http://sodipodi.sourceforge.net/DTD/sodipodi-0.dtd"
   xmlns="http://www.w3.org/2000/svg"
   xmlns:svg="http://www.w3.org/2000/svg"
   xmlns:www="http://www.prognoz.ru">
  <sodipodi:namedview
     id="namedview1"
     pagecolor="#ffffff"
     bordercolor="#000000"
     borderopacity="0.25"
     inkscape:showpageshadow="2"
     inkscape:pageopacity="0.0"
     inkscape:pagecheckerboard="0"
     inkscape:deskcolor="#d1d1d1"
     inkscape:document-units="mm"
     inkscape:zoom="0.5485771"
     inkscape:cx="780.20026"
     inkscape:cy="914.18325"
     inkscape:window-width="2256"
     inkscape:window-height="1435"
     inkscape:window-x="0"
     inkscape:window-y="0"
     inkscape:window-maximized="1"
     inkscape:current-layer="svg1" />
  <www:MetaInfo>
    <www:Geo>
      <www:GeoItem
         X="0"
         Y="0"
         Latitude="0"
         Longitude="0" />
      <www:GeoItem
         X="400"
         Y="400"
         Latitude="-20"
         Longitude="20" />
    </www:Geo>
  </www:MetaInfo>
  <defs
     id="defs1" />
  <path
     id="path3956"
     style="baseline-shift:baseline;display:inline;overflow:visible;vector-effect:none;fill:#00ffff;enable-background:accumulate;stop-color:#000000"
     d="m 108.53533,216.46917 c -0.0908,-7.3e-4 -0.18743,0.008 -0.29042,0.0248 l 0.007,5.1e-4 c -1.50619,0.24751 -2.76522,0.81474 -3.66231,1.65417 -0.49264,0.46094 -1.20174,0.99805 -1.56011,1.18339 -0.40973,0.21186 -0.75751,0.65834 -0.8537,1.09605 -0.0818,0.37223 -0.49344,1.07131 -0.9064,1.52342 -0.37246,0.4078 -0.56498,0.60579 -0.84388,0.6873 -0.27888,0.0815 -0.663734,0.0494 -1.417472,-0.0294 -0.71968,-0.0752 -1.11957,-0.10723 -1.43196,-0.0351 -0.31238,0.072 -0.52501,0.248 -0.85731,0.56637 -0.5082,0.4869 -0.92743,0.66086 -1.55856,0.64285 -0.58494,-0.0166 -0.95446,-0.11226 -1.20303,-0.35346 -0.24856,-0.24119 -0.38573,-0.64095 -0.48266,-1.28726 l -0.17156,-1.1405 -1.0294,0.18965 c -0.98118,0.17943 -2.29056,1.28979 -3.23856,2.71663 -0.19348,0.17753 -0.38523,0.34696 -0.56741,0.50178 -0.0631,0.0536 -0.12492,0.10567 -0.18552,0.15555 -0.22507,0.14759 -0.47311,0.2857 -0.71158,0.39119 -0.30578,0.13525 -0.58421,0.29067 -0.78755,0.43201 -0.10168,0.0707 -0.18432,0.13715 -0.24391,0.19896 -0.0596,0.0618 -0.10129,0.11661 -0.10129,0.1819 0,0.034 -0.0177,0.0768 -0.0589,0.1266 -0.0412,0.0498 -0.10505,0.10525 -0.18552,0.1602 -0.16094,0.10989 -0.38894,0.22063 -0.65215,0.32039 -0.52642,0.19953 -1.18807,0.34985 -1.71101,0.34985 -0.6271,0 -1.42718,0.30831 -2.41794,0.91984 -0.54558,0.33674 -0.95274,0.55304 -1.27951,0.66973 -0.32676,0.1167 -0.56957,0.13344 -0.79478,0.078 -0.35033,-0.0862 -0.9209,-0.22663 -1.26762,-0.31212 -0.42269,-0.10419 -0.7885,-0.0321 -1.0449,0.18913 -0.25639,0.2212 -2.34782,1.434 -2.34782,1.90031 0,0.31321 1.3956,0.96719 1.51152,1.08917 0.11591,0.12197 0.87817,-1.16062 1.17788,-1.1591 0.18638,0.001 0.39147,0.0244 0.57051,0.0605 0.17905,0.0361 0.33337,0.0873 0.40824,0.13488 0.1011,0.0642 0.23542,0.26993 0.35915,0.55242 0.12373,0.28248 0.24237,0.64158 0.34003,1.01751 0.19534,0.75187 0.30366,1.57699 0.21498,1.98076 -0.12037,0.54809 -0.0364,0.9258 0.28887,1.28519 0.20506,0.22661 0.29728,0.35309 0.30282,0.59738 0.006,0.24428 -0.0838,0.61423 -0.26975,1.28933 -0.24009,0.87144 -0.34716,1.91677 -0.26562,2.62102 0.0798,0.6889 0.0294,1.22074 -0.15813,1.62885 -0.18746,0.4081 -0.51137,0.69771 -0.99787,0.90227 -0.41145,0.173 -1.19153,0.73367 -1.75803,1.2578 -0.52909,0.48954 -0.82338,0.86035 -0.89659,1.27951 -0.0732,0.41917 0.0775,0.87121 0.40825,1.51722 0.0508,0.0992 0.0929,0.36044 0.10387,0.68161 0.0109,0.32117 -0.005,0.70773 -0.0491,1.07849 -0.0795,0.67623 -0.11867,1.02503 0.014,1.36322 0.13261,0.33819 0.42846,0.64898 1.01182,1.25781 0.6191,0.64614 1.00057,1.13435 1.20096,1.58956 0.2004,0.45522 0.22338,0.8774 0.12299,1.4025 -0.12683,0.66347 -0.0649,1.24386 0.18759,1.73426 0.25255,0.4904 0.69477,0.88776 1.31826,1.18959 0.70479,0.34118 1.22402,0.80764 1.50999,1.3069 0.28596,0.49925 0.33986,1.02854 0.11885,1.5136 -0.26971,0.59195 -0.36597,1.06771 -0.26923,1.47072 0.0967,0.40301 0.38701,0.72319 0.8692,1.00769 0.1459,0.0861 0.27637,0.17754 0.39326,0.27543 0.2069,0.25111 0.42796,0.55972 0.63355,0.8847 0.0264,0.0698 0.0502,0.14179 0.0708,0.21653 0.1372,0.49694 0.43294,1.10356 0.67541,1.37149 0.086,0.095 0.15075,0.18163 0.1974,0.2806 0.0281,0.0776 0.0515,0.15166 0.0708,0.22428 0.008,0.0437 0.0147,0.0908 0.0191,0.14159 0.0254,0.29375 -0.0165,0.72091 -0.11731,1.42162 l -0.006,0.0413 0.004,0.002 c -0.064,0.44673 -0.1123,0.80063 -0.11523,1.05472 -0.002,0.1322 0.009,0.2403 0.0351,0.33021 0.0266,0.0899 0.0718,0.16153 0.13901,0.20877 0.13435,0.0945 0.3316,0.0881 0.61701,0.0238 0.28542,-0.0643 0.6644,-0.18934 1.16427,-0.35966 0.25596,-0.0872 0.47175,-0.15192 0.66301,-0.19586 0.30385,-0.0277 0.62942,-0.0304 1.01493,-0.01 0.0834,0.0209 0.16911,0.0476 0.25941,0.0791 0.58393,0.20356 1.04981,0.29145 1.43971,0.25373 0.3899,-0.0377 0.70176,-0.20337 0.9648,-0.49403 0.22772,-0.25162 0.80313,-0.43632 1.37459,-0.48834 0.28574,-0.026 0.57182,-0.0197 0.8108,0.0196 0.23899,0.0394 0.43154,0.11475 0.5333,0.21652 0.10131,0.10129 0.2631,0.13983 0.45476,0.13901 0.19166,-8.1e-4 0.4147,-0.0426 0.64854,-0.11524 0.46769,-0.14528 0.97204,-0.416 1.30844,-0.75241 0.27858,-0.27858 0.80444,-0.51366 1.13482,-0.51366 0.36964,0 1.00088,-0.17818 1.42988,-0.39998 0.52351,-0.27075 1.04479,-0.33886 1.7322,-0.22272 0.994602,0.16805 1.795622,-0.0273 3.392552,-0.81856 0.49863,-0.24706 0.97755,-0.32764 1.36374,-0.26148 0.38619,0.0661 0.68036,0.27603 0.82992,0.62477 0.10781,0.2514 0.27463,0.42047 0.48628,0.50178 0.21166,0.0813 0.46421,0.0742 0.74414,-0.0114 0.55987,-0.17118 1.23687,-0.65639 1.96112,-1.42782 0.3264,-0.34765 0.67785,-0.6637 0.9803,-0.89245 0.15122,-0.11438 0.29022,-0.20681 0.40618,-0.26975 0.11596,-0.063 0.21023,-0.0935 0.25993,-0.0935 h 0.002 c 0.14868,-5e-4 0.35715,-0.0603 0.58602,-0.15244 0.22887,-0.0922 0.47426,-0.21789 0.68522,-0.3576 0.43325,-0.28696 1.16414,-0.49403 1.76579,-0.49403 0.58099,-9.1e-4 1.45002,-0.16954 1.95082,-0.37879 0.1756,-0.0734 0.3213,-0.13001 0.4521,-0.1695 0.2467,-0.041 0.4508,-0.0569 0.6563,-0.0496 0.2289,0.0375 0.503,0.12893 0.9038,0.27751 0.4707,0.17445 0.788,0.26864 1.0429,0.28732 0.255,0.0187 0.4465,-0.0417 0.6521,-0.17002 0.4313,-0.26939 0.8821,-0.35656 1.3612,-0.26355 0.4791,0.093 0.9889,0.3671 1.5296,0.82992 0.6288,0.53822 1.0767,0.82278 1.4898,0.84595 0.4132,0.0232 0.7691,-0.22173 1.1917,-0.70332 0.7592,-0.86523 2.3434,-1.37328 4.1858,-1.32395 0.84,0.0225 1.5687,-0.099 1.91,-0.33796 0.6649,-0.46564 1.3725,-0.45209 2.0763,0.0408 0.4993,0.3497 1.3512,0.81309 2.1404,1.19114 0.3947,0.18903 0.7745,0.35619 1.0842,0.47698 0.3097,0.12078 0.543,0.196 0.6796,0.19688 0.099,7.1e-4 0.3294,0.0831 0.5958,0.21911 0.2664,0.13602 0.575,0.32319 0.8594,0.52917 0.6221,0.45064 1.0375,0.68965 1.4764,0.72089 0.4388,0.0312 0.8861,-0.14635 1.572,-0.50385 0.5661,-0.29509 1.4494,-0.6237 1.9456,-0.72657 0.5146,-0.10669 1.6045,-0.48381 2.4376,-0.84026 0.2872,-0.12289 0.6148,-0.23807 0.9436,-0.33641 0.1655,-0.0464 0.3261,-0.0901 0.4806,-0.13126 0.4414,-0.10917 0.8487,-0.1774 1.1188,-0.1788 0.5854,-0.003 1.3482,-0.11566 1.7167,-0.2558 0.4171,-0.15848 2.4516,0.33512 3.7358,1.01446 1.0431,0.25196 4.9474,2.18962 4.7512,0.79885 -0.01,-0.0527 -0.5721,-0.90607 -0.6846,-0.91792 -0.017,-0.30306 -2.337,-1.50041 -2.8334,-1.61676 -1.1196,-0.26243 -3.7443,-1.17889 -4.4782,-1.78042 -0.735,-1.11151 -0.906,-2.71535 -0.9807,-3.01364 -0.016,-0.0635 -0.023,-0.14008 -0.02,-0.2253 0.02,-0.1646 0.049,-0.33249 0.084,-0.49196 0.056,-0.19434 0.139,-0.3941 0.2429,-0.57 0.1942,-0.32875 0.3,-0.55701 0.3225,-0.79891 0.022,-0.2419 -0.04,-0.48745 -0.1701,-0.8475 -0.1992,-0.55104 -0.2913,-0.98035 -0.2811,-1.33997 0.01,-0.35961 0.1221,-0.65081 0.3416,-0.94102 0.2433,-0.32136 0.3674,-0.61232 0.3654,-0.94568 0,-0.33335 -0.1275,-0.70499 -0.3731,-1.19735 -0.1864,-0.37364 -0.272,-0.57754 -0.2538,-0.81803 0.018,-0.24049 0.1434,-0.53009 0.3984,-1.05679 0.2951,-0.60953 0.8723,-1.39348 1.2656,-1.72444 0.3063,-0.25773 0.4972,-0.46727 0.6093,-0.7307 0.1121,-0.26343 0.1447,-0.57618 0.1447,-1.03715 0,-0.78382 0.14,-1.21376 0.4862,-1.52704 0.3729,-0.33754 0.5194,-0.80663 0.5194,-1.62316 0,-0.91946 0.1566,-1.30204 0.8966,-2.20503 0.4214,-0.51422 0.6457,-0.8041 0.7307,-1.0666 0.085,-0.26251 0.019,-0.48686 -0.1251,-0.83406 -0.1025,-0.24744 -0.2233,-0.43478 -0.3751,-0.56224 -0.1519,-0.12746 -0.3343,-0.19082 -0.5509,-0.18758 -0.4333,0.006 -1.0007,0.26496 -1.7989,0.76739 -1.7181,1.08163 -2.9169,2.41032 -3.3925,3.77341 -0.2984,0.85497 -0.731,1.73065 -1.1736,2.42983 -0.4425,0.69919 -0.9015,1.22177 -1.2211,1.36736 -0.1826,0.0832 -0.3348,0.13144 -0.4806,0.14418 -0.07,0.002 -0.1438,-0.001 -0.2227,-0.009 -0.1409,-0.0233 -0.2864,-0.0806 -0.4584,-0.1726 -0.3375,-0.18062 -0.8177,-0.28492 -1.1017,-0.22841 -0.1077,0.0214 -0.1985,0.0558 -0.2713,0.12506 -0.073,0.0693 -0.1235,0.17045 -0.1582,0.31419 -0.069,0.28748 -0.084,0.75683 -0.084,1.57045 0,0.92339 -10e-5,1.39011 -0.1075,1.68568 -0.052,0.14778 -0.1284,0.25383 -0.246,0.36329 -0.1177,0.10947 -0.2789,0.2209 -0.494,0.3669 -0.4877,0.33107 -1.0195,0.9249 -1.1973,1.34772 -0.1541,0.36636 -0.2794,0.56052 -0.6036,0.70694 -0.3243,0.14642 -0.8541,0.23817 -1.7989,0.36535 -0.8271,0.11134 -1.418,0.0956 -1.865,-0.076 -0.447,-0.17162 -0.7578,-0.49657 -1.0278,-1.02577 -0.1371,-0.26875 -0.3178,-0.54351 -0.4997,-0.76946 -0.1818,-0.22595 -0.3611,-0.40369 -0.5116,-0.48421 -0.3468,-0.18565 -0.5377,-0.45972 -0.5938,-0.90847 -0.056,-0.44875 0.029,-1.07192 0.2558,-1.9296 0.2203,-0.83446 0.4341,-2.07855 0.4765,-2.77709 0.042,-0.68888 0.1598,-1.5633 0.2578,-1.92805 0.04,-0.15058 0.068,-0.27099 0.076,-0.37311 0.01,-0.10213 -0.01,-0.18814 -0.049,-0.25941 -0.043,-0.0713 -0.1128,-0.12289 -0.2072,-0.16588 -0.094,-0.043 -0.2133,-0.0787 -0.3669,-0.11731 -0.4117,-0.10334 -0.9102,-0.0571 -1.1953,0.12093 -0.1528,0.0954 -0.3131,0.16818 -0.478,0.21962 -0.3544,0.0489 -0.6349,0.0771 -0.8671,0.0832 -0.2696,-0.0275 -0.5394,-0.10185 -0.7995,-0.21859 -0.7107,-0.31901 -1.3442,-0.95622 -1.6877,-1.81488 -0.1585,-0.39614 -0.2911,-0.64652 -0.4589,-0.80253 -0.1678,-0.15602 -0.3707,-0.20724 -0.6444,-0.20878 -0.4247,-0.002 -0.6758,-0.0441 -0.91,-0.22272 -0.2342,-0.17868 -0.4555,-0.50477 -0.7912,-1.08417 -0.35,-0.60422 -0.5176,-0.93233 -0.5059,-1.18133 0.01,-0.1245 0.053,-0.23513 0.1504,-0.36328 0.097,-0.12815 0.2457,-0.27214 0.4433,-0.45527 0.3247,-0.3016 0.494,-0.58963 0.4941,-0.82424 10e-5,-0.1173 -0.047,-0.22203 -0.1385,-0.29094 -0.092,-0.0689 -0.2238,-0.10387 -0.3907,-0.10387 -0.026,0 -0.06,-0.007 -0.1,-0.0212 -0.078,-0.0422 -0.1667,-0.0888 -0.2667,-0.14056 -0.128,-0.0867 -0.2632,-0.20177 -0.3757,-0.32607 -0.1301,-0.14369 -0.3004,-0.27159 -0.4749,-0.36536 -0.1745,-0.0938 -0.351,-0.15451 -0.4976,-0.15451 -0.1361,0 -0.3437,-0.0675 -0.5726,-0.18345 -0.2288,-0.11599 -0.4807,-0.27835 -0.7204,-0.45889 -0.2397,-0.18054 -0.4673,-0.38034 -0.6449,-0.5705 -0.1776,-0.19016 -0.304,-0.37163 -0.3473,-0.50798 -0.048,-0.15161 -0.1807,-0.28796 -0.3617,-0.39998 -0.181,-0.11203 -0.4124,-0.20016 -0.6677,-0.24805 -0.228,-0.0428 -0.4725,-0.12278 -0.678,-0.21704 -0.2055,-0.0943 -0.3723,-0.2051 -0.447,-0.29507 -0.089,-0.10739 -0.2066,-0.2033 -0.326,-0.27337 -0.1195,-0.0701 -0.2409,-0.11524 -0.3457,-0.11524 -0.028,0 -0.084,-0.0186 -0.1525,-0.0563 -0.032,-0.0175 -0.067,-0.0395 -0.1039,-0.0641 -0.052,-0.037 -0.097,-0.0724 -0.1462,-0.10904 -0.172,-0.13842 -0.3662,-0.32601 -0.5411,-0.53382 l -0.6345,-0.75602 0.619,-1.10743 c 0.1749,-0.31303 0.3336,-0.60645 0.4491,-0.82837 0.058,-0.11096 0.1043,-0.20465 0.137,-0.27337 0.016,-0.0343 0.03,-0.0616 0.039,-0.0837 0,-0.0111 0.01,-0.0207 0.01,-0.0294 0,-0.009 0.01,-0.0137 0.01,-0.0295 0,-7.3e-4 -0.01,-0.0282 -0.01,-0.0289 -1e-4,-3.2e-4 -0.01,-0.006 -0.01,-0.008 v -5.2e-4 -5.1e-4 l -5e-4,-5.2e-4 v -5.2e-4 l -5e-4,-5.1e-4 -5e-4,-5.2e-4 c -2e-4,-1.5e-4 0,-8.7e-4 0,-0.001 0,-8e-4 0,-0.001 -0.01,-0.002 -0.01,-0.006 -0.015,-0.0112 -0.022,-0.0139 -0.012,-0.005 -0.024,-0.008 -0.039,-0.0119 -0.031,-0.007 -0.074,-0.0122 -0.1271,-0.0191 -0.1067,-0.014 -0.2571,-0.0291 -0.4449,-0.0434 -0.3756,-0.0285 -0.8941,-0.0559 -1.463,-0.076 -1.0263,-0.0363 -1.5417,-0.0586 -1.8614,-0.17363 -0.1598,-0.0575 -0.2717,-0.13759 -0.3829,-0.25787 -0.1111,-0.12027 -0.2205,-0.28165 -0.3654,-0.50023 -0.4894,-0.73832 -0.8141,-1.18101 -1.1017,-1.44332 -0.28754,-0.2623 -0.54356,-0.34003 -0.87076,-0.34003 -0.17985,0 -0.45438,-0.10341 -0.75809,-0.27337 -0.30371,-0.16995 -0.63984,-0.40592 -0.95705,-0.66766 -0.31721,-0.26173 -0.61648,-0.5493 -0.84749,-0.82062 -0.23101,-0.27131 -0.39272,-0.52739 -0.43925,-0.71675 -0.1775,-0.72248 -0.34739,-1.18236 -0.58601,-1.45108 -0.17896,-0.20154 -0.39849,-0.28822 -0.67076,-0.29042 z m 2.98741,21.93148 h 5.2e-4 c 0.22998,0 0.45499,0.028 0.63252,0.0724 0.0888,0.0222 0.16542,0.0501 0.22273,0.078 0.0237,0.0116 0.0444,0.0232 0.061,0.0346 -0.18788,-0.0308 -0.39737,-0.0659 -0.63097,-0.10594 -0.43465,-0.0745 -0.85194,-0.0472 -1.1591,0.0796 0.005,-0.003 0.0105,-0.006 0.016,-0.008 0.0573,-0.0279 0.13397,-0.0558 0.22273,-0.078 0.17754,-0.0444 0.40462,-0.0724 0.63458,-0.0724 z m -15.995912,0.0522 c 0.64602,0.008 1.22676,0.0261 1.6676,0.0491 0.26602,0.0139 0.48145,0.03 0.6289,0.047 0.037,0.004 0.0698,0.008 0.0977,0.0124 -8.7e-4,0.007 -0.002,0.0154 -0.004,0.0238 -0.0101,0.0598 -0.0322,0.14292 -0.0656,0.24133 -0.002,0.007 -0.005,0.0138 -0.007,0.0207 -0.0486,0.0666 -0.10433,0.13716 -0.1633,0.20568 -0.003,0.003 -0.006,0.006 -0.008,0.009 0.0173,-0.0466 0.0329,-0.0889 0.0465,-0.12661 0.0318,-0.0887 0.0519,-0.14773 0.0594,-0.18293 0.005,-0.0246 -0.005,-0.0514 -0.0186,-0.0667 -0.0135,-0.0152 -0.0294,-0.0247 -0.0476,-0.0336 -0.0361,-0.0177 -0.0839,-0.0317 -0.14624,-0.0455 -0.1247,-0.0276 -0.30671,-0.0521 -0.54364,-0.0739 -0.37238,-0.0343 -0.87876,-0.0619 -1.49603,-0.0801 z m 11.643212,0.0289 c 0.19934,0.006 0.45671,3.9e-4 0.632,0.009 0.0423,0.002 0.0839,0.004 0.12454,0.006 0.28625,0.0152 0.53009,0.0336 0.71159,0.0579 0.10364,0.0139 0.18566,0.031 0.24391,0.047 0.0291,0.008 0.052,0.0161 0.0667,0.0233 0.0105,0.005 0.016,0.0103 0.0176,0.0114 h 5.2e-4 c 8e-4,0.001 0.002,0.002 0.003,0.004 -0.0723,-0.0129 -0.14836,-0.0267 -0.22841,-0.0419 -0.21929,-0.0414 -0.49699,-0.0749 -0.81442,-0.10128 -0.2107,-0.0175 -0.5163,-0.004 -0.75654,-0.015 z m 7.3241,0.0114 c -0.022,0.004 -0.041,0.008 -0.062,0.0114 0.02,-0.004 0.039,-0.008 0.062,-0.0114 z m -12.16257,0.11214 c -0.0856,0.0142 -0.16185,0.0291 -0.22789,0.045 -0.079,0.019 -0.14336,0.0392 -0.19275,0.062 -0.0105,0.005 -0.0205,0.009 -0.03,0.0145 0.002,-0.008 0.003,-0.0152 0.003,-0.0233 0.007,-0.005 0.024,-0.0134 0.047,-0.0217 0.0459,-0.0165 0.11888,-0.033 0.21291,-0.0491 0.0555,-0.01 0.11823,-0.0184 0.18758,-0.0274 z m 15.42227,0.003 c 0.01,0.002 0.012,0.003 0.017,0.005 0.029,0.0158 0.055,0.0325 0.08,0.0496 0.134,0.0927 0.2111,0.20157 0.2398,0.33383 0,0.022 0.01,0.0447 0.01,0.0682 -0.012,0.10461 -0.053,0.23956 -0.122,0.38086 -0.047,0.0975 -0.1071,0.1987 -0.1757,0.29765 0.1293,-0.23441 0.1995,-0.4439 0.2083,-0.62528 0.01,-0.14685 -0.028,-0.2766 -0.107,-0.37879 -0.04,-0.0512 -0.09,-0.095 -0.1504,-0.13126 z m -26.286712,0.55346 -0.30076,0.31832 c -0.28993,0.30656 -0.54888,0.62668 -0.73742,0.90434 -0.0943,0.13882 -0.17067,0.26707 -0.22531,0.37827 -0.0546,0.1112 -0.0882,0.20424 -0.092,0.28216 -0.0344,0.71863 0.0281,1.23051 0.23668,1.6061 0.039,0.0702 0.0831,0.13504 0.1328,0.19534 -0.13178,-0.10639 -0.22245,-0.20775 -0.28473,-0.32608 -0.10923,-0.20751 -0.13643,-0.47783 -0.13643,-0.92811 0,-0.44413 0.0372,-0.73225 0.18759,-1.02733 0.15036,-0.29508 0.41703,-0.601 0.88056,-1.06453 z m 7.66775,2.36523 c 0.0252,-0.001 0.0501,-8.2e-4 0.0744,0.001 -0.21532,0.0577 -0.40395,0.12628 -0.56689,0.20722 0.12435,-0.12334 0.31599,-0.2007 0.49248,-0.20825 z m -0.96583,0.55087 c -0.08,0.0871 -0.14498,0.18218 -0.19482,0.28577 -0.008,-0.0315 -0.0203,-0.0597 -0.0367,-0.0858 -0.0296,-0.0473 -0.0737,-0.0822 -0.12816,-0.10749 0.12281,-0.0168 0.24523,-0.0473 0.35967,-0.0925 z m 19.133692,0.25115 c 0.059,0.20196 0.1164,0.38405 0.1638,0.51314 0,0.0635 0,0.11868 0,0.16278 0,0.009 -6e-4,0.0165 0,0.0243 -0.032,0.0187 -0.086,0.0404 -0.1669,0.0594 -0.1084,0.0256 -0.264,0.0482 -0.479,0.0682 -0.3855,0.0216 -0.9265,0.0445 -1.5854,0.0672 -0.3001,0.0103 -0.6247,0.0209 -0.97,0.031 -0.80445,0.0138 -1.79821,0.0238 -3.02257,0.032 1.14486,-0.024 2.18251,-0.0497 3.06027,-0.076 0.8862,-0.0266 1.6098,-0.0534 2.1177,-0.0791 0.2539,-0.0129 0.4542,-0.0251 0.5943,-0.0372 0.07,-0.006 0.1247,-0.0121 0.1648,-0.0181 0.02,-0.003 0.036,-0.006 0.05,-0.0103 0.014,-0.003 0.023,-2.5e-4 0.044,-0.0212 0.04,-0.0404 0.049,-0.0963 0.057,-0.17001 0.01,-0.0737 0.01,-0.16547 0,-0.27182 -0.01,-0.0837 -0.015,-0.17621 -0.028,-0.2744 z m -1.2986,0.71881 c -0.4747,0.021 -0.9922,0.0421 -1.7069,0.0636 -0.3562,0.0107 -0.96976,0.018 -1.3751,0.0284 1.0174,-0.0336 2.7288,-0.0617 3.082,-0.092 z m -9.38136,3.9269 c -0.23244,0.10048 -0.46116,0.28037 -0.72502,0.55965 0.0452,-0.0873 0.0901,-0.16176 0.13695,-0.22531 0.10274,-0.0978 0.19405,-0.1786 0.27853,-0.24443 0.0869,-0.0439 0.18798,-0.0729 0.30954,-0.0899 z m -7.927672,0.0289 c -1.45648,0.0753 -2.34277,0.18322 -2.87579,0.42529 -0.0118,0.005 -0.0236,0.011 -0.0351,0.0165 0.2381,-0.18848 0.4643,-0.2929 0.97565,-0.35708 0.41305,-0.0519 1.00946,-0.074 1.93528,-0.0847 z m -3.5419,1.22886 c -0.0539,0.2702 -0.041,0.59579 0,0.99374 0.007,0.0709 0.0139,0.13706 0.0196,0.19844 -0.10623,-0.40579 -0.1306,-0.7316 -0.0713,-1.01183 0.0131,-0.0619 0.0303,-0.12209 0.0517,-0.18035 z m 43.055732,8.2858 c 0.2822,0 0.4956,0.0336 0.645,0.10129 0.1163,0.0526 0.1949,0.12306 0.2449,0.21704 -0.2792,-0.17391 -0.6163,-0.27135 -0.9379,-0.28991 h -5e-4 c -0.1341,-0.008 -0.2659,-0.001 -0.3897,0.0191 0.1346,-0.0282 0.278,-0.0475 0.4382,-0.0475 z m -0.8345,0.18087 c -0.063,0.0362 -0.1204,0.079 -0.1701,0.12867 -0.091,0.0914 -0.1733,0.27057 -0.249,0.49713 -0.02,0.0598 -0.039,0.12248 -0.057,0.18758 -0.02,-0.26253 0.073,-0.48555 0.2542,-0.65629 0.063,-0.0591 0.1377,-0.112 0.2223,-0.15709 z m 7,0.61236 c 0.3179,0.0826 0.6427,0.21916 0.9659,0.39171 -0.3076,-0.15398 -0.5647,-0.24764 -0.925,-0.30282 -0.2728,-0.0418 -0.6037,-0.0618 -1.0635,-0.0713 0.3424,-0.006 0.686,-0.0119 1.0226,-0.0176 z m -7.6284,1.03818 c -0.027,0.24848 -0.031,0.42882 -0.01,0.57309 0,0.0282 0.011,0.0551 0.019,0.0806 -0.022,-0.037 -0.039,-0.0746 -0.051,-0.11214 -0.044,-0.13961 -0.056,-0.27542 -0.041,-0.37724 0.012,-0.0847 0.043,-0.13961 0.078,-0.16433 z m 9.664,0.0444 c 0.2726,0.2032 0.5364,0.41858 0.786,0.63356 0.1705,0.14691 0.2974,0.26871 0.4356,0.39946 -0.01,-2.6e-4 -0.02,-7.8e-4 -0.031,-10e-4 -0.6338,-0.0161 -1.3717,-0.0275 -2.1497,-0.0341 h 1.1581 v -0.5116 c 0,-0.17664 -0.059,-0.33384 -0.1995,-0.48628 z m -2.5616,1.09244 c 0.4103,-10e-6 0.7438,0.01 1.1472,0.0119 -2.0324,-0.009 -3.9353,-0.0156 -5.1666,0.0377 0.1096,-0.004 0.2095,-0.007 0.3281,-0.0103 1.0175,-0.027 2.3494,-0.0392 3.6913,-0.0393 z"
     sodipodi:nodetypes="sccssssssssssccccscsssssssssssssssssssssscsssssssscssssssssssccssccscccccsssccsssssssssssssssssssssssscsccsssssssssssssssssssccsscscscsccsccsscsssssssssssscssssccssscscsssssssssscscccsssccssscsscccscsccssssssssssssssccccccccsssccccccsscccsssssssssssssssssscscssscscccscscscssssccssssscccsscccccssccsscccsscsccscccsscscsssccsccsccsccccccscsccssssccccccsccccccccscsccscscsscsscsccscccccscccsccsccscsccscsccss" />
  <path
     style="fill:#00ffff;fill-opacity:1;stroke:#fdeebb;stroke-width:0.1;stroke-dasharray:none;stroke-opacity:1"
     d="m 243.23824,187.06263 c 0,-0.54893 -0.2734,-1.0601 -0.9436,-1.76463 -0.584,-0.61394 -0.9602,-1.26508 -0.9873,-1.70895 -0.024,-0.39439 -0.1816,-1.42653 -0.3499,-2.29364 -0.2691,-1.38624 -0.2562,-1.63164 0.1068,-2.03267 0.227,-0.25085 0.4127,-0.77115 0.4127,-1.1562 0,-0.65656 0.052,-0.69035 0.835,-0.54345 0.4592,0.0861 1.2129,-1.49597 1.6747,-1.58837 1.0572,-0.21143 2.6449,-0.19397 2.8507,-1.22304 0.123,-0.61518 0.3006,-0.79322 0.8549,-0.85703 0.4635,-0.0534 0.7313,-0.25041 0.7937,-0.58378 0.1204,-0.64312 0.4835,-0.87196 1.3911,-0.87678 0.7138,-0.004 0.7236,0.0148 0.5744,1.10339 -0.1264,0.92224 -0.049,1.24804 0.4632,1.94996 0.6008,0.82309 0.9474,1.48981 1.9133,3.68001 0.6359,1.44195 0.6026,1.7989 -0.2654,2.85199 -0.407,0.49369 -0.8213,1.22714 -0.9207,1.62986 -0.2977,1.20547 -0.9007,1.8478 -1.743,1.85656 -0.9652,0.01 -1.8223,0.6024 -1.9258,1.33104 -0.072,0.50792 -0.23,0.56737 -1.5898,0.59864 -0.8303,0.019 -1.8776,0.1169 -2.3273,0.21728 -0.7847,0.17513 -0.8177,0.15129 -0.8177,-0.59026 z"
     id="path3945"
     sodipodi:nodetypes="sssssssssssssssssssssss" />
  <path
     style="fill:#00ffff;fill-opacity:1;stroke:#fdeebb;stroke-width:0.1;stroke-dasharray:none;stroke-opacity:1"
     d="m 51.060128,134.24841 c -0.0858,-0.13096 -0.10833,-0.6542 -0.0302,-0.70246 0.0257,-0.0159 0.0466,-0.0699 0.0466,-0.12015 0,-0.0521 0.0496,-0.11398 0.11549,-0.14399 0.0635,-0.0289 0.12803,-0.0921 0.14332,-0.14025 0.0153,-0.0482 0.0733,-0.12999 0.12893,-0.18175 0.093,-0.0865 0.10324,-0.15292 0.12735,-0.82486 0.0143,-0.4019 0.0415,-0.76396 0.0602,-0.80457 0.0188,-0.0406 0.10121,-0.1092 0.18331,-0.15238 0.20142,-0.10601 0.4545,-0.28149 0.5702,-0.39536 0.0522,-0.0514 0.157,-0.10025 0.23278,-0.10845 0.12573,-0.0138 0.13909,-0.003 0.15266,0.14017 0.008,0.0853 -0.009,0.22151 -0.0376,0.30263 -0.0288,0.0811 -0.0696,0.29702 -0.0906,0.47972 -0.0422,0.36692 -0.17328,0.7154 -0.26913,0.7154 -0.034,0 -0.0876,0.0566 -0.11909,0.12584 -0.0315,0.0692 -0.10433,0.17301 -0.16195,0.23066 -0.087,0.0871 -0.10478,0.15587 -0.10478,0.40521 0,0.26924 -0.0156,0.31986 -0.15131,0.48853 -0.2626,0.32652 -0.33621,0.44336 -0.38534,0.61153 -0.0397,0.13584 -0.072,0.16597 -0.19093,0.17767 -0.11049,0.0109 -0.16068,-0.0127 -0.21994,-0.10314 z"
     id="path3946" />
  <path
     style="fill:#00ffff;fill-opacity:1;stroke:#fdeebb;stroke-width:0.1;stroke-dasharray:none;stroke-opacity:1"
     d="m 46.032568,157.74929 c -0.0677,-0.0355 -0.15333,-0.12158 -0.19035,-0.19135 -0.037,-0.0698 -0.17137,-0.23945 -0.29855,-0.37708 -0.22506,-0.24347 -0.28715,-0.38719 -0.28715,-0.6644 0,-0.0741 -0.0629,-0.25252 -0.1397,-0.39648 -0.0768,-0.14396 -0.13968,-0.28905 -0.13968,-0.32239 0,-0.0334 -0.0426,-0.0905 -0.0946,-0.12689 -0.13046,-0.0914 -0.18497,-0.31496 -0.18364,-0.75354 0.003,-0.60523 0.0399,-0.70085 0.47611,-1.19581 0.0704,-0.0799 0.12804,-0.17103 0.12804,-0.20251 0,-0.0315 0.0471,-0.0885 0.10477,-0.12674 0.10298,-0.0683 0.10515,-0.0895 0.12803,-1.25402 l 0.0233,-1.18451 0.12803,-0.15203 c 0.0704,-0.0836 0.12803,-0.18388 0.12803,-0.22278 0,-0.0389 0.11367,-0.20021 0.25257,-0.35843 0.13891,-0.15822 0.26689,-0.34478 0.2844,-0.41455 0.0175,-0.0698 0.0472,-0.12689 0.0659,-0.12689 0.0746,0 0.15301,-0.27485 0.17709,-0.62034 0.022,-0.31615 0.0398,-0.37378 0.13488,-0.43604 0.0602,-0.0395 0.10951,-0.10123 0.10951,-0.13724 0,-0.036 0.0501,-0.0883 0.11126,-0.11618 0.0612,-0.0279 0.13407,-0.10077 0.16195,-0.16197 0.0279,-0.0612 0.0818,-0.11126 0.11991,-0.11126 0.038,0 0.0944,-0.0471 0.12512,-0.10475 0.0308,-0.0576 0.1101,-0.15785 0.17624,-0.2227 0.10954,-0.10737 0.15881,-0.17984 0.3764,-0.55361 0.0384,-0.066 0.096,-0.13674 0.12803,-0.15722 0.032,-0.0204 0.0923,-0.10324 0.13407,-0.18394 0.12279,-0.23746 0.38097,-0.45302 0.54326,-0.45362 0.1261,0 0.30282,0.22674 0.38249,0.4918 0.0956,0.31782 0.25299,0.52221 0.63613,0.82579 0.15584,0.12348 0.16648,0.14989 0.19466,0.48324 0.0204,0.24199 0.062,0.40471 0.1324,0.51861 0.12811,0.2073 0.35454,0.4183 0.48783,0.45461 0.0558,0.0151 0.11248,0.0565 0.12603,0.0918 0.0135,0.0353 0.10382,0.0972 0.2006,0.13769 0.0968,0.0405 0.21818,0.11202 0.26974,0.15906 0.0516,0.0471 0.14613,0.10081 0.21016,0.11941 0.21162,0.0616 0.37248,0.25508 0.37248,0.44812 0,0.25797 -0.0639,0.37973 -0.25124,0.4789 -0.0923,0.0488 -0.1678,0.10618 -0.1678,0.12742 0,0.0212 -0.0736,0.0693 -0.1636,0.10695 -0.09,0.0376 -0.17666,0.10234 -0.19259,0.14388 -0.0159,0.0415 -0.079,0.0945 -0.14022,0.11779 -0.0612,0.0233 -0.12431,0.0793 -0.14026,0.12449 -0.0159,0.0452 -0.0707,0.12845 -0.12155,0.18502 -0.11684,0.12994 -0.32171,0.83804 -0.38253,1.32223 -0.0212,0.16872 -0.0514,0.22569 -0.1415,0.26673 -0.063,0.0287 -0.11454,0.0824 -0.11454,0.1194 0,0.037 -0.0733,0.0914 -0.16296,0.12102 -0.0896,0.0296 -0.16296,0.0697 -0.16296,0.0892 0,0.046 -0.21404,0.1434 -0.31646,0.14406 -0.0978,0 -0.47504,0.35423 -0.47504,0.4453 0,0.0365 -0.0246,0.0663 -0.0549,0.0663 -0.0767,0 -0.73662,0.69186 -0.73662,0.77227 0,0.0362 -0.0388,0.10464 -0.0863,0.15213 -0.0552,0.0552 -0.0981,0.19035 -0.11895,0.3746 -0.0277,0.24471 -0.0492,0.29456 -0.1423,0.32999 -0.12874,0.0489 -0.72329,0.62254 -0.72329,0.69781 0,0.0283 -0.0427,0.1093 -0.095,0.17995 -0.059,0.0798 -0.11014,0.25108 -0.13501,0.45206 -0.0336,0.27083 -0.15359,0.69945 -0.21239,0.75825 -0.0649,0.0649 -0.35049,0.0795 -0.45772,0.0233 z"
     id="path3947" />
  <path
     style="fill:#00ffff;fill-opacity:1;stroke:#fdeebb;stroke-width:0.1;stroke-dasharray:none;stroke-opacity:1"
     d="m 52.147348,158.57831 c 0,-0.022 -0.0539,-0.11944 -0.1197,-0.21646 -0.12501,-0.18423 -0.20317,-0.68125 -0.14412,-0.91657 0.0156,-0.0618 0.15405,-0.24741 0.30785,-0.41248 0.47519,-0.50993 0.51469,-0.55798 0.51469,-0.62585 0,-0.0362 0.0524,-0.14306 0.11639,-0.23741 0.064,-0.0943 0.11639,-0.19682 0.11639,-0.22773 0,-0.0834 0.29948,-0.37639 0.47363,-0.46326 0.20516,-0.10234 0.35478,-0.06 0.56962,0.1614 0.0986,0.10165 0.21855,0.18481 0.26647,0.18481 0.0479,0 0.0871,0.0175 0.0871,0.0391 0,0.0599 0.22098,0.14713 0.37248,0.14713 0.13705,0 0.37171,0.0852 0.37341,0.13552 0,0.0151 0.0301,0.19323 0.0658,0.39582 0.0715,0.40603 0.0516,0.51012 -0.13343,0.69511 -0.0657,0.0658 -0.11957,0.15089 -0.11957,0.18921 0,0.0383 -0.0344,0.0889 -0.0766,0.1125 -0.0512,0.0287 -0.0937,0.15576 -0.12806,0.38319 -0.0467,0.30933 -0.0626,0.3433 -0.17391,0.37296 -0.0673,0.018 -0.18664,0.0801 -0.26506,0.13808 -0.12562,0.0929 -0.17203,0.10097 -0.3897,0.0679 -0.35386,-0.0537 -0.55872,-0.0464 -1.08516,0.0388 -0.54076,0.0874 -0.62855,0.0928 -0.62855,0.0382 z"
     id="path3948" />
  <path
     style="fill:#00ffff;fill-opacity:1;stroke:#fdeebb;stroke-width:0.1;stroke-dasharray:none;stroke-opacity:1"
     d="m 60.792348,153.92466 c -0.15156,-0.15854 -0.40273,-0.63992 -0.40542,-0.77706 0,-0.0512 -0.0276,-0.13946 -0.059,-0.19608 -0.074,-0.13314 -0.5334,-0.5256 -0.61527,-0.5256 -0.0346,0 -0.0763,-0.0421 -0.0926,-0.0936 -0.0164,-0.0515 -0.0911,-0.12536 -0.16607,-0.16415 -0.075,-0.0388 -0.1364,-0.0877 -0.1364,-0.10877 0,-0.0212 -0.0398,-0.0842 -0.0885,-0.14036 -0.0487,-0.0562 -0.12478,-0.25318 -0.16905,-0.43781 -0.0443,-0.18462 -0.13536,-0.43696 -0.20243,-0.56075 -0.1079,-0.19913 -0.1655,-0.24607 -0.49961,-0.40738 -0.20773,-0.10028 -0.40947,-0.18235 -0.44836,-0.18235 -0.0692,0 -0.45027,-0.33841 -0.45863,-0.40733 -0.003,-0.0193 -0.0236,-0.45403 -0.0472,-0.96618 -0.0236,-0.51215 -0.0551,-1.0636 -0.0699,-1.22544 -0.0148,-0.16185 -0.006,-0.35042 0.0206,-0.41905 0.0262,-0.0686 0.061,-0.24527 0.0775,-0.39251 0.0326,-0.29244 0.11099,-0.40738 0.27762,-0.40738 0.11674,0 0.1646,0.0779 0.1646,0.26787 0,0.0663 0.0348,0.15901 0.0774,0.20603 0.0425,0.047 0.10056,0.13205 0.12895,0.18899 0.0284,0.0569 0.0982,0.12673 0.15513,0.15512 0.0569,0.0284 0.14033,0.084 0.18531,0.12348 0.0543,0.0477 0.21143,0.079 0.46763,0.093 0.21222,0.0116 0.40936,0.0447 0.43815,0.0734 0.0288,0.0288 0.0699,0.1841 0.0914,0.34518 0.0259,0.19386 0.0686,0.31739 0.12648,0.36549 0.11093,0.0922 0.192,0.46696 0.192,0.88747 0,0.27053 0.0217,0.36457 0.12584,0.54477 0.0692,0.11981 0.15999,0.24924 0.20172,0.28766 0.17883,0.16454 0.25043,0.34541 0.28347,0.71607 0.0588,0.65939 0.12396,0.92691 0.25136,1.03166 0.0634,0.0522 0.11535,0.12134 0.11535,0.1537 0,0.0324 0.0734,0.0895 0.16296,0.12692 0.0896,0.0374 0.16296,0.0876 0.16296,0.11139 0,0.0238 0.0603,0.0789 0.1339,0.12239 0.17976,0.10618 0.24297,0.32584 0.19072,0.6626 -0.0225,0.14555 -0.0633,0.43079 -0.0904,0.63391 -0.0272,0.2031 -0.0558,0.37574 -0.0637,0.38362 -0.008,0.008 -0.0757,0.0265 -0.15063,0.0415 -0.10998,0.022 -0.16163,0 -0.26778,-0.11043 z"
     id="path3949" />
  <path
     style="fill:#00ffff;fill-opacity:1;stroke:#fdeebb;stroke-width:0.1;stroke-dasharray:none;stroke-opacity:1"
     d="m 63.901088,154.33886 c -0.13332,-0.0569 -0.22849,-0.36137 -0.16496,-0.52779 0.0269,-0.0704 0.0802,-0.12803 0.11842,-0.12803 0.0383,0 0.11608,-0.0629 0.17288,-0.1397 0.0568,-0.0768 0.13121,-0.13967 0.16534,-0.13967 0.0342,0 0.0849,-0.0501 0.11279,-0.11126 0.0279,-0.0612 0.10076,-0.13409 0.16195,-0.16195 0.0612,-0.0279 0.11129,-0.0817 0.11129,-0.11967 0,-0.0379 0.0576,-0.1224 0.12803,-0.1877 l 0.12803,-0.11877 v -0.83386 c 0,-0.78515 -0.006,-0.84021 -0.0989,-0.94237 -0.0544,-0.0597 -0.12326,-0.15563 -0.15295,-0.21325 -0.0297,-0.0576 -0.0821,-0.10475 -0.11652,-0.10475 -0.0344,0 -0.0899,-0.033 -0.1233,-0.0732 -0.0334,-0.0403 -0.14076,-0.11406 -0.23849,-0.16391 -0.14547,-0.0742 -0.17773,-0.11567 -0.17773,-0.22852 0,-0.1121 0.0238,-0.1434 0.12804,-0.16766 0.0704,-0.0164 0.21709,-0.12333 0.32594,-0.2376 l 0.19788,-0.20778 -8e-5,-0.58973 c -5e-5,-0.49268 -0.0148,-0.61653 -0.0891,-0.75266 -0.0489,-0.0896 -0.12049,-0.22936 -0.15893,-0.31054 -0.0385,-0.0812 -0.11361,-0.17095 -0.16701,-0.19952 -0.0534,-0.0286 -0.0971,-0.0763 -0.0971,-0.10597 0,-0.0297 -0.0576,-0.11414 -0.12803,-0.18767 -0.10266,-0.10715 -0.12716,-0.1747 -0.12356,-0.3407 0.005,-0.24183 0.006,-0.24283 0.19013,-0.27969 0.13525,-0.027 0.14351,-0.0193 0.19343,0.17883 0.0374,0.14843 0.1115,0.26181 0.26168,0.40026 l 0.20955,0.19315 0.40843,0.005 c 0.58539,0.007 0.62677,0.0243 0.70342,0.29985 0.0353,0.127 0.0904,0.26236 0.12248,0.30078 0.032,0.0384 0.0821,0.14092 0.11128,0.22781 0.0523,0.15565 0.0857,0.19963 0.38902,0.51178 l 0.15311,0.15759 v 0.48527 c 0,0.45408 -0.007,0.49054 -0.10877,0.56729 -0.16769,0.1265 -0.25042,0.56372 -0.28744,1.51895 -0.018,0.46096 -0.0485,0.89567 -0.068,0.96605 -0.0363,0.13104 -0.31202,0.40748 -0.40635,0.40748 -0.0289,0 -0.14861,0.0603 -0.26609,0.13399 -0.11747,0.0737 -0.26606,0.14615 -0.3302,0.16097 -0.15489,0.0358 -0.50596,0.37769 -0.58698,0.57158 -0.0356,0.0851 -0.0647,0.21706 -0.0647,0.29321 0,0.0761 -0.0177,0.14936 -0.0393,0.16274 -0.0815,0.0503 -0.40664,0.0711 -0.49867,0.0317 z"
     id="path3950" />
</svg>
