<?xml version="1.0" encoding="UTF-8" standalone="no"?>
<!-- Created with Inkscape (http://www.inkscape.org/) -->

<svg
   width="383.25516mm"
   height="324.70892mm"
   viewBox="0 0 383.25516 324.70892"
   version="1.1"
   id="svg1"
   sodipodi:docname="sevencities-poly-deserts.svg"
   inkscape:version="1.4.2 (ebf0e940d0, 2025-05-08)"
   xmlns:inkscape="http://www.inkscape.org/namespaces/inkscape"
   xmlns:sodipodi="http://sodipodi.sourceforge.net/DTD/sodipodi-0.dtd"
   xmlns="http://www.w3.org/2000/svg"
   xmlns:svg="http://www.w3.org/2000/svg"
   xmlns:www="http://www.prognoz.ru">
  <sodipodi:namedview
     id="namedview1"
     pagecolor="#ffffff"
     bordercolor="#000000"
     borderopacity="0.25"
     inkscape:showpageshadow="2"
     inkscape:pageopacity="0.0"
     inkscape:pagecheckerboard="0"
     inkscape:deskcolor="#d1d1d1"
     inkscape:document-units="mm"
     inkscape:zoom="2.9952523"
     inkscape:cx="644.01921"
     inkscape:cy="959.01772"
     inkscape:window-width="2256"
     inkscape:window-height="1435"
     inkscape:window-x="0"
     inkscape:window-y="0"
     inkscape:window-maximized="1"
     inkscape:current-layer="svg1" />
  <www:MetaInfo>
    <www:Geo>
      <www:GeoItem
         X="0"
         Y="0"
         Latitude="0"
         Longitude="0" />
      <www:GeoItem
         X="400"
         Y="400"
         Latitude="-20"
         Longitude="20" />
    </www:Geo>
  </www:MetaInfo>
  <path
     id="path3970"
     style="baseline-shift:baseline;display:inline;overflow:visible;vector-effect:none;fill:#fdeebb;stroke:none;enable-background:accumulate;stop-color:#000000"
     d="m 240.9301,152.04671 c -1.02964,-0.40818 -0.27296,0.61029 -1.84512,0.0711 l -2.574,-0.073 c -0.29558,-0.008 -0.75467,-0.1616 -2.61813,-0.78761 -0.40916,-0.13745 -1.36491,-0.89541 -1.53608,-0.67058 -0.18191,0.167 -1.38805,0.28812 -1.57527,0.46028 -0.48146,0.4427 -0.95809,0.88227 -1.32085,1.23817 -0.13298,0.13046 -0.23191,0.23695 -0.33177,0.34365 -0.68744,-0.004 -0.30841,0.44372 -0.8191,0.94476 l -1.02124,1.00197 c -0.83027,0.8146 -1.79667,2.96816 -2.43233,3.22019 l -0.37776,0.002 -0.24494,0.36587 -5.2e-4,5.2e-4 c -0.53481,0.44217 -0.89149,1.0906 -1.50998,2.13733 -0.49548,0.83858 -0.79703,1.36983 -0.85577,1.93735 -0.0299,0.28849 0.0318,0.58378 0.16795,0.82631 v 0.002 c 0.1346,0.23949 0.31746,0.42237 0.52348,0.60151 0.1932,0.16796 0.24116,0.23305 0.28733,0.3669 0.0451,0.13062 0.076,0.37844 0.076,0.81856 0,0.49167 -0.019,0.85545 0.14469,1.20354 v 0.2651 l 0.308,0.14935 c 0.22995,0.21051 0.4968,0.337 0.86196,0.53071 0.59208,0.3141 0.91802,0.68904 0.97668,0.85732 0.0537,0.15408 0.10565,0.30339 0.20878,0.46095 0.10674,0.16321 0.27798,0.31176 0.47283,0.39222 0.37176,0.15349 0.72769,0.13281 1.33377,0.13281 0.37455,0 0.64902,0.0142 0.79117,0.0434 v 0.002 c 0.0909,0.0187 0.11444,0.0261 0.11989,0.03 h 5.2e-4 v 5.2e-4 h 5.1e-4 v 5.1e-4 5.2e-4 5.2e-4 l -5.1e-4,5.1e-4 v 5.2e-4 5.2e-4 5.1e-4 5.2e-4 5.2e-4 h 5.1e-4 v 5.1e-4 c -0.002,-0.003 0.0418,0.1046 0.045,0.34985 0.003,0.24818 -0.0254,0.61784 -0.078,1.1095 l -0.0155,0.14056 c -7.9e-4,0.004 -0.001,0.006 -0.002,0.01 -0.037,0.16711 -0.0522,0.34852 -0.0548,0.53691 l -0.002,0.0217 c -6e-5,0.008 -0.002,0.0149 -0.002,0.0233 l -0.11317,1.0449 1.5136,0.70332 0.0295,0.0134 c 0.37684,0.17492 0.74476,0.30879 1.07435,0.39274 0.32446,0.0826 0.6039,0.15407 0.94723,0.0486 0.82497,-0.25354 1.61421,-0.8728 2.31613,-1.65778 0.26322,-0.29437 0.51296,-0.61368 0.74156,-0.94981 -0.14382,0.53039 -0.31276,0.96342 -0.52245,1.34565 -0.0352,0.0641 -0.12459,0.24342 -0.20154,0.40463 -0.0737,0.15438 -0.35198,0.48655 -0.6661,0.80666 -0.31412,0.32011 -1.16038,0.79651 -0.89246,0.78135 6.53149,-0.36962 6.72665,-0.9443 10.67908,1.0784 0.88343,0.4521 1.38674,-1.14384 1.916,-1.31999 0.6138,-0.20429 1.10521,-0.0407 1.17697,-0.0312 0.16886,0.0224 0.27357,0.0316 0.36328,0.0134 0.0897,-0.0181 0.15572,-0.0649 0.2341,-0.13849 0.0506,-0.0475 0.045,-0.0321 0.13074,-0.15038 0.0344,-0.0475 0.0581,-0.0861 0.0589,-0.13591 h 5.2e-4 c 0.001,-0.002 0.003,-0.0113 0.0109,-0.0222 0.0104,-0.0158 0.0279,-0.0373 0.0491,-0.0605 0.0424,-0.0463 0.10299,-0.10226 0.16588,-0.15452 0.0629,-0.0523 0.12941,-0.10093 0.18552,-0.13642 0.0281,-0.0177 0.0521,-0.0322 0.0724,-0.0413 0.0201,-0.009 0.0373,-0.0114 0.0372,-0.0114 0.001,0 0.0111,-9.4e-4 0.0155,-0.002 0.004,-0.001 0.008,-0.003 0.0119,-0.004 0.007,-0.003 0.0127,-0.006 0.0191,-0.01 0.0129,-0.008 0.0271,-0.0168 0.0434,-0.0289 0.0326,-0.0242 0.0732,-0.0583 0.12093,-0.0997 0.0954,-0.0829 0.11434,-0.56036 0.23999,-0.68524 l 1.28065,-0.5855 0.32822,-0.97706 c 0.0529,-0.15751 0.84014,-0.74338 0.87654,-1.37932 0.0363,-0.63594 0.0805,-1.41922 0.11317,-2.18178 0.0275,-0.64134 0.047,-1.26818 0.046,-1.77974 l 0.13952,-0.001 0.0114,-0.0295 h 0.0119 l 0.81442,-1.7539 0.80667,-1.73839 -0.76171,-1.12293 c -0.22217,-0.32737 -0.3246,-0.53361 -0.35915,-0.66042 -0.0354,-0.13024 -0.0344,-0.20566 0.0212,-0.42168 0.0885,-0.34378 0.15197,-0.67051 0.18759,-0.98857 0.0756,-0.18982 0.12688,-0.3995 0.12506,-0.61909 v -0.002 c -0.003,-0.30091 -0.0863,-0.58572 -0.20878,-0.96325 -0.15164,-0.66039 -0.4502,-1.31081 -0.89296,-2.05259 -0.40692,-0.68175 -0.65833,-1.19137 -0.98444,-1.62316 -0.19723,-0.26116 -0.44499,-0.47985 -0.73587,-0.65422 -0.28524,-0.25438 -0.62958,-0.40665 -0.94775,-0.41806 -0.0667,-0.002 -0.2006,-0.006 -0.40928,-0.008 -1.19305,-0.15293 -2.99979,-0.10335 -6.32106,-0.10335 z m -10.70102,1.02961 0.0155,0.0672 c -0.0272,-9.2e-4 -0.0545,-0.002 -0.0832,-0.003 l 0.0129,-0.0346 c 0.018,-0.01 0.0548,-0.009 0.0548,-0.0295 z m 1.82507,4.93639 0.0134,0.0879 -0.11472,-0.006 c 0.0111,-0.006 0.0218,-0.0128 0.032,-0.0196 0.0269,-0.0179 0.0497,-0.0384 0.0692,-0.062 z m 1.68827,0.8475 c 10e-4,-2.2e-4 0.003,0 0.005,0 0.0129,5.3e-4 0.0412,0.006 0.091,0.0398 0.0541,0.0364 0.13281,0.19635 0.13281,0.23616 0,0.0578 -0.0597,0.16398 -0.0894,0.18707 -0.007,-0.005 -0.0149,-0.0104 -0.0238,-0.0171 h 0.002 c -0.0217,-0.0163 -0.093,-0.0785 -0.12713,-0.18345 -0.0342,-0.10501 -0.0135,-0.20299 -0.004,-0.23254 0.006,-0.0168 0.008,-0.0256 0.008,-0.0295 h 5.1e-4 0.002 5.2e-4 c 4.1e-4,-1.3e-4 0.001,-3e-4 0.003,-5.1e-4 z m -10.62312,7.29412 c 0.002,0.004 0.004,0.008 0.006,0.0119 -0.003,-0.006 -0.006,-0.0103 -0.006,-0.0103 z m 13.12839,1.2082 c -0.0397,0.0878 -0.0797,0.18055 -0.1204,0.2744 -0.0949,0.21881 -0.19203,0.44398 -0.28164,0.63045 -0.0896,0.18647 -0.17636,0.33538 -0.23254,0.38706 -0.021,0.0193 -0.0427,0.0407 -0.0656,0.0646 0.20896,-0.53475 0.44284,-0.98433 0.70021,-1.35651 z m 12.73153,0.48369 c 0.0114,0.008 0.0242,0.0144 0.0367,0.0186 0.0249,0.009 0.049,0.0115 0.078,0.0145 0.0519,0.005 0.0913,0.008 0.12919,-0.0124 -0.0575,0.24773 -0.1128,0.47666 -0.16433,0.67438 -0.0626,0.24022 -0.12014,0.43378 -0.16795,0.5581 -0.0157,0.0409 -0.0266,0.0604 -0.0393,0.0842 -0.21196,-0.24715 -0.24948,-0.62974 -0.0119,-0.91209 0.0599,-0.0712 0.10567,-0.1414 0.13281,-0.20722 0.0271,-0.0658 0.0399,-0.12943 0.0176,-0.18552 -0.003,-0.009 -0.007,-0.02 -0.0109,-0.0326 z"
     sodipodi:nodetypes="ccsscsscsscccsssccssscccssssscccccccccccccccccccccccccccssscsssssssssscccsssscscsssccssscccccccsscsscsscccccccccsccccssccccscccsccccsccccccsssscssscccsscsscss" />
  <defs
     id="defs1" />
  <path
     id="path3648"
     style="baseline-shift:baseline;display:inline;overflow:visible;vector-effect:none;fill:#fdeebb;enable-background:accumulate;stop-color:#000000"
     d="m 143.26789,167.7696 c -1.9743,0.0735 -3.78421,0.52022 -4.9904,1.33015 -0.10544,0.0708 -0.24765,0.21183 -0.42374,0.40824 -0.17608,0.19641 -0.3822,0.44791 -0.6072,0.73433 -0.45,0.57282 -0.97124,1.28833 -1.44746,1.98644 -0.26943,0.39497 -0.44904,0.71191 -0.66973,1.06815 -0.10628,-0.0276 -0.19591,-0.0567 -0.40462,-0.0563 -0.39774,7.4e-4 -0.9838,0.1429 -1.32809,0.32246 -0.32377,0.16885 -0.84958,0.31137 -1.14049,0.31213 -0.32714,8.1e-4 -0.85919,0.19638 -1.21698,0.4377 -0.29289,0.19756 -0.48781,0.2958 -0.97617,0.33383 -0.48837,0.038 -1.26622,0.0101 -2.69545,-0.0548 -1.34375,-0.061 -2.11943,-0.0854 -2.5957,-0.0563 -0.23813,0.0146 -0.40196,0.0423 -0.52555,0.0879 -0.12358,0.0456 -0.20671,0.11088 -0.27337,0.19121 -0.0747,0.0899 -0.17336,0.17307 -0.26768,0.23254 -0.0943,0.0595 -0.18678,0.0935 -0.2403,0.0935 -0.0987,0 -0.22309,0.0643 -0.37465,0.1602 -0.15155,0.0959 -0.32248,0.22641 -0.47853,0.37104 -0.23433,0.21719 -0.38203,0.40228 -0.46715,0.64492 -0.0851,0.24265 -0.10697,0.53837 -0.10697,0.98599 0,0.49025 -0.0202,0.77086 -0.1447,1.04489 -0.12454,0.27403 -0.35921,0.54988 -0.79323,1.0139 -0.26307,0.28124 -0.50135,0.57576 -0.67541,0.8263 -0.087,0.12527 -0.15949,0.23925 -0.20929,0.3359 -0.0498,0.0966 -0.0801,0.17347 -0.0801,0.24029 0,0.11896 0.0693,0.30298 0.17415,0.53124 0.1048,0.22826 0.24758,0.49217 0.40618,0.74 0.75989,1.18736 0.78753,2.8423 0.0703,3.92018 -0.28708,0.4314 -0.70942,0.84681 -1.13895,1.15238 -0.42952,0.30557 -0.8679,0.49765 -1.17151,0.49765 -0.10083,0 -0.18181,0.006 -0.24804,0.0253 -0.0662,0.0198 -0.11983,0.0602 -0.14676,0.12144 -0.0539,0.12235 -0.0224,0.29732 0.0429,0.60151 0.0797,0.37188 0.19532,1.2343 0.25425,1.9079 l 0.10542,1.20716 -1.21905,1.29087 c -1.42899,1.51492 -2.3013,2.16724 -3.13676,2.36368 -0.34555,0.0813 -1.30423,0.4276 -2.14819,0.77308 -0.67227,0.2752 -1.0552,0.44802 -1.27951,0.6196 -0.22432,0.17159 -0.28318,0.35199 -0.28319,0.59738 0,0.31669 0.15438,0.73476 0.35554,0.95705 0.21223,0.2345 0.36343,0.74234 0.41031,1.26969 0.0469,0.52735 -0.009,1.07656 -0.1757,1.39268 -0.14539,0.27519 -0.52956,0.63582 -0.83199,0.78083 -0.27167,0.13026 -0.45499,0.28703 -0.53744,0.47853 -0.0825,0.19149 -0.0574,0.41115 0.0667,0.65422 0.24822,0.48615 0.8899,1.08469 1.94716,1.85777 0.12847,0.0939 0.21323,0.22211 0.26976,0.43718 0.0565,0.21508 0.0816,0.5162 0.0816,0.93793 0,0.53544 -0.0153,0.82653 -0.13642,1.09347 -0.12114,0.26695 -0.35529,0.5185 -0.80099,0.9648 -0.83844,0.83956 -1.30733,1.49855 -1.42161,2.09393 -0.11428,0.59537 0.13878,1.1171 0.7183,1.65416 0.36982,0.34276 0.56309,0.77275 0.63717,1.42989 0.0518,0.46009 0.0793,0.70536 0.20102,0.84956 0.0609,0.0721 0.14598,0.11175 0.25166,0.13074 0.10568,0.019 0.23407,0.0196 0.40256,0.0196 0.33401,0 1.19949,-0.14299 2.01177,-0.30696 0.40615,-0.082 0.79696,-0.16913 1.0976,-0.24598 0.15032,-0.0384 0.27678,-0.0758 0.37311,-0.10749 0.0482,-0.0159 0.0887,-0.0288 0.12092,-0.0429 0.0322,-0.0141 0.056,-0.0265 0.0765,-0.047 0.0175,-0.0175 0.0222,-0.0372 0.0233,-0.0543 0.001,-0.0171 -0.002,-0.0329 -0.006,-0.0511 -0.007,-0.0363 -0.021,-0.0781 -0.0408,-0.12661 -0.0397,-0.0971 -0.10188,-0.21921 -0.17983,-0.34417 -0.11911,-0.19097 -0.16491,-0.3158 -0.12868,-0.50746 0.0362,-0.19167 0.16377,-0.45366 0.40411,-0.88883 0.44199,-0.80036 0.7931,-1.11554 1.86707,-1.67019 0.36844,-0.19027 0.74044,-0.39477 1.04335,-0.57205 0.30291,-0.17728 0.53358,-0.32478 0.63252,-0.41032 0.16752,-0.14483 0.59196,-0.33976 0.91829,-0.41754 0.42936,-0.10227 1.12241,-0.49621 1.85518,-1.00976 0.73278,-0.51355 1.49946,-1.14738 2.05259,-1.72702 0.24574,-0.25753 0.53497,-0.51563 0.80098,-0.72244 0.26601,-0.20682 0.51168,-0.36172 0.65836,-0.41393 1.70356,-0.60639 6.00665,-1.96762 6.91224,-2.18746 1.90285,-0.46194 4.78969,-1.85128 6.4394,-3.09801 2.54835,-1.92584 6.15932,-3.42924 8.20467,-3.42924 1.42916,0 3.75871,-0.66626 6.59598,-1.87896 1.40481,-0.60045 2.31531,-0.85906 3.04477,-0.8692 0.47769,-0.007 0.75809,-0.0259 0.97462,-0.12712 0.21652,-0.10128 0.35582,-0.28186 0.54881,-0.58963 0.17677,-0.28193 0.31596,-0.44503 0.50022,-0.54725 0.18425,-0.10221 0.42259,-0.1461 0.80461,-0.17363 0.0249,-0.002 0.0774,0.009 0.14624,0.0372 0.0689,0.0278 0.15355,0.0703 0.25218,0.12661 0.19726,0.11264 0.44729,0.27809 0.73019,0.47852 0.5658,0.40087 1.26577,0.94267 1.95337,1.49449 1.37522,1.10366 2.71084,2.25063 2.84375,2.37091 0.006,0.005 0.009,0.008 0.014,0.0119 0.002,0.002 0.005,0.004 0.008,0.006 0.002,0.002 0.008,0.005 0.01,0.006 3.4e-4,1.6e-4 0.0137,0.006 0.0139,0.006 2.1e-4,3e-5 0.0428,-0.0138 0.0429,-0.0139 9e-5,-8e-5 0.0155,-0.0406 0.0155,-0.0408 -2e-5,-2.2e-4 -0.002,-0.0152 -0.002,-0.0155 -2.8e-4,-6.8e-4 -0.004,-0.007 -0.006,-0.0103 -0.002,-0.002 -0.004,-0.006 -0.006,-0.008 -0.0125,-0.0175 -0.0335,-0.0442 -0.0682,-0.0863 -0.0694,-0.0842 -0.18284,-0.22137 -0.31626,-0.39429 -0.19584,-0.25384 -0.43496,-0.58538 -0.64079,-0.94 0.014,0.008 0.0288,0.0157 0.0439,0.0222 0.15718,0.0681 0.35815,0.0497 0.68627,-0.004 -0.0119,0.0376 -0.0184,0.0803 -0.0212,0.12712 -0.006,0.0968 0.004,0.21595 0.0196,0.37104 0.0433,0.43465 0.28118,0.84153 0.65215,1.11724 0.37905,0.28173 1.1294,0.52295 2.05673,0.70125 0.92732,0.17829 2.02873,0.28954 3.10161,0.29456 1.60318,0.007 1.79975,-0.0466 3.72071,-1.02733 1.10564,-0.5645 2.72601,-1.24956 3.59151,-1.51929 0.43601,-0.13586 0.84384,-0.26732 1.1467,-0.36742 0.15144,-0.0501 0.27581,-0.0923 0.3669,-0.12454 0.0456,-0.0161 0.0821,-0.0286 0.10956,-0.0393 0.0275,-0.0107 0.0413,-0.0142 0.0605,-0.0274 0.0164,-0.0113 0.0228,-0.0279 0.0253,-0.0408 0.002,-0.0129 0.001,-0.0245 0,-0.0351 -0.003,-0.0213 -0.01,-0.0428 -0.0191,-0.0687 -0.0199,-0.0518 -0.0524,-0.1194 -0.0961,-0.19896 -0.0874,-0.15911 -0.2184,-0.36847 -0.3731,-0.59169 -0.15272,-0.22036 -0.29199,-0.44952 -0.39223,-0.64079 -0.0501,-0.0956 -0.0898,-0.18256 -0.1173,-0.25218 -0.0274,-0.0696 -0.0408,-0.12513 -0.0408,-0.14624 0,-0.25758 -0.17739,-0.60592 -0.51366,-1.05886 -0.33627,-0.45295 -0.8346,-1.0066 -1.49035,-1.65622 -1.63757,-1.62225 -2.18869,-2.3636 -2.34766,-3.13831 -0.093,-0.4534 -0.51269,-0.954 -1.29914,-1.58027 -0.62605,-0.49857 -1.49705,-1.47991 -1.92185,-2.16576 -0.37089,-0.59882 -0.57152,-0.91321 -0.77101,-1.06867 -0.0997,-0.0777 -0.20276,-0.11423 -0.31471,-0.1173 -0.11195,-0.003 -0.23159,0.0231 -0.38293,0.061 -0.34002,0.085 -1.03236,0.15985 -1.52342,0.16381 -0.78738,0.006 -1.37456,-0.34159 -1.70325,-0.91777 -0.32868,-0.57619 -0.39779,-1.38473 -0.12299,-2.30064 0.0381,-0.12707 0.0621,-0.23587 0.0568,-0.3421 -0.005,-0.10623 -0.0402,-0.20941 -0.11317,-0.31626 -0.146,-0.2137 -0.43753,-0.45531 -0.9648,-0.86713 -0.31985,-0.2498 -0.63847,-0.54264 -0.89297,-0.81287 -0.25449,-0.27022 -0.44504,-0.52069 -0.50591,-0.66766 -0.28496,-0.68794 -1.22513,-1.52842 -3.31608,-2.99826 -2.62811,-1.84742 -3.71554,-2.47421 -6.15052,-3.54501 -0.5362,-0.23579 -0.82399,-0.35829 -1.07798,-0.37672 -0.25398,-0.0184 -0.46183,0.0713 -0.82062,0.24236 -0.88769,0.42327 -2.41929,0.43688 -3.54087,0.0233 -1.87164,-0.69018 -4.0119,-0.99124 -5.98619,-0.91777 z m 0.15399,3.24631 h 5.2e-4 c 0.27077,0 0.46406,0.14372 0.5271,0.38499 0.0314,0.12025 0.0518,0.22741 0.14831,0.30644 0.004,0.003 0.008,0.007 0.0129,0.01 -0.31485,2.8e-4 -0.64088,0.001 -0.97875,0.002 0.01,-0.014 0.0172,-0.0291 0.0222,-0.045 0.0289,-0.0916 -0.0104,-0.18221 -0.0408,-0.29869 -0.0208,-0.0797 -0.032,-0.14423 -0.031,-0.19172 9e-4,-0.0475 0.0126,-0.0758 0.031,-0.0977 0.0368,-0.0437 0.13136,-0.0703 0.30851,-0.0703 z m -5.379,0.45889 c -0.005,0.0757 -0.014,0.15165 0.016,0.21136 0.0223,0.0443 0.0589,0.079 0.11059,0.10645 -0.0673,0.007 -0.12939,0.0149 -0.18707,0.0238 -0.18272,0.0281 -0.32097,0.0675 -0.43822,0.12041 0.0176,-0.0175 0.0347,-0.0349 0.0517,-0.0517 0.16216,-0.16015 0.29418,-0.28709 0.38447,-0.36329 0.029,-0.0245 0.044,-0.034 0.0625,-0.047 z m 13.82655,0.51573 c 0.034,0.006 0.0646,0.0129 0.092,0.0196 0.063,0.0155 0.10765,0.0343 0.13643,0.0506 0.0288,0.0163 0.0393,0.0285 0.0413,0.0351 0.0163,0.0531 0.0416,0.17882 0.0687,0.34055 -0.0784,-0.18153 -0.16547,-0.32552 -0.26045,-0.40101 -0.0213,-0.017 -0.0468,-0.0317 -0.078,-0.045 z m -15.31173,0.9555 c -0.0996,0.19948 -0.15348,0.40172 -0.15348,0.59428 v 0.50229 c -0.42101,-0.008 -0.6911,-0.023 -0.85731,-0.0537 0.27351,-0.28082 0.54149,-0.55563 0.83974,-0.86558 0.0571,-0.0593 0.11446,-0.11852 0.17105,-0.17725 z m 4.10569,1.48931 c 0.01,0.0118 0.0209,0.0228 0.0331,0.0326 0.0385,0.0308 0.0883,0.0551 0.14831,0.0755 0.11993,0.0408 0.27977,0.0646 0.45527,0.0646 0.17552,0 0.34886,-0.0243 0.49041,-0.0641 0.0202,-0.006 0.04,-0.0114 0.0589,-0.0176 -0.0631,0.10416 -0.14451,0.20771 -0.22789,0.29456 -0.0991,0.10325 -0.20426,0.18272 -0.27751,0.21084 -0.18616,0.0714 -0.39216,0.0124 -0.53537,-0.10956 -0.1432,-0.12196 -0.21675,-0.29976 -0.15192,-0.4687 0.002,-0.006 0.004,-0.0121 0.007,-0.0181 z m -7.84655,4.43642 0.36122,0.004 c 0.19424,0.002 0.38384,0.008 0.56276,0.0181 -0.24324,-0.005 -0.49952,-0.0112 -0.77153,-0.0181 z m 5.73919,0.0713 c 0.0749,0.0181 0.12825,0.0399 0.16485,0.0687 0.0506,0.0398 0.0781,0.0916 0.0941,0.17983 0.007,0.0381 0.0113,0.0825 0.014,0.13384 -0.0216,-0.064 -0.0436,-0.11999 -0.0687,-0.1695 -0.0487,-0.096 -0.11284,-0.16758 -0.20412,-0.2129 z m 16.01969,0.009 h 5.2e-4 c 0.006,0.002 0.0107,0.004 0.016,0.005 0.18168,0.0539 0.26938,0.12812 0.32814,0.24959 0.0588,0.12146 0.084,0.29556 0.11938,0.5333 0.0127,0.0857 0.0151,0.15268 0.008,0.19741 -0.007,0.0447 -0.021,0.0658 -0.0486,0.0837 -0.0553,0.0357 -0.19707,0.0434 -0.44751,0.014 l -0.0202,-0.003 c 0.031,-0.0253 0.0559,-0.0575 0.0739,-0.0971 0.0497,-0.1093 0.0537,-0.2611 0.0294,-0.47232 z m -0.53588,3.44682 0.0176,0.27905 h -0.0176 z m -19.85305,0.23978 c -0.10528,0.045 -0.22147,0.0862 -0.35037,0.11988 0.11032,-0.0325 0.23127,-0.0771 0.35037,-0.11988 z m 3.90673,2.97759 c -0.098,0.0206 -0.18474,0.0487 -0.26303,0.0837 0.0149,-0.0221 0.0411,-0.0398 0.0899,-0.0558 0.0414,-0.0136 0.0985,-0.0231 0.17311,-0.0279 z m 12.46333,0.0827 h 0.003 v 0.0284 z m -2.49804,0.003 c -0.18037,0.0377 -0.35209,0.1563 -0.5116,0.3514 0.0425,-0.0981 0.0861,-0.16903 0.13488,-0.21911 0.0877,-0.09 0.19759,-0.12368 0.37672,-0.13229 z m 0.2682,0.004 c 0.14801,0.013 0.2489,0.0489 0.33176,0.12299 0.0409,0.0367 0.0782,0.0844 0.11421,0.14573 -0.14561,-0.14322 -0.29501,-0.23368 -0.44597,-0.26872 z m 5.64255,3.5817 c 0.0948,0.0604 0.12462,0.17786 0.0739,0.25993 -0.0104,0.0169 -0.0273,0.0338 -0.0491,0.0496 z m -16.20366,0.22944 c 9.8e-4,7e-5 0.002,-6e-5 0.003,0 3.8e-4,0.002 9.8e-4,0.004 0.002,0.007 -0.001,-0.002 -0.002,-0.004 -0.004,-0.007 z m 15.15101,0.0636 1.06247,0.0269 c -0.038,0.0244 -0.0888,0.0462 -0.14883,0.063 -0.10652,0.03 -0.23817,0.0444 -0.37104,0.0429 -0.13287,-0.002 -0.26615,-0.0181 -0.3731,-0.0506 -0.0711,-0.0216 -0.12962,-0.0507 -0.1695,-0.0822 z m 17.64233,1.56632 c 0.003,-1e-5 0.005,2.3e-4 0.007,5.1e-4 0.0195,0.002 0.0424,0.0137 0.0687,0.045 0.0263,0.0314 0.0542,0.0816 0.0801,0.14831 0.0483,0.12459 0.0898,0.30648 0.12247,0.54106 l -0.6351,0.03 c 0.004,-0.0139 0.006,-0.028 0.007,-0.0419 0.003,-0.15159 0.0832,-0.41615 0.17364,-0.56069 0.0398,-0.0637 0.0776,-0.10751 0.10955,-0.13281 0.028,-0.0221 0.0488,-0.0294 0.0667,-0.0294 z m 0.38344,3.03289 0.003,0.12557 h -0.003 z" />
  <path
     id="path3760"
     style="baseline-shift:baseline;display:inline;overflow:visible;vector-effect:none;fill:#fdeebb;enable-background:accumulate;stop-color:#000000"
     d="m 191.74316,179.25666 c -0.39528,-0.018 -0.73863,0.0571 -1.26866,0.23771 -0.70003,0.23853 -1.74053,0.34372 -3.44527,0.34572 -1.55635,0.001 -2.82686,0.11681 -3.49798,0.32039 -1.34883,0.40923 -3.269,0.39331 -4.32428,-0.0289 -1.33306,-0.53339 -3.38286,-0.31444 -5.05085,0.52916 -0.57694,0.29179 -0.91048,0.47706 -1.10536,0.66404 -0.19488,0.18698 -0.24443,0.38178 -0.24443,0.64854 0,0.40272 0.23575,0.91191 0.65267,1.48622 0.41693,0.5743 1.01827,1.21234 1.76527,1.85725 0.33865,0.29237 0.64353,0.60378 0.87126,0.88108 0.22774,0.2773 0.37823,0.52369 0.41031,0.66973 0.0846,0.38517 0.44229,0.98277 0.93948,1.64073 0.4972,0.65795 1.13416,1.3713 1.78129,1.9668 0.5755,0.52956 1.24129,1.42962 1.55236,2.09548 0.72305,1.54779 1.60128,2.6678 2.35593,2.95899 0.16903,0.0652 0.50169,0.14397 0.91002,0.22273 0.40834,0.0788 0.89116,0.15566 1.34927,0.21291 0.68745,0.0859 1.12496,0.164 1.45314,0.27957 0.32817,0.11556 0.54905,0.26879 0.80512,0.51366 l 0.63872,0.61133 2.71663,-0.0687 2.68356,-0.0682 1.85156,0.85576 c 0.63853,0.29501 1.12729,0.51558 1.50172,0.65784 0.37443,0.14227 0.63233,0.20978 0.82269,0.18759 0.0952,-0.0111 0.17418,-0.0487 0.23203,-0.10956 0.0579,-0.0609 0.0933,-0.14154 0.11524,-0.24184 0.0115,-0.0527 -8.7e-4,-0.15914 0.004,-0.22273 0.43253,0.34227 0.98838,0.74634 1.58027,1.15445 1.2346,0.85127 2.56932,1.70231 2.98018,1.95906 0.72908,0.4556 1.25396,0.70847 1.70325,0.77308 0.4493,0.0646 0.82061,-0.066 1.22267,-0.36329 0.46185,-0.34144 1.19545,-0.51318 1.9451,-0.50746 0.74965,0.006 1.51447,0.18939 2.03346,0.54053 0.32209,0.21793 0.77165,0.76324 1.13689,1.33015 0.18263,0.28346 0.34395,0.57371 0.4625,0.83045 0.11855,0.25673 0.19193,0.48242 0.19947,0.6289 0.003,0.0598 0.0414,0.1048 0.0956,0.16795 0.0542,0.0632 0.12859,0.13724 0.22066,0.21859 0.18415,0.16268 0.43448,0.35525 0.709,0.53898 l 0.0486,0.0315 0.006,-0.0139 c 0.72144,0.47559 1.26933,0.72615 1.78904,0.67386 0.53501,-0.0538 1.03452,-0.40127 1.68361,-1.04696 0.56378,-0.56082 0.86207,-0.87803 0.94155,-1.24799 0.0795,-0.36996 -0.0654,-0.76776 -0.35554,-1.48053 -0.18059,-0.44356 -0.17716,-0.99071 -0.0372,-1.46657 0.13996,-0.47587 0.41516,-0.8753 0.76584,-1.03508 0.19015,-0.0866 0.33304,-0.19558 0.42582,-0.33435 0.0928,-0.13877 0.13435,-0.30709 0.13435,-0.50591 0,-0.22129 0.15921,-0.72562 0.43977,-1.37873 0.28056,-0.65311 0.68015,-1.46141 1.156,-2.32596 0.14227,-0.25855 0.21797,-0.42969 0.21498,-0.61339 -0.003,-0.18371 -0.0831,-0.36642 -0.2341,-0.65836 -0.15459,-0.2989 -0.22547,-0.46917 -0.22117,-0.65629 0.004,-0.18713 0.0857,-0.40388 0.25631,-0.79065 0.28952,-0.65622 0.58407,-0.92712 1.45676,-1.33997 1.17617,-0.55642 2.04556,-1.49209 2.44326,-2.63292 0.0551,-0.15814 0.0956,-0.2836 0.11317,-0.39636 0.0176,-0.11275 0.0108,-0.2153 -0.0274,-0.3147 -0.0763,-0.19882 -0.26866,-0.38438 -0.62477,-0.71056 -0.42717,-0.39128 -0.80582,-0.97799 -0.87902,-1.3441 -0.0518,-0.25909 -0.12009,-0.44459 -0.23616,-0.57774 -0.11607,-0.13316 -0.27772,-0.20799 -0.49248,-0.25218 -2.41371,-0.49656 -2.79057,-0.6852 -4.13463,-2.07636 -0.66102,-0.68422 -0.99767,-1.03228 -1.3224,-1.21285 -0.32473,-0.18057 -0.62731,-0.18345 -1.19682,-0.18345 -0.63976,0 -1.42601,0.13697 -1.77767,0.32039 -0.31816,0.16593 -0.99621,0.3098 -1.48053,0.31058 -0.41458,6e-4 -0.64231,0.006 -0.78497,0.0935 -0.0713,0.044 -0.11525,0.11327 -0.13694,0.19741 -0.0217,0.0841 -0.0253,0.18562 -0.0253,0.31419 0,0.14943 0.055,0.33542 0.14573,0.53485 -0.0177,-0.014 -0.0354,-0.0267 -0.0532,-0.0382 -0.0792,-0.0512 -0.15985,-0.0746 -0.25063,-0.0796 -0.0908,-0.005 -0.19159,0.008 -0.31264,0.031 -0.0144,0.003 -0.0358,0.005 -0.0641,0.008 v -0.40359 c 3e-5,-0.27991 -0.1597,-0.57182 -0.43563,-0.86145 -0.27592,-0.28962 -0.67062,-0.57801 -1.15446,-0.85317 -0.96769,-0.5503 -2.29284,-1.04219 -3.73258,-1.33791 -1.30658,-0.26838 -2.75017,-0.47229 -3.95118,-0.57826 -0.6005,-0.053 -1.14053,-0.0826 -1.572,-0.0822 v 5.1e-4 c -0.43147,3.3e-4 -0.75109,0.0277 -0.92966,0.0956 -0.18004,0.0684 -0.54361,0.12327 -0.99839,0.15813 -0.45478,0.0349 -1.00388,0.051 -1.56993,0.0486 -1.1321,-0.005 -2.33362,-0.084 -2.97501,-0.23203 -0.32636,-0.0753 -0.58191,-0.11995 -0.81907,-0.13074 z m 9.49916,4.28088 c 0.26273,-4.1e-4 0.55124,0.0168 0.83199,0.0512 -0.15717,0.005 -0.30698,0.0102 -0.44855,0.016 -0.43106,0.0175 -0.78762,0.038 -1.05834,0.0615 -0.11111,0.01 -0.2071,0.0197 -0.28835,0.03 0.0174,-0.015 0.044,-0.0321 0.0801,-0.0476 0.0544,-0.0232 0.12897,-0.044 0.21704,-0.0605 0.17615,-0.0331 0.40899,-0.0502 0.66611,-0.0506 z m -5.83014,0.36432 c 0.0215,0.0142 0.0408,0.0287 0.0584,0.0439 0.0498,0.043 0.0856,0.0898 0.11007,0.14211 -0.0487,-0.066 -0.10592,-0.1292 -0.16847,-0.18603 z m 16.15871,1.31413 c 0.0221,0.0676 0.0409,0.13468 0.0579,0.20257 -0.0161,-0.067 -0.0373,-0.13473 -0.0579,-0.20257 z m -9.8454,5.33611 1.06144,0.001 -0.0181,0.13178 c -0.023,-0.009 -0.0492,-0.0162 -0.0785,-0.0238 -0.10068,-0.0259 -0.24016,-0.0479 -0.40928,-0.0661 -0.1623,-0.0175 -0.35103,-0.032 -0.55552,-0.0429 z m 7.47138,0.001 c 0.50834,0.004 0.89997,0.02 1.19424,0.0491 l -1.12603,-0.0326 c -0.30578,-0.009 -0.58107,-0.011 -0.82475,-0.007 0.23197,-0.008 0.48788,-0.0119 0.75654,-0.01 z m 1.77509,0.1757 c 0.0342,0.0195 0.0572,0.0397 0.0708,0.0589 0.0186,0.0262 0.0221,0.0516 0.0155,0.0879 -0.0108,0.0595 -0.0632,0.14538 -0.15813,0.25063 0.002,-0.011 0.004,-0.0218 0.006,-0.032 z m -0.0672,3.32331 c 0.006,0.0154 0.0127,0.0298 0.0191,0.0439 0.0149,0.0328 0.0152,0.0428 0.006,0.0568 -0.01,0.014 -0.0463,0.0401 -0.12867,0.0625 -0.0222,0.006 -0.0475,0.0119 -0.076,0.0176 0.0591,-0.0285 0.10433,-0.0617 0.13798,-0.10438 0.0183,-0.0232 0.0322,-0.0487 0.0419,-0.0765 z m -19.57969,0.37001 c 0.0113,8e-4 0.0231,0.002 0.0351,0.003 0.15547,0.0103 0.37138,0.0196 0.63924,0.0279 0.27394,0.009 0.60223,0.0157 0.97617,0.0222 -0.2443,0.0102 -0.40539,0.0214 -0.47749,0.0336 -0.43601,0.0736 -0.83311,0.0358 -1.17306,-0.0863 z m 14.38569,2.04122 c 0.0667,-6.2e-4 0.12926,0.0112 0.18345,0.0331 0.0628,0.0254 0.11403,0.0634 0.14728,0.11059 -0.0129,-0.004 -0.0266,-0.007 -0.0408,-0.0103 -0.12667,-0.0267 -0.32197,-0.0286 -0.63252,-0.0165 0.10942,-0.0802 0.23144,-0.11577 0.34262,-0.11679 z m -7.26157,0.10955 c -0.0405,0.0378 -0.0693,0.0857 -0.0879,0.14108 -0.0265,0.0784 -0.0368,0.17299 -0.0486,0.29404 -0.0116,0.11972 -0.0181,0.2149 -0.003,0.30075 0.0128,0.0704 0.0426,0.13342 0.093,0.18914 -0.0484,-0.0144 -0.0955,-0.0278 -0.14108,-0.0403 -0.0169,-0.005 -0.0243,-0.003 -0.0408,-0.008 -0.008,-0.16945 -0.0219,-0.36281 -0.0119,-0.47491 0.016,-0.17946 0.0586,-0.28353 0.15245,-0.35346 0.0247,-0.0184 0.0539,-0.0346 0.0879,-0.0486 z m 5.68544,0.10645 c 0.0195,-8.1e-4 0.0394,-7.3e-4 0.0599,0 -0.1327,0.0234 -0.24864,0.051 -0.34881,0.0842 0.0408,-0.0241 0.0825,-0.0423 0.12505,-0.0558 0.0517,-0.0165 0.10537,-0.026 0.16382,-0.0284 z m 7.65173,0.71676 c 0.006,0.002 0.0122,0.004 0.0181,0.007 0.0375,0.0149 0.062,0.0319 0.0744,0.045 0.0124,0.0131 0.0155,0.0205 0.0155,0.0331 0,0.0312 -0.0179,0.0768 -0.0522,0.1266 0.007,-0.0239 0.0108,-0.0477 0.0103,-0.0713 0,-0.0495 -0.0222,-0.0966 -0.0579,-0.13229 -0.003,-0.003 -0.005,-0.005 -0.008,-0.008 z m -12.21941,1.82366 c 0.32849,0.22843 0.49916,0.3455 0.82992,0.56689 -0.22486,-0.15126 -0.31729,-0.20193 -0.54157,-0.35657 -0.10821,-0.0746 -0.18248,-0.13621 -0.28835,-0.21032 z m 3.94963,0.35915 c -0.0245,0.0112 -0.0758,0.0203 -0.1416,0.0114 -0.0163,-0.002 -0.0335,-0.005 -0.0512,-0.009 z" />
  <path
     id="path3783"
     style="baseline-shift:baseline;display:inline;overflow:visible;vector-effect:none;fill:#fdeebb;enable-background:accumulate;stop-color:#000000"
     d="m 276.11267,158.44005 -5.2e-4,5.2e-4 c -0.75075,0.0348 -1.63604,0.24059 -2.96829,0.62683 -2.1824,0.6327 -2.36431,0.65121 -4.83795,0.51573 l -2.59416,-0.14262 -1.42575,0.77152 c -0.43287,0.23373 -0.92772,0.78529 -1.43919,1.49604 -0.51147,0.71075 -1.036,1.58091 -1.50792,2.44739 -0.47192,0.86648 -0.89221,1.72967 -1.19527,2.42776 -0.12076,0.27814 -0.20771,0.50256 -0.28732,0.7183 -0.1358,-3e-5 -0.14012,4e-5 -0.27699,0 -4.43843,-0.002 -6.55704,-0.009 -7.61917,0.0687 -0.53106,0.0387 -0.801,0.0964 -0.96894,0.19689 -0.16794,0.10049 -0.21928,0.24036 -0.31264,0.40669 -0.14323,0.25519 -0.2201,0.43907 -0.21291,0.6873 0.007,0.24824 0.0933,0.55418 0.25787,1.07642 0.24226,0.7686 0.3168,1.43742 0.22686,1.99988 -0.0628,0.39241 -0.0801,0.63792 0.01,0.88263 0.0897,0.24471 0.28003,0.47965 0.62683,0.86352 0.4367,0.48335 0.85558,1.23251 0.99219,1.77508 0.10665,0.42353 0.22087,1.17701 0.37724,1.82418 0.0782,0.32358 0.16711,0.62102 0.27337,0.84181 0.0531,0.11039 0.1099,0.20118 0.1757,0.26768 0.0658,0.0665 0.14323,0.10956 0.22841,0.10956 0.0253,0 0.0399,-0.03 0.0625,-0.0393 l 0.0253,0.38861 c 0.0239,0.38038 0.0643,0.64808 0.13901,0.83974 0.0741,0.19022 0.18707,0.30703 0.34209,0.36639 v 5.1e-4 l 5.2e-4,5.2e-4 c 0.002,0.003 0.0122,0.0121 0.0222,0.0295 0.0146,0.0248 0.0335,0.0615 0.0527,0.10903 0.0384,0.0952 0.0825,0.2298 0.13126,0.39068 0.0975,0.32176 0.21227,0.74826 0.3297,1.18184 0.11743,0.43357 0.23745,0.87569 0.34984,1.22835 0.0562,0.17633 0.11141,0.33 0.16227,0.45113 0.0212,0.0506 0.0425,0.069 0.0625,0.10749 -0.001,0.009 -0.0119,0.014 -0.0119,0.0233 0,0.0598 -0.0605,0.15009 -0.1819,0.24236 -0.12142,0.0923 -0.29575,0.18669 -0.49764,0.26976 -0.40377,0.16614 -0.91678,0.28887 -1.33636,0.28887 -0.33632,0 -0.58856,0.0372 -0.8356,0.15813 -0.24705,0.12089 -0.48652,0.32269 -0.80667,0.64285 -0.52703,0.52702 -1.05465,1.34929 -1.45521,2.19108 -0.40056,0.84179 -0.67502,1.69934 -0.68368,2.30477 -0.003,0.2266 -0.004,0.40064 0.0176,0.54881 0.0216,0.14816 0.0683,0.27161 0.15865,0.3886 0.17651,0.22862 0.52699,0.44095 1.16788,0.83044 v 0.004 l 0.0269,0.0155 c 1.13692,0.69083 1.56695,0.83406 2.52181,0.83406 0.70141,0 1.15621,-0.0483 1.51567,-0.23048 0.35945,-0.18214 0.61456,-0.49476 0.91984,-1.00562 0.25892,-0.43325 0.71837,-1.06586 1.01544,-1.3963 h 0.002 c 0.15975,-0.17829 0.27407,-0.34155 0.33383,-0.47284 0.0299,-0.0656 0.0468,-0.12262 0.045,-0.1757 -0.002,-0.0531 -0.0347,-0.10637 -0.0858,-0.12505 h 0.002 c -0.017,-0.006 -0.0413,-0.0283 -0.0625,-0.078 -0.0212,-0.0497 -0.0394,-0.12469 -0.0506,-0.21704 -0.0224,-0.18469 -0.0208,-0.44404 0.01,-0.75964 0.0303,-0.31552 0.034,-0.58898 0.01,-0.79685 -0.0122,-0.10393 -0.0319,-0.19159 -0.0584,-0.262 -0.0265,-0.0704 -0.0602,-0.12454 -0.11111,-0.15606 -0.0728,-0.045 -0.14607,-0.0639 -0.20929,-0.0429 -0.0632,0.021 -0.10128,0.0863 -0.10128,0.16226 0,0.0973 -0.075,0.17363 -0.16227,0.17363 -0.012,0 -0.0259,-0.005 -0.0449,-0.0253 -0.019,-0.0202 -0.0409,-0.0538 -0.0584,-0.0977 -0.0351,-0.0876 -0.0589,-0.21573 -0.0589,-0.35553 0,-0.12549 0.005,-0.21749 0.0253,-0.27957 0.0207,-0.0621 0.0511,-0.0962 0.12506,-0.12661 0.14792,-0.0607 0.47188,-0.0703 1.08779,-0.0703 0.53769,0 0.86221,0.0163 1.05316,0.0703 0.0955,0.027 0.1563,0.0631 0.19896,0.10749 0.0427,0.0444 0.0697,0.1004 0.0899,0.17777 0.0241,0.0923 0.062,0.17232 0.1385,0.23409 0.0765,0.0618 0.18676,0.10253 0.34778,0.13281 0.32203,0.0606 0.86067,0.08 1.81229,0.0935 2.85796,0.0403 3.04782,0.0407 5.75986,-0.004 l 2.40037,-0.0393 -0.10904,-0.57206 c -0.0391,-0.20435 -0.037,-0.3225 -0.0103,-0.36173 0.0135,-0.0196 0.0319,-0.0284 0.0723,-0.0331 0.0403,-0.005 0.0998,5.6e-4 0.17777,0.0155 0.15152,0.0291 0.23184,0.0837 0.29507,0.2558 0.0632,0.17202 0.0962,0.46162 0.11886,0.93172 0.038,0.78879 0.0679,1.21441 0.20929,1.45935 0.0707,0.12247 0.17488,0.19439 0.30851,0.23202 0.13364,0.0376 0.29626,0.045 0.50591,0.045 0.30216,0 0.4834,-0.012 0.59583,-0.0817 0.0562,-0.0349 0.0918,-0.0893 0.10128,-0.15244 0.009,-0.0631 -0.002,-0.13389 -0.0233,-0.21704 -0.0246,-0.0941 0.005,-0.25386 0.0879,-0.43925 0.0828,-0.18539 0.21605,-0.39685 0.38654,-0.59945 l 0.61753,-0.73277 -0.68574,-0.61133 c -0.31264,-0.27932 -0.46241,-0.42691 -0.54467,-0.72864 -0.0823,-0.30173 -0.0931,-0.76676 -0.0997,-1.65985 l -0.014,-1.82624 0.81855,-0.84956 c 0.55729,-0.57998 0.84388,-1.06769 0.84388,-1.4764 0,-0.75341 0.3579,-1.64476 0.78135,-1.98283 0.55953,-0.44668 1.08565,-0.64469 1.603,-0.60358 0.51736,0.0411 1.03326,0.32368 1.56476,0.85783 0.58245,0.58537 1.23621,0.82983 1.78491,0.74983 0.54871,-0.08 0.98473,-0.49219 1.11517,-1.18753 0.0644,-0.34348 0.30029,-0.73807 0.58446,-1.04283 0.28418,-0.30476 0.61824,-0.51573 0.85731,-0.51573 0.0922,0 0.20085,-0.0519 0.31833,-0.12867 0.11749,-0.0768 0.24063,-0.18103 0.34572,-0.29714 0.17203,-0.19007 0.27017,-0.31035 0.27543,-0.4532 0.005,-0.14285 -0.0815,-0.27812 -0.23823,-0.50178 -0.1777,-0.25371 -0.32814,-0.71204 -0.32814,-0.98857 4.9e-4,-0.33672 0.17304,-0.78933 0.41393,-1.17564 0.24089,-0.38632 0.55236,-0.7035 0.80253,-0.7829 0.15214,-0.0483 0.26905,-0.12279 0.34572,-0.22479 0.0767,-0.10199 0.11189,-0.23132 0.10387,-0.37879 -0.0161,-0.29495 -0.19005,-0.67189 -0.51367,-1.14877 -0.3856,-0.56824 -0.51986,-1.03372 -0.51986,-1.81022 0,-0.59143 -0.14738,-1.56016 -0.32815,-2.1699 -0.17864,-0.60264 -0.47385,-1.61883 -0.65784,-2.25774 -0.44066,-1.53012 -0.75261,-2.42842 -1.17615,-3.03134 -0.42354,-0.60293 -0.9593,-0.90192 -1.82211,-1.22473 -0.77452,-0.28978 -1.38815,-0.4275 -2.13889,-0.39274 z m -15.98146,8.85941 v 0.002 h -0.001 c 3.2e-4,-7.4e-4 7.2e-4,-0.001 0.001,-0.002 z m 7.91632,2.79569 c 0.0171,0.002 0.0329,0.005 0.0475,0.007 0.0343,0.006 0.055,0.0121 0.0739,0.0176 -0.0152,0.0584 -0.0584,0.11524 -0.1385,0.11524 -9.3e-4,0 -0.002,-2e-5 -0.003,0 0.0165,-0.0406 0.0273,-0.0772 0.0243,-0.11628 -7e-4,-0.008 -0.002,-0.0159 -0.005,-0.0238 z m 0.0191,4.78266 c 0.22878,6e-4 0.30349,0.01 0.49247,0.0129 -1.65099,-0.046 -4.91789,0.0264 -6.64248,0.14522 0.22107,-0.0132 0.30931,-0.0276 0.58032,-0.0398 1.56432,-0.0904 3.61602,-0.134 5.56969,-0.11833 z m 1.90014,0.0439 c 0.002,8.5e-4 0.004,0.001 0.003,0.001 0.008,0.004 0.0131,0.01 0.0171,0.0176 -0.006,-0.007 -0.013,-0.0129 -0.0202,-0.0186 z m -15.94321,2.68356 c 9.6e-4,0.005 0.002,0.0106 0.003,0.016 0.002,0.004 0.002,0.009 0.005,0.015 l -0.0145,-0.003 c 0.002,-0.01 0.004,-0.0189 0.007,-0.0284 z m 1.48001,0.24288 c 0.27987,0.006 0.62432,0.0117 1.03818,0.016 -0.30042,0.002 -0.49334,0.005 -0.55604,0.006 -0.11406,0.003 -0.28616,-0.006 -0.48214,-0.0222 z m 0.71624,4.99659 c -0.0181,0.0691 -0.0289,0.11566 -0.0289,0.15348 0,0.0668 0.019,0.1313 0.0537,0.18087 -0.0678,-0.0118 -0.13496,-0.0211 -0.2005,-0.0279 0.059,-0.0986 0.11815,-0.1976 0.1757,-0.30644 z" />
  <path
     id="path3767"
     style="baseline-shift:baseline;display:inline;overflow:visible;vector-effect:none;fill:#fdeebb;enable-background:accumulate;stop-color:#000000"
     d="m 200.93215,146.67517 c -0.2937,-0.008 -0.65073,-0.003 -1.10846,0.007 -1.881,0.0402 -2.04627,0.0862 -3.40444,0.89658 -0.97635,0.58261 -1.51635,0.91865 -1.81849,1.19321 -0.30213,0.27456 -0.36329,0.49863 -0.36329,0.80874 0,0.17525 -0.0646,0.35445 -0.21652,0.56276 -0.15189,0.2083 -0.39012,0.44297 -0.72864,0.72036 -0.44902,0.36799 -0.6944,0.58255 -0.82062,0.81649 -0.12622,0.23393 -0.12322,0.47808 -0.0894,0.88109 0.0348,0.41491 0.0557,0.64126 0.18345,0.77928 0.0638,0.069 0.15177,0.10655 0.26562,0.13074 0.11385,0.0242 0.2557,0.0351 0.44131,0.047 0.91598,0.0586 1.75916,0.47345 2.43344,1.19528 0.21741,0.23274 0.39367,0.37272 0.63304,0.447 0.21365,0.0663 0.47233,0.0794 0.85731,0.0677 v 0.41496 c 1e-5,0.37184 0.20487,0.75483 0.49816,1.04696 0.29329,0.29213 0.67748,0.4961 1.05059,0.4961 0.42445,0 0.72234,0.0491 0.8909,0.14056 0.0843,0.0457 0.135,0.10054 0.16174,0.16381 0.0267,0.0633 0.0286,0.13835 0.004,0.23254 -0.022,0.0841 -0.0291,0.16181 0.008,0.22841 0.0372,0.0666 0.11086,0.10597 0.22221,0.13281 0.0817,0.0197 0.34997,0.0144 0.48472,0.0238 0.0702,0.0821 0.1098,0.14343 0.19534,0.23616 0.43188,0.46815 1.04529,1.05889 1.68362,1.64848 0.63832,0.58958 1.30236,1.17706 1.83761,1.6366 0.26762,0.22978 0.5019,0.42818 0.68575,0.57826 0.18386,0.15008 0.31408,0.25084 0.38085,0.293 0.25786,0.16279 0.85043,0.44972 1.64641,0.8046 0.79598,0.35487 1.79316,0.77567 2.85151,1.20096 0.73575,0.29564 2.02717,0.69115 3.26543,1.02371 1.23827,0.33256 2.41774,0.6007 2.94349,0.64234 0.19048,0.0151 0.37838,0.0441 0.52555,0.0765 0.0736,0.0162 0.13772,0.0337 0.18552,0.0506 0.0478,0.0169 0.0807,0.0357 0.0858,0.0408 0.0526,0.0526 0.13873,0.08 0.25012,0.10387 0.11139,0.0238 0.24488,0.0388 0.37672,0.0388 0.19374,0 0.33949,-0.0453 0.43976,-0.17725 0.10026,-0.13195 0.15798,-0.33651 0.21291,-0.65629 0.0732,-0.42613 0.3013,-0.97818 0.48989,-1.19941 0.22871,-0.2683 0.62969,-0.52289 1.03715,-0.68937 0.40746,-0.16648 0.82316,-0.24291 1.07228,-0.17777 0.16343,0.0427 0.28574,0.0516 0.37311,-0.0103 0.0874,-0.0617 0.11524,-0.1783 0.11524,-0.33745 0,-0.20252 0.15217,-0.62855 0.33796,-0.91209 0.20032,-0.30573 0.37557,-0.89634 0.40049,-1.3379 l 0.047,-0.83612 h -0.10749 c -0.009,-0.042 -0.007,-0.0604 -0.0196,-0.10956 -0.0443,-0.17396 -0.10799,-0.38947 -0.18759,-0.63252 -0.004,-0.0108 -0.01,-0.0263 -0.0134,-0.0372 -0.0233,-0.10264 -0.0397,-0.17251 -0.0646,-0.27957 -0.0918,-0.39516 -0.19126,-0.8054 -0.28526,-1.125 -0.047,-0.1598 -0.0919,-0.2961 -0.13487,-0.39843 -0.0215,-0.0512 -0.0428,-0.0931 -0.0641,-0.1266 -0.0214,-0.0336 -0.0418,-0.0605 -0.078,-0.0744 -0.0287,-0.011 -0.0556,0.008 -0.0827,0.0269 -0.0292,-0.006 -0.0586,-0.009 -0.0884,-0.009 -0.20381,-0.44779 -0.41382,-0.89785 -0.62994,-1.24282 -0.27784,-0.4435 -0.54651,-0.76292 -0.81235,-0.82579 -0.15517,-0.0367 -0.29532,-0.0945 -0.39481,-0.15451 -0.0497,-0.03 -0.0884,-0.0607 -0.11317,-0.0879 -0.0247,-0.0272 -0.0331,-0.0498 -0.0331,-0.0605 0,-0.0374 -0.0251,-0.067 -0.0527,-0.0858 -0.0277,-0.0188 -0.0613,-0.0325 -0.1018,-0.0429 -0.0809,-0.0207 -0.18935,-0.0306 -0.32195,-0.0356 l -5.2e-4,5.1e-4 c -0.26522,-0.01 -0.62235,0.006 -1.002,0.0429 -0.75929,0.0734 -1.60127,0.22109 -1.97456,0.40411 -0.24537,0.12034 -0.40716,0.17514 -0.60565,0.17001 -0.19848,-0.005 -0.43871,-0.0731 -0.83405,-0.21084 -0.0237,-0.008 -0.0481,-0.0102 -0.0879,-0.0139 -0.0398,-0.004 -0.0927,-0.008 -0.15813,-0.0114 -0.13089,-0.008 -0.31193,-0.0164 -0.53899,-0.0238 -0.4541,-0.0148 -1.08849,-0.028 -1.85932,-0.0408 -0.0165,-2.7e-4 -0.033,-7.6e-4 -0.0496,-0.001 l -4.05556,-3.45043 c -0.0148,-0.40726 -0.17725,-0.81981 -0.41806,-1.11725 -0.24842,-0.30684 -0.57037,-0.50291 -0.86713,-0.4253 -0.20169,0.0527 -0.50616,0.005 -0.64441,-0.0941 -0.008,-0.006 -0.01,-0.008 -0.0176,-0.0134 0.0202,0.006 0.0306,0.008 0.0548,0.0155 0.13426,0.0432 0.24213,0.0516 0.32194,-0.002 0.0798,-0.0536 0.10807,-0.1577 0.10542,-0.29094 -0.004,-0.23089 -0.1275,-0.51005 -0.2868,-0.73845 -0.0797,-0.11419 -0.16802,-0.2148 -0.25787,-0.28887 -0.0898,-0.0741 -0.18159,-0.12299 -0.27337,-0.12299 -0.0298,0 -0.12917,-0.0378 -0.23667,-0.10387 -0.1075,-0.0662 -0.22934,-0.15835 -0.33952,-0.25942 -0.23454,-0.21515 -0.89162,-0.6591 -1.47484,-1.002 -0.49327,-0.29001 -0.79803,-0.44886 -1.20872,-0.52762 -0.20534,-0.0394 -0.43596,-0.0595 -0.72967,-0.0672 z m 8.28322,8.20932 0.68626,0.25993 c -0.19877,-0.002 -0.40255,-0.005 -0.61133,-0.007 v -0.12868 c 0,-0.0236 -0.008,-0.0525 -0.0258,-0.077 -0.0123,-0.0166 -0.0285,-0.0315 -0.0491,-0.047 z m -10.90735,0.19637 v 0.002 h -0.003 c 10e-4,-7.1e-4 0.002,-0.001 0.003,-0.002 z m 22.41827,2.3151 c 0.01,0.0212 0.0193,0.0424 0.0289,0.0636 -0.004,7.3e-4 -0.008,10e-4 -0.0119,0.002 -0.0268,-0.009 -0.0549,-0.0124 -0.0837,-0.0124 -0.0338,0 -0.0674,0.006 -0.0992,0.0171 0.0533,-0.0334 0.1094,-0.0571 0.16588,-0.0703 z m -12.95063,0.0708 c -0.002,0.003 -0.003,0.007 -0.005,0.0109 -0.005,0.0142 -0.008,0.0288 -0.0103,0.0439 -0.002,-0.0173 -0.001,-0.0287 0.002,-0.0367 0.002,-0.006 0.006,-0.012 0.0129,-0.0181 z m -5.36815,0.64957 c -0.0316,0.0429 -0.0417,0.0981 -0.0486,0.16898 -0.006,0.0685 -0.006,0.12748 0.0196,0.17932 -0.215,-0.11201 -0.42126,-0.22084 -0.63511,-0.33331 0.23417,-0.004 0.47633,-0.005 0.66404,-0.015 z m 4.21628,4.9196 c 0.26493,0.1268 0.63691,0.28458 0.99168,0.44235 -0.19294,-0.0837 -0.45193,-0.18609 -0.62684,-0.26407 -0.17755,-0.0792 -0.20895,-0.10644 -0.36484,-0.17828 z" />
  <path
     style="fill:#fdeebb;fill-opacity:1;stroke:#fdeebb;stroke-width:0.1;stroke-dasharray:none;stroke-opacity:1"
     d="m 206.3323,154.48919 c 0,-0.16745 0.0862,-0.35773 0.19158,-0.42285 0.10536,-0.0651 0.14182,0.0719 0.081,0.30445 -0.12901,0.49333 -0.27257,0.55569 -0.27257,0.1184 z"
     id="path3662" />
  <path
     id="path3748"
     style="baseline-shift:baseline;display:inline;overflow:visible;vector-effect:none;fill:#fdeebb;enable-background:accumulate;stop-color:#000000"
     d="m 289.79088,93.340726 v 0.002 c -0.90428,0.001 -1.61778,0.0228 -2.08359,0.0667 -0.23858,0.0225 -0.41714,0.0494 -0.5333,0.0837 -0.0581,0.0171 -0.10071,0.0348 -0.13281,0.0625 -0.0161,0.0138 -0.0297,0.0333 -0.0351,0.0568 -0.005,0.0235 -1.4e-4,0.0475 0.0114,0.0661 0.0196,0.0317 0.0287,0.0565 0.0294,0.0682 2.8e-4,0.004 5.3e-4,0.007 5.2e-4,0.008 v 5.2e-4 5.2e-4 h -5.2e-4 -5.1e-4 l -5.2e-4,5.1e-4 h -5.2e-4 l -5.1e-4,5.2e-4 h -5.2e-4 v 5.2e-4 c -0.009,0.004 -0.0663,0.01 -0.15348,-0.0238 -0.0639,-0.0245 -0.13556,-0.0198 -0.20515,0.006 -0.0696,0.0254 -0.13968,0.0703 -0.21136,0.12919 -0.14334,0.11774 -0.29026,0.29396 -0.4253,0.49765 -0.27007,0.40738 -0.49048,0.92261 -0.48679,1.31464 7.9e-4,0.0877 0.0437,0.18658 0.11524,0.30283 0.0716,0.11625 0.17264,0.25008 0.29507,0.39274 0.24486,0.28531 0.57583,0.61097 0.92604,0.91984 0.35022,0.30887 0.72026,0.59922 1.04283,0.81442 0.16129,0.1076 0.3107,0.19707 0.44132,0.25942 0.13061,0.0623 0.24134,0.0997 0.33383,0.0997 0.0407,0 0.13276,0.0226 0.25011,0.0687 0.11736,0.0461 0.26337,0.11351 0.42582,0.19689 0.32491,0.16677 0.71745,0.39897 1.09967,0.65267 0.38501,0.25555 0.77494,0.48905 1.09348,0.659914 0.15927,0.0854 0.30146,0.15383 0.41651,0.20309 0.11505,0.0492 0.20011,0.0802 0.26561,0.0822 0.31184,0.01 0.82424,0.23557 1.32602,0.56069 0.50177,0.32511 0.99671,0.74905 1.29295,1.14257 0.9442,1.25424 1.53894,1.90695 3.3631,3.69693 l 1.6738,1.64486 -0.27699,1.25781 c -0.60821,2.75248 -1.33326,5.03005 -1.86758,5.90041 -0.31738,0.51701 -0.57112,1.22739 -0.56793,1.61489 0.006,0.58129 0.29227,1.33604 0.69712,2.01176 0.40484,0.67571 0.92549,1.27045 1.42007,1.52136 0.47648,0.24173 1.22484,0.77953 1.64796,1.1839 0.36971,0.35335 0.55227,0.5498 0.6289,0.84181 0.0766,0.29202 0.0458,0.69415 -0.0331,1.44901 -0.10644,1.01793 -0.69119,3.43645 -1.22474,5.6193 -0.20502,0.83881 -0.37845,1.56146 -0.5364,2.235 -0.09,-0.0219 -0.18288,-0.0368 -0.27543,-0.0444 -0.0681,-0.0322 -0.13715,-0.0567 -0.21549,-0.0537 -0.20704,0.008 -0.40013,0.051 -0.54674,0.1328 -0.1466,0.0818 -0.24805,0.20867 -0.24805,0.37104 0,0.10157 -0.0773,0.29815 -0.20515,0.5116 -0.12786,0.21344 -0.30324,0.44767 -0.49765,0.6506 -0.32663,0.34093 -0.50699,0.55199 -0.56689,0.7829 -0.0599,0.23091 0.007,0.46525 0.14883,0.83974 0.17522,0.46419 0.20683,0.8272 0.0289,1.29502 -0.17789,0.46781 -0.57249,1.03951 -1.25367,1.89445 -0.22732,0.28531 -0.43366,0.59783 -0.58394,0.87334 -0.15028,0.27552 -0.24598,0.50782 -0.24598,0.66197 0,0.10781 -0.0843,0.28665 -0.2248,0.47077 -0.14048,0.18411 -0.33488,0.37478 -0.5488,0.5271 -0.48516,0.34546 -0.76054,0.80744 -0.80874,1.27744 -0.0482,0.47 0.13169,0.94613 0.54519,1.32034 0.17959,0.16252 0.28742,0.30195 0.32608,0.41237 0.0387,0.11041 0.0195,0.18926 -0.0625,0.27131 -0.2535,0.2535 -0.331,0.69537 -0.2775,1.11311 0.0535,0.41774 0.2383,0.81908 0.54725,0.98443 0.28291,0.15141 0.50386,0.53043 0.50385,0.87333 1e-5,0.39736 0.20015,0.73458 0.51366,0.83406 0.0575,0.0182 0.17751,0.0751 0.33383,0.15968 0.15632,0.0846 0.35273,0.19723 0.57413,0.33021 0.4428,0.26597 0.98714,0.61276 1.52755,0.97462 0.54186,0.36281 1.06645,0.69371 1.4764,0.93379 0.20497,0.12005 0.38189,0.21713 0.51779,0.28526 0.068,0.0341 0.12648,0.0614 0.17364,0.0801 0.0472,0.0187 0.0802,0.0306 0.11524,0.031 0.0421,4.9e-4 0.14796,0.0372 0.28112,0.11111 0.13316,0.074 0.29791,0.18203 0.48265,0.31264 0.36948,0.26121 0.81787,0.61592 1.25574,0.98857 0.43787,0.37265 0.86491,0.76289 1.19321,1.09554 0.16415,0.16633 0.30321,0.31833 0.40618,0.44545 0.10296,0.12713 0.16987,0.23325 0.18758,0.29094 0.0905,0.29521 0.18093,1.04674 0.19534,1.64848 0.011,0.45831 -0.0153,0.75278 -0.12506,1.002 -0.10984,0.24922 -0.30572,0.45917 -0.6444,0.74414 -0.22238,0.18712 -0.45109,0.35732 -0.64079,0.48008 -0.0948,0.0614 -0.18014,0.11121 -0.24805,0.14469 -0.0679,0.0335 -0.12195,0.0491 -0.13642,0.0491 -0.0561,0 -0.10281,0.0357 -0.13695,0.0837 -0.0341,0.0479 -0.0606,0.11323 -0.0837,0.18965 -0.0462,0.15283 -0.0744,0.35608 -0.0744,0.58188 0,0.36069 0.0444,0.60155 0.24805,0.81442 0.20361,0.21287 0.55373,0.39714 1.16995,0.68368 0.66027,0.30701 1.06988,0.47124 1.79679,0.54467 0.72691,0.0734 1.77043,0.0591 3.71709,0.016 l 4.11293,-0.092 2.39262,-1.16788 c 2.32502,-1.13525 2.42253,-1.15827 5.00589,-1.16427 2.53176,-0.006 2.7554,-0.0542 4.6545,-1.01338 1.01108,-0.51065 1.69194,-0.88463 2.06034,-1.13481 0.0921,-0.0625 0.16503,-0.11812 0.21911,-0.1664 0.0541,-0.0483 0.0888,-0.0882 0.10697,-0.13281 0.009,-0.0223 0.0139,-0.0487 0.006,-0.0739 -0.008,-0.0253 -0.0261,-0.0449 -0.047,-0.0568 -0.0217,-0.0124 -0.0558,-0.0113 -0.0837,-0.0155 l 3.58582,-2.90629 0.57051,-0.83405 c 0.30948,-0.45193 0.83803,-1.12341 1.16996,-1.48622 0.2301,-0.2515 0.48188,-0.70439 0.72812,-1.24798 0.24624,-0.54358 0.48553,-1.17701 0.67799,-1.77922 0.19246,-0.60221 0.33932,-1.17305 0.40204,-1.59784 0.0314,-0.21239 0.0428,-0.38843 0.0258,-0.51728 -0.009,-0.0644 -0.0244,-0.11809 -0.0527,-0.1602 -0.0283,-0.0421 -0.0755,-0.0703 -0.12712,-0.0703 h -5.2e-4 v 5.2e-4 h -5.2e-4 v -5.2e-4 h -5.1e-4 c -5.3e-4,-3.7e-4 -0.002,-0.001 -0.003,-0.002 -0.004,-0.004 -0.0126,-0.0131 -0.0196,-0.0274 -0.0141,-0.0287 -0.027,-0.0779 -0.0351,-0.14056 -0.0163,-0.12529 -0.0128,-0.30362 0.014,-0.50023 0.0207,-0.15145 0.0342,-0.26816 0.0408,-0.3514 0.003,-0.0416 0.005,-0.0748 0.004,-0.1018 -7.5e-4,-0.0269 0.003,-0.0444 -0.0155,-0.0718 -0.002,-0.003 -0.006,-0.008 -0.01,-0.0119 -0.004,-0.004 -0.0117,-0.008 -0.014,-0.01 -10e-4,-8e-4 -0.0314,-0.006 -0.0331,-0.006 -8.7e-4,1e-4 -0.0113,0.002 -0.0155,0.004 -0.004,0.002 -0.007,0.004 -0.0103,0.006 -0.006,0.004 -0.0112,0.008 -0.0155,0.0119 -0.0171,0.0164 -0.0301,0.0341 -0.045,0.0605 -0.0299,0.0528 -0.0669,0.134 -0.11524,0.24443 -0.0444,0.10142 -0.0892,0.16218 -0.10335,0.17156 -0.004,-0.003 -0.0179,-0.0157 -0.0315,-0.045 -0.0575,-0.12299 -0.1235,-0.4625 -0.20309,-1.0387 -0.12354,-0.89442 -0.59482,-2.72341 -1.10123,-4.43384 -0.25321,-0.85522 -0.51496,-1.67939 -0.7462,-2.34197 -0.23124,-0.66258 -0.42886,-1.15885 -0.56638,-1.37305 -0.20001,-0.31155 -0.36613,-0.84852 -0.36328,-1.16375 7.4e-4,-0.11962 0.004,-0.21243 0.0119,-0.27544 0.007,-0.0534 0.0176,-0.0706 0.0191,-0.0765 0.004,0.003 0.007,0.003 0.014,0.0103 0.0271,0.027 0.0663,0.0807 0.11523,0.15813 0.10556,0.16695 0.20994,0.26095 0.32195,0.27337 0.056,0.006 0.11156,-0.0118 0.15658,-0.047 0.045,-0.0352 0.0819,-0.0867 0.11317,-0.15038 0.12527,-0.25496 0.1689,-0.72587 0.10335,-1.33583 -0.0569,-0.52947 -0.0888,-0.81442 -0.24391,-0.97669 -0.0776,-0.0811 -0.18284,-0.12293 -0.32039,-0.14418 -0.11295,-0.0174 -0.26951,-0.0185 -0.43925,-0.0196 l 0.004,-0.004 h -0.0527 l -0.42943,-2.09754 c -0.11085,-0.54302 -0.12789,-0.94271 -0.0997,-1.16789 0.0141,-0.11258 0.0463,-0.18142 0.0589,-0.19327 h 5.2e-4 c 0.004,0.002 0.0177,0.0116 0.0326,0.0351 0.0533,0.0851 0.0973,0.14976 0.13849,0.19534 0.0412,0.0456 0.0841,0.0794 0.1385,0.0739 0.0543,-0.005 0.0918,-0.0468 0.1235,-0.0997 0.0317,-0.0529 0.0615,-0.12448 0.0977,-0.21859 0.0637,-0.16606 0.0363,-0.38552 -0.061,-0.64854 -0.0972,-0.26303 -0.26636,-0.57089 -0.49764,-0.91571 -0.46257,-0.68964 -1.17627,-1.52392 -2.07636,-2.40244 -0.40653,-0.3968 -0.77558,-0.79014 -1.04283,-1.10535 -0.13362,-0.15761 -0.2431,-0.29741 -0.31678,-0.40463 -0.0368,-0.0536 -0.0654,-0.099 -0.0837,-0.13488 -0.0183,-0.0359 -0.0233,-0.0642 -0.0233,-0.0682 0,-0.17058 -0.12526,-0.41355 -0.31057,-0.70332 -0.18531,-0.28977 -0.43426,-0.61864 -0.69557,-0.92552 -0.26131,-0.30688 -0.53487,-0.59052 -0.76739,-0.79117 -0.11626,-0.10032 -0.22274,-0.17913 -0.31471,-0.23047 -0.092,-0.0514 -0.17074,-0.0829 -0.24391,-0.0548 -0.0677,0.026 -0.17966,2.1e-4 -0.33228,-0.10697 -0.15261,-0.10719 -0.34023,-0.2889 -0.55863,-0.54105 -0.43679,-0.5043 -0.99504,-1.2928 -1.65778,-2.34405 -0.41474,-0.65787 -1.04102,-1.50198 -1.39888,-1.8867 -0.17443,-0.18753 -0.32745,-0.38404 -0.43356,-0.54881 -0.0531,-0.0824 -0.0953,-0.15705 -0.12092,-0.21652 -0.0256,-0.0595 -0.0316,-0.10579 -0.0295,-0.11731 0.0264,-0.14269 0.0313,-0.44595 0.014,-0.69349 -0.003,-0.0462 -0.0272,-0.0884 -0.0625,-0.1385 -0.0353,-0.0501 -0.0849,-0.10757 -0.14831,-0.17208 -0.1268,-0.12901 -0.30935,-0.2884 -0.54312,-0.47646 -0.46754,-0.37611 -1.13973,-0.86421 -1.96887,-1.4335 -1.65828,-1.1386 -3.94522,-2.59948 -6.48436,-4.12326 -2.35086,-1.4108 -3.61817,-2.44906 -7.10344,-5.81618 -2.37843,-2.297824 -4.01105,-3.739554 -5.26738,-4.568724 -1.25633,-0.82916 -2.14376,-1.04623 -3.01584,-0.88263 -0.26004,0.0488 -0.48033,0.0682 -0.62115,0.0605 -0.0704,-0.004 -0.12232,-0.0172 -0.14056,-0.0274 -0.002,-10e-4 -0.003,-0.002 -0.004,-0.002 0.0269,-0.0439 0.0248,-0.10283 -0.004,-0.14211 -0.029,-0.0394 -0.0746,-0.0649 -0.13126,-0.0863 -0.11328,-0.0429 -0.27744,-0.0666 -0.47645,-0.0641 -0.20931,0.002 -0.37422,-0.0284 -0.47439,-0.0786 -0.0501,-0.0251 -0.0833,-0.0539 -0.1018,-0.0837 -0.0185,-0.0298 -0.0234,-0.0606 -0.0155,-0.0997 0.012,-0.06 6.6e-4,-0.11999 -0.0294,-0.17002 -0.0301,-0.05 -0.0769,-0.0908 -0.13643,-0.12299 -0.11906,-0.0644 -0.28859,-0.0977 -0.49454,-0.0977 -0.18708,0 -0.33452,-0.0294 -0.41393,-0.0703 -0.0397,-0.0205 -0.0609,-0.0418 -0.0682,-0.0584 -0.007,-0.0166 -0.007,-0.0314 0.01,-0.0589 0.0115,-0.0185 0.0185,-0.0427 0.014,-0.0662 -0.005,-0.0235 -0.0179,-0.0425 -0.0336,-0.0568 -0.0314,-0.0287 -0.0736,-0.0467 -0.13074,-0.0641 -0.11436,-0.0349 -0.28793,-0.0637 -0.52504,-0.0863 -0.4742,-0.0453 -1.19666,-0.0682 -2.14457,-0.0682 z m 36.89543,28.431864 c 0.005,6.3e-4 0.0389,0.009 0.0894,0.0486 0.0527,0.0409 0.12193,0.1077 0.21084,0.20154 0.17784,0.18769 0.43151,0.48354 0.77928,0.90795 0.2532,0.30899 0.47165,0.59139 0.62528,0.80254 0.0582,0.08 0.0975,0.13857 0.13488,0.19534 -0.0604,-0.0539 -0.1284,-0.11669 -0.21291,-0.20103 -0.19695,-0.19653 -0.44585,-0.46224 -0.68988,-0.73225 -0.24403,-0.27002 -0.48433,-0.54583 -0.66198,-0.76378 -0.0888,-0.10898 -0.16243,-0.20385 -0.2129,-0.27543 -0.0252,-0.0358 -0.044,-0.0657 -0.0563,-0.0878 -0.009,-0.0152 -0.0122,-0.0293 -0.0134,-0.0326 v -5.2e-4 h -5.1e-4 c 3.1e-4,-0.0314 0.004,-0.0537 0.008,-0.0625 z m -9.13691,6.273 c 0.0389,6.4e-4 0.0781,3.6e-4 0.11678,0.001 0.0436,0.001 0.0915,0.003 0.13385,0.004 -0.0924,-0.002 -0.15587,-0.003 -0.25063,-0.005 z m 12.78113,2.70061 0.17931,0.0656 c -0.0201,0.007 -0.0614,0.003 -0.0801,0.0114 -0.0377,0.0173 -0.0719,0.0373 -0.10336,0.0594 0.003,-0.0106 0.006,-0.0213 0.009,-0.031 0.007,-0.0266 0.0124,-0.0471 0.007,-0.0749 -0.002,-0.0125 -0.007,-0.022 -0.0119,-0.0305 z m -24.92975,0.71572 c -1.5e-4,0.002 -4e-5,0.006 0,0.006 -8e-5,7e-5 -0.002,0.003 -0.004,0.006 h -5.2e-4 c 0.001,-0.004 0.002,-0.008 0.004,-0.0124 z m -3.59771,0.16588 c -0.01,0.0324 -0.0119,0.0653 -0.0119,0.0982 v 0.14108 c -0.067,-0.002 -0.13339,-0.007 -0.19895,-0.0145 -0.0341,-0.004 -0.0487,-0.034 -0.0822,-0.0393 0.0976,-0.0617 0.19497,-0.12345 0.29301,-0.18552 z m -0.39067,0.24391 c 0.012,0.002 0.0228,0.007 0.0331,0.0114 -0.0132,-0.002 -0.0262,-0.005 -0.0393,-0.007 0.002,-0.001 0.004,-0.003 0.006,-0.004 z m 8.80049,6.8032 c 0.28689,0.007 0.67612,0.005 0.91829,0.015 0.005,1.8e-4 0.013,3.3e-4 0.0176,5.2e-4 0.002,1.3e-4 0.007,3.8e-4 0.009,5.1e-4 0.40219,0.0161 0.73625,0.0346 0.97358,0.0558 0.0249,0.002 0.0361,0.005 0.0589,0.007 -0.17408,-0.0426 -1.24165,-0.0514 -1.97714,-0.0791 z m 6.35259,0.014 c -0.70821,0.0212 -1.63498,0.0285 -2.0035,0.0568 0.33798,-0.0163 0.69764,-0.0324 1.1591,-0.0455 0.23373,-0.007 0.58592,-0.006 0.8444,-0.0114 z m 16.34887,10.42727 c -0.002,0.0236 -0.0135,0.0655 -0.0408,0.12712 -0.0307,0.0691 -0.0753,0.1554 -0.1328,0.25011 -0.11494,0.18941 -0.27572,0.41598 -0.45321,0.63252 -0.17749,0.21655 -0.34074,0.38298 -0.45527,0.47491 -0.0528,0.0424 -0.0919,0.0649 -0.11317,0.0724 0.002,-0.0229 0.0125,-0.0679 0.0408,-0.13126 0.0308,-0.0691 0.0774,-0.15488 0.13487,-0.2496 0.11495,-0.18942 0.27573,-0.4165 0.45321,-0.63304 0.14146,-0.17257 0.27294,-0.31343 0.37878,-0.41031 0.0529,-0.0485 0.10013,-0.0847 0.13695,-0.10903 0.0271,-0.0179 0.0393,-0.0201 0.0506,-0.0238 z m -7.37578,4.78885 c 0.005,0.006 0.01,0.009 0.0145,0.016 -0.009,2.9e-4 -0.0173,7.6e-4 -0.0258,0.001 3.7e-4,-4e-4 6.7e-4,-0.001 0.001,-0.002 0.004,-0.005 0.008,-0.01 0.0103,-0.0155 z" />
  <path
     id="path3755"
     style="baseline-shift:baseline;display:inline;overflow:visible;vector-effect:none;fill:#fdeebb;enable-background:accumulate;stop-color:#000000"
     d="m 242.76238,33.821416 c -0.23646,0.005 -0.4849,0.0156 -0.69092,0.0336 -0.10308,0.009 -0.19585,0.0209 -0.27181,0.0331 -0.076,0.0122 -0.1338,0.024 -0.1757,0.0429 -0.0245,0.011 -0.10322,0.0297 -0.19741,0.045 -0.0942,0.0154 -0.20675,0.0299 -0.31419,0.0372 -0.25228,0.0171 -0.44545,0.2785 -0.44545,0.57413 -2.8e-4,0.0967 -0.0832,0.2461 -0.22841,0.40411 -0.14523,0.15802 -0.34845,0.32502 -0.57413,0.47852 -0.45137,0.307 -0.99611,0.55294 -1.33015,0.55294 -0.0736,0 -0.14542,0.0429 -0.22841,0.10955 -0.083,0.0667 -0.17519,0.16001 -0.27543,0.27337 -0.2005,0.22673 -0.42887,0.53382 -0.64493,0.85938 -0.21605,0.32556 -0.41903,0.66994 -0.56999,0.97255 -0.15096,0.3026 -0.25147,0.5583 -0.25373,0.73071 -9.4e-4,0.0709 -0.0781,0.26098 -0.24236,0.53278 -0.1643,0.27179 -0.41204,0.63346 -0.74414,1.08624 -0.6642,0.90555 -1.66533,2.17471 -3.01377,3.82044 l -1.25212,1.52497 0.0434,2.02726 c 0.0208,0.99313 0.0261,1.49429 -0.092,1.86914 -0.11811,0.37485 -0.36273,0.63706 -0.86144,1.16065 -0.55759,0.58537 -1.18755,1.39841 -1.4118,1.82573 -0.18287,0.34848 -0.27548,0.5857 -0.25012,0.90847 0.0254,0.32278 0.163,0.7252 0.42788,1.43351 0.38088,1.01844 0.52107,1.9821 0.43719,2.76934 -0.0839,0.78723 -0.39044,1.3952 -0.90227,1.72082 -1.12565,0.71612 -1.90097,1.279 -2.40813,1.76579 -0.50715,0.48678 -0.74764,0.90038 -0.78909,1.31826 -0.031,0.31228 -0.0169,0.54513 0.0625,0.73226 0.0794,0.18712 0.22433,0.32268 0.43925,0.4377 0.29178,0.15616 0.65832,0.55184 0.79324,0.85524 0.14664,0.32973 0.61246,1.06245 1.04283,1.64693 0.21218,0.28815 0.40535,0.61872 0.54673,0.91777 0.14138,0.29905 0.22823,0.57062 0.23048,0.72089 0.005,0.36661 -0.15372,0.88446 -0.41961,1.41955 -0.26588,0.53508 -0.63628,1.08777 -1.04903,1.52962 -0.32807,0.35122 -0.74696,1.14062 -1.08986,1.94924 -0.3429,0.80862 -0.6072,1.62685 -0.6072,2.0562 0,0.13056 0.0487,0.33149 0.12506,0.56276 0.0764,0.23127 0.18063,0.48993 0.29662,0.72244 0.32869,0.65888 1.32869,1.33098 2.31046,1.7539 0.49089,0.21147 0.976,0.35959 1.37511,0.40462 0.19956,0.0225 0.37801,0.0199 0.52554,-0.0155 0.14753,-0.0355 0.26662,-0.10701 0.3359,-0.21911 0.0358,-0.058 0.1757,-0.14171 0.37104,-0.21084 0.19535,-0.0691 0.44568,-0.12898 0.709,-0.17363 0.52664,-0.0893 1.10888,-0.11111 1.39061,-0.0217 0.2493,0.0791 0.5063,0.40235 0.54881,0.70125 0.031,0.21816 0.11204,0.38383 0.25786,0.49971 0.14583,0.11588 0.35015,0.18106 0.6289,0.21291 0.21461,0.0245 0.44189,0.0136 0.63666,-0.0233 0.19477,-0.037 0.3563,-0.0964 0.44907,-0.18914 0.22012,-0.22011 0.51511,-0.29471 0.98857,-0.2036 0.47346,0.0911 1.11976,0.35289 2.01176,0.80098 0.6954,0.34934 1.12504,0.59938 1.40973,0.8537 0.2847,0.25432 0.42667,0.51016 0.54881,0.88831 0.13023,0.40316 0.23907,0.64986 0.42788,0.80305 0.18881,0.15319 0.44648,0.20382 0.85576,0.23823 0.68817,0.0578 1.10675,-0.0784 1.47071,-0.48059 0.21273,-0.23505 0.39689,-0.35913 0.83561,-0.43356 0.43872,-0.0744 1.12745,-0.092 2.32234,-0.092 1.80372,0 3.01823,0.13421 3.63698,0.39274 0.52943,0.22121 1.28525,0.40152 1.70481,0.40256 0.38553,9.1e-4 1.07679,0.23657 1.50378,0.51935 0.41992,0.2781 0.79196,0.44671 1.10743,0.51005 0.31546,0.0633 0.5765,0.0205 0.76171,-0.12351 0.1852,-0.14404 0.28692,-0.38573 0.29714,-0.7028 0.0102,-0.31706 -0.0679,-0.71138 -0.24598,-1.1777 -0.22586,-0.5914 -0.33385,-0.88342 -0.30489,-1.16634 0.029,-0.28292 0.19766,-0.57782 0.54467,-1.16996 0.19051,-0.32508 0.41935,-0.65934 0.63303,-0.93534 0.21369,-0.27601 0.41512,-0.49507 0.53899,-0.58188 0.32639,-0.22874 0.72749,-0.80026 1.05678,-1.40818 0.32929,-0.60792 0.58348,-1.24213 0.58188,-1.61747 -7.4e-4,-0.16313 -0.0761,-0.44275 -0.19534,-0.78135 -0.11917,-0.33859 -0.28254,-0.73179 -0.4625,-1.09761 -0.45442,-0.9238 -0.67068,-1.66807 -0.65061,-2.28513 0.0201,-0.61706 0.27084,-1.10846 0.76378,-1.54099 0.51915,-0.45554 0.81235,-0.96635 0.81235,-1.44539 0,-0.37406 0.1952,-1.0314 0.4315,-1.43144 0.10677,-0.18075 0.18762,-0.31944 0.23823,-0.44338 0.0506,-0.12393 0.0716,-0.23504 0.0527,-0.34778 -0.0377,-0.22549 -0.21697,-0.44353 -0.55862,-0.84956 -0.40651,-0.48311 -0.61112,-0.7714 -0.65009,-1.05834 -0.039,-0.28693 0.0833,-0.59125 0.35346,-1.10949 0.28636,-0.54912 0.35479,-1.1663 0.23617,-2.06034 l -0.17364,-1.30896 -1.22473,0.047 -0.36277,0.014 c 0.0441,-0.0867 0.0693,-0.18964 0.0693,-0.29973 0,-0.21209 -0.0745,-0.37528 -0.26355,-0.48679 -0.0186,-0.011 -0.0382,-0.0213 -0.0589,-0.0315 0.003,4.8e-4 0.006,0.001 0.009,0.002 0.14044,0.0237 0.23915,0.0502 0.30283,0.078 0.0637,0.0278 0.088,0.0543 0.0956,0.0739 0.0611,0.15927 0.18887,0.27067 0.35347,0.33021 0.16459,0.0595 0.36661,0.0718 0.58601,0.0429 0.4388,-0.0578 0.95239,-0.28155 1.38854,-0.64854 0.33167,-0.27909 0.58601,-0.43819 0.94723,-0.53123 0.36123,-0.093 0.83161,-0.11886 1.58802,-0.11886 0.70697,0 1.17991,0.0272 1.52704,0.10542 0.34714,0.0782 0.56827,0.20457 0.7891,0.41031 0.34188,0.31851 0.79577,0.49126 1.39474,0.51935 0.59897,0.0281 1.34599,-0.0851 2.2872,-0.3359 2.07818,-0.55377 3.06108,-1.18306 4.98419,-3.18378 0.91127,-0.94805 1.43874,-1.5731 1.65262,-2.04845 0.10694,-0.23768 0.13443,-0.44078 0.0858,-0.62322 -0.0486,-0.18244 -0.17114,-0.3383 -0.35192,-0.48834 -0.25743,-0.21364 -0.37046,-0.41177 -0.3514,-0.71676 0.0191,-0.30498 0.18052,-0.72139 0.4961,-1.33997 0.31304,-0.6136 0.48919,-1.33399 0.51986,-1.93166 0.0153,-0.29884 -0.005,-0.56622 -0.0667,-0.77722 -0.0615,-0.21101 -0.16517,-0.37113 -0.32246,-0.43149 -0.0342,-0.0131 -0.11514,-0.0725 -0.21291,-0.1664 -0.0978,-0.0939 -0.21803,-0.22239 -0.34933,-0.37466 -0.2626,-0.30455 -0.57386,-0.70514 -0.87127,-1.12913 -1.45494,-2.07413 -2.31996,-2.75554 -5.23792,-4.11912 -1.35358,-0.63253 -3.03461,-1.61984 -3.7207,-2.18178 -1.32263,-1.08332 -2.27442,-1.76295 -3.13521,-2.17351 -0.8608,-0.41056 -1.63112,-0.54882 -2.58382,-0.54881 -1.32568,0 -2.22651,0.19469 -3.77548,0.82011 l -2.00763,0.81235 -3.21686,-1.06402 c -1.97262,-0.65258 -3.42023,-1.15595 -4.35529,-1.51567 -0.46753,-0.17986 -0.80723,-0.32494 -1.01751,-0.43201 -0.10514,-0.0535 -0.17953,-0.0992 -0.21704,-0.13074 -0.0149,-0.0125 -0.0185,-0.0188 -0.0217,-0.0233 l 5.2e-4,-5.1e-4 v -5.2e-4 l 5.2e-4,-5.2e-4 c 2.7e-4,-6.2e-4 5.3e-4,-0.002 0.001,-0.003 0.002,-0.004 0.003,-0.009 0.004,-0.0134 0.001,-0.005 0.002,-0.0152 0.002,-0.016 -3e-5,-8.2e-4 -0.002,-0.0147 -0.002,-0.0155 -2.5e-4,-7.9e-4 -0.004,-0.01 -0.006,-0.0134 -0.005,-0.008 -0.0105,-0.0133 -0.0155,-0.0176 -0.0201,-0.0169 -0.0378,-0.0197 -0.0605,-0.0253 -0.0453,-0.0112 -0.10934,-0.0203 -0.18965,-0.0258 -0.16049,-0.0111 -0.38424,-0.0121 -0.62064,-0.008 z m 14.34382,16.9013 c 0.15907,0.009 0.29361,0.0463 0.43925,0.11627 -0.066,-0.007 -0.14037,-0.0148 -0.22324,-0.0217 -0.20485,-0.017 -0.45935,-0.0319 -0.75344,-0.0444 0.21949,-0.0416 0.39,-0.0584 0.53743,-0.0501 z m -5.21053,0.0233 c 0.0653,8.5e-4 0.1323,8.4e-4 0.19689,0.002 -0.64009,0.007 -1.27207,0.0129 -1.86035,0.0165 0.11634,-0.005 0.24745,-0.004 0.36897,-0.007 0.44449,-0.0129 0.83387,-0.018 1.29449,-0.0119 z m -16.65893,10.56887 c 0.37174,0.0392 3.00784,0.0306 4.75836,0.047 -0.71551,-0.003 -1.7057,0.005 -2.30218,-10e-4 -0.9883,-0.01 -1.79553,-0.024 -2.3611,-0.0419 -0.0408,-0.001 -0.0568,-0.003 -0.0951,-0.004 z m -0.81959,0.046 c 0.003,4.8e-4 0.006,7.8e-4 0.009,0.002 0.0151,0.004 0.0334,0.007 0.0558,0.01 0.0132,0.002 0.0279,0.003 0.0439,0.005 l -0.10852,-10e-4 z" />
  <path
     d="m 178.45991,243.39186 c -9.87502,2.64601 -19.75005,5.29201 -29.62507,7.93802 -0.43502,2.02355 0.44041,3.45517 2.27118,4.11392 0.9249,0.89126 0.0662,2.81064 1.5101,3.17008 2.47732,1.15551 4.66274,2.81093 6.59855,4.73077 1.49247,1.53026 4.32384,1.79079 4.87829,-0.74065 1.79868,-2.54985 5.953,-2.71599 8.10257,-0.56933 0.61158,1.94391 -0.19652,4.66789 2.73378,4.89571 2.81443,1.97321 5.21609,4.73209 8.49406,5.92728 1.28124,0.0331 -0.0662,-1.49764 1.25987,-1.05784 0.44923,-0.5124 -0.9569,1.51778 0.37307,0.20912 2.8099,-2.40949 5.24408,-5.23723 8.09387,-7.59038 2.54843,-2.09388 4.55845,1.75758 7.03717,1.4633 2.24924,-1.13624 -1.26838,-4.89908 1.72683,-4.96391 2.55664,-1.03517 3.95782,1.76027 6.31558,1.65105 2.39936,0.64809 5.26404,0.15445 4.58273,-2.98301 0.65684,-3.01342 -3.10219,-2.45613 -4.90531,-3.40716 -2.88182,-1.12365 -5.65109,-2.82556 -7.64359,-5.20773 0.0323,-1.65758 -0.34726,-2.9635 -2.32108,-2.29733 -1.61905,0.66192 -2.50939,-1.14716 -3.96566,-0.94157 1.23907,-1.49388 2.51113,-2.96342 3.80804,-4.39663 -0.1209,-3.2013 -4.09515,-1.23677 -6.07603,-1.79044 -2.46169,-0.71681 -3.83643,2.08657 -6.31048,2.09334 -2.20634,0.33764 -5.25241,2.54612 -6.5834,2.57718 -0.45882,-0.83492 -0.29952,-1.85824 -0.35507,-2.82379 z m 14.83423,4.30362 c -0.9132,0.0896 -1.58095,0.0162 -0.0217,0.009 0.009,6.4e-4 0.0157,-0.006 0.0217,-0.009 z m -15.61093,15.09571 c 1.2442,0.19373 1.56962,2.8634 0.46389,0.69264 -0.0908,-0.23498 -0.38103,-0.43961 -0.46389,-0.69264 z m 6.92671,0.72554 c 0.0909,-0.006 0.53192,0.0137 0,0 z m 3.44372,0.36277 c 0.36158,0.77691 0.18345,0.97777 0,0 z"
     style="baseline-shift:baseline;display:inline;overflow:visible;fill:#fdeebb;stroke:#800080;stroke-width:0.1;enable-background:accumulate;stop-color:#000000"
     id="path5" />
  <path
     d="m 178.71881,227.75199 h -25.54418 c 0.19794,0.34293 0.44253,0.71333 0.75086,1.15755 0.6422,0.92522 0.9765,1.54458 1.03508,2.06189 0.0586,0.51729 -0.15055,0.94341 -0.62167,1.5043 -0.13018,0.15498 -0.24804,0.34479 -0.35192,0.56173 -0.0478,0.01 -0.0908,0.03 -0.12557,0.0641 -0.0545,0.0534 -0.0857,0.13393 -0.1018,0.24392 -0.0109,0.0744 -0.0154,0.16417 -0.014,0.27233 -0.008,0.043 -0.0158,0.0876 -0.0222,0.13436 -0.0687,0.24731 -0.12271,0.51237 -0.16019,0.78962 -0.0991,0.73276 -0.43672,1.78159 -0.74208,2.30993 -0.31839,0.55092 -0.80068,1.89542 -1.08262,3.00757 -0.68133,2.68754 -0.84427,3.08088 -1.80712,4.34185 l -0.83354,1.09141 -0.17467,3.67161 c -0.0172,0.36094 -0.0326,0.69808 -0.0455,1.01286 -0.0317,0.096 -0.0508,0.18546 -0.0579,0.27492 -0.009,0.11685 0.003,0.23143 0.0341,0.35812 -0.009,0.25648 -0.0149,0.49621 -0.0191,0.71985 l 29.62507,-7.93802 c -0.005,-1.31613 0.018,-3.27154 0.0672,-6.12262 0.31889,-0.75639 0.30626,-1.62498 -0.0362,-2.33784 -0.0338,-0.53014 -0.0804,-1.13712 -0.13125,-1.72393 -0.0532,-0.61357 -0.11104,-1.20395 -0.16382,-1.65933 -0.0265,-0.2277 -0.0517,-0.42142 -0.0744,-0.56792 -0.0114,-0.0733 -0.022,-0.13457 -0.032,-0.18294 -0.0103,-0.0484 -0.0188,-0.082 -0.031,-0.10852 -5e-5,-8e-5 -0.022,-0.0238 -0.0222,-0.0238 -1.6e-4,-8e-5 -0.008,-0.003 -0.01,-0.004 -1.5e-4,-1e-4 -0.001,-4.2e-4 -0.002,-5.2e-4 -5.5e-4,-1.8e-4 -0.001,-4.3e-4 -0.002,-5.2e-4 h -5.1e-4 c 0,0 -5.2e-4,0 -5.2e-4,0 0,0 -5.2e-4,0 -5.2e-4,0 0,0 -5.1e-4,-5.1e-4 -5.1e-4,-5.1e-4 0,0 -5.2e-4,0 -5.2e-4,0 -7.9e-4,-5e-5 -0.002,4e-5 -0.003,0 h -5.2e-4 l -5.2e-4,-5.2e-4 -5.1e-4,-5.2e-4 h -5.2e-4 c -0.005,0 -0.008,-2e-4 -0.0134,-0.003 -0.01,0 -0.0222,-0.003 -0.0387,-0.003 -0.0119,0 -0.026,-5.7e-4 -0.0419,-0.001 l -0.27854,-0.29662 c 0.0994,0.0389 0.2171,0.0536 0.36381,0.0522 0.10129,0.0173 0.20624,0.0191 0.31005,0.007 0.09,-0.0105 0.17961,-0.0318 0.26562,-0.0641 0.18463,-0.0325 0.31783,-0.082 0.416,-0.17001 0.0742,-0.0665 0.12367,-0.15192 0.15916,-0.26148 0.0387,-0.0815 0.0637,-0.17295 0.0744,-0.27337 1.5e-4,-0.001 3.8e-4,-0.003 5.2e-4,-0.004 0.023,-0.0888 0.0357,-0.18472 0.0357,-0.28732 0,-0.10383 -0.0404,-0.24532 -0.10904,-0.4129 -0.0163,-0.0694 -0.0347,-0.14108 -0.0558,-0.21445 -0.0899,-0.31209 -0.2229,-0.65365 -0.38447,-0.97462 z m -18.94872,0.87333 c 0.0623,-5.1e-4 0.13172,0.002 0.20981,0.006 0.17282,0.009 0.43082,0.0431 0.71778,0.0925 -0.26845,-0.03 -0.5148,-0.053 -0.72553,-0.0682 -0.13942,-0.0101 -0.26303,-0.0167 -0.36794,-0.0196 0.0484,-0.007 0.10356,-0.01 0.16588,-0.0103 z m 15.952,0.71055 h 5.2e-4 c 0.13399,0.0108 0.25301,0.0223 0.35915,0.0351 -0.0949,0.0238 -0.17268,0.0722 -0.22789,0.1478 -0.0401,0.0548 -0.0682,0.12188 -0.0868,0.20102 z m -11.32747,13.38316 h 5.1e-4 c 0.0686,-0.001 0.12964,0.004 0.17932,0.014 0.0497,0.0103 0.0878,0.0262 0.10955,0.0424 0.0215,0.016 0.0268,0.0278 0.0269,0.0434 h -5.2e-4 c -6.9e-4,0.002 -0.003,0.008 -0.0114,0.0165 -0.0119,0.0122 -0.034,0.0287 -0.0641,0.0455 -0.06,0.0335 -0.15211,0.0703 -0.26665,0.10542 -0.18982,0.0581 -0.44222,0.11248 -0.72295,0.15348 0.0335,-0.0154 0.0614,-0.0325 0.0832,-0.0543 0.0644,-0.0644 0.0759,-0.16181 0.0527,-0.25735 -0.006,-0.023 -0.0128,-0.0466 -0.0222,-0.0698 0.11708,0.0232 0.25284,0.0156 0.41082,-0.0145 0.08,-0.0153 0.15619,-0.0233 0.2248,-0.0248 z"
     style="baseline-shift:baseline;display:inline;overflow:visible;fill:#fdeebb;stroke-width:0.1;enable-background:accumulate;stop-color:#000000;stroke:#0000ff"
     id="path4" />
  <path
     d="m 169.73538,207.5434 c -0.65211,6.1e-4 -1.63942,0.3082 -2.56367,0.72916 -0.2654,0.12087 -0.49334,0.26285 -0.73794,0.39791 -0.14848,0.079 -0.32388,0.16172 -0.45114,0.24339 -0.41694,0.26206 -0.77001,0.53059 -0.97565,0.78497 -1.01963,1.26122 -1.53019,1.89159 -1.8774,2.19986 -0.34721,0.30829 -0.5205,0.30076 -0.92139,0.30076 -0.39278,0 -0.85461,-0.21014 -1.28675,-0.56379 -0.43215,-0.35365 -0.83409,-0.84906 -1.11362,-1.40973 -0.16203,-0.325 -0.56282,-0.71601 -0.91054,-0.89194 -0.39804,-0.2014 -1.03563,-0.30611 -1.55185,-0.31626 -0.25813,-0.005 -0.48467,0.013 -0.63975,0.0599 -0.0775,0.0234 -0.13896,0.0532 -0.17777,0.1018 -0.0388,0.0486 -0.0404,0.12061 -0.004,0.17983 0,0.001 0.005,0.0166 0,0.0465 -0.006,0.0299 -0.0214,0.0715 -0.0455,0.12093 -0.0482,0.0988 -0.13131,0.22949 -0.24132,0.37982 -0.22006,0.30066 -0.54947,0.68232 -0.93587,1.0728 -0.55838,0.56425 -2.03231,2.1404 -3.31607,3.53725 -0.64188,0.69843 -1.23605,1.35184 -1.64383,1.81074 -0.20388,0.22946 -0.36069,0.41011 -0.45475,0.52452 -0.047,0.0572 -0.0777,0.0956 -0.0941,0.12299 -0.004,0.007 -0.007,0.0123 -0.0108,0.0238 v 5.2e-4 5.1e-4 c -5.7e-4,0.003 -0.003,0.006 -0.003,0.01 v 0.0186 c 1.1e-4,2.6e-4 0.0165,0.0267 0.0165,0.0269 0,2.1e-4 0.019,0.0108 0.0269,0.0119 0.0311,0.004 0.0332,-0.005 0.0403,-0.009 0.007,-0.004 0.0138,-0.009 0.0212,-0.015 l 1.8464,-1.41956 c -0.17904,0.20393 -0.23358,0.36505 -0.23358,0.55088 0,0.12729 0.009,0.23168 0.0532,0.32039 0.0307,0.0613 0.079,0.11167 0.14624,0.15193 -0.0686,6.2e-4 -0.14085,0.005 -0.21497,0.0119 l -0.001,-0.002 c -0.19541,0.0193 -0.36817,0.0698 -0.51728,0.14727 -0.003,4e-4 -0.006,6.6e-4 -0.009,0.001 -0.18479,0.0249 -0.30462,0.0535 -0.37466,0.11162 -0.007,0.006 -0.0131,0.0111 -0.0196,0.017 -0.0462,0.003 -0.0853,0.007 -0.11679,0.0103 -0.0268,0.003 -0.048,0.006 -0.0651,0.009 -0.008,0.003 -0.0161,0.004 -0.0238,0.006 -0.008,0.003 -0.0151,0.003 -0.0284,0.016 -0.11734,0.11734 -0.17207,0.31208 -0.18448,0.56069 -0.0124,0.2486 0.0193,0.55385 0.0899,0.89762 0.14137,0.68755 0.43906,1.52905 0.85938,2.36368 0.62058,1.23229 0.96275,2.31786 1.1188,3.54862 0.20891,1.64768 0.39025,2.40982 0.96583,3.40703 h 25.54418 c -0.0126,-0.0251 -0.0253,-0.0501 -0.0382,-0.0749 l -0.59893,-1.14618 0.50953,-0.47233 c 0.2825,-0.2617 0.98059,-0.60976 1.52807,-0.75499 0.29503,-0.0783 0.52948,-0.16165 0.71572,-0.29042 0.18627,-0.12877 0.32177,-0.30329 0.41599,-0.55242 0.10272,-0.27159 0.15927,-0.63175 0.18965,-1.12862 0.10059,-0.009 0.21224,-0.0199 0.33332,-0.0331 0.53666,-0.0582 1.25683,-0.15617 1.99677,-0.25321 0.73993,-0.097 1.49937,-0.19311 2.11202,-0.2465 0.30633,-0.0267 0.5763,-0.0425 0.78755,-0.0429 0.21124,-2.7e-4 0.36687,0.0185 0.42788,0.0465 l 0.0713,0.0325 v -0.007 c 0.58258,0.25894 1.15693,0.40914 1.66967,0.447 0.0208,0.001 0.0425,0.005 0.063,0.006 0.0217,10e-4 0.0452,0.005 0.0667,0.006 0.56407,0.0204 1.04363,-0.10073 1.3503,-0.37827 0.0875,-0.0792 0.16074,-0.16915 0.22118,-0.27595 0.0624,-0.0892 0.11064,-0.19109 0.14573,-0.31626 0.0726,-0.25889 0.0913,-0.64187 0.0951,-1.19683 1.6e-4,-0.0275 0.003,-0.0455 0.003,-0.0739 0,-0.0127 -1e-5,-0.0232 0,-0.0357 5e-5,-0.0224 0.002,-0.0338 0.002,-0.0568 0,-0.0659 -2.8e-4,-0.12954 0,-0.19017 0.007,-0.47236 0.035,-0.77119 0.1235,-1.01183 0.10493,-0.28546 0.29647,-0.49833 0.65578,-0.83509 0.21783,-0.20415 0.43757,-0.39042 0.61495,-0.52452 0.0887,-0.067 0.16691,-0.12106 0.22789,-0.15761 0.061,-0.0366 0.112,-0.0522 0.11214,-0.0522 0.0445,-2.6e-4 0.0858,-0.0345 0.0997,-0.0739 0.014,-0.0394 0.013,-0.083 0.005,-0.13384 -0.0159,-0.10158 -0.0643,-0.23179 -0.14107,-0.37517 -0.0623,-0.11643 -0.10763,-0.29512 -0.13178,-0.50385 0.006,-0.12619 0.01,-0.26441 0.014,-0.41754 l 0.0129,-0.51367 c 0.0386,-0.22871 0.067,-0.4048 0.0646,-0.56017 -9.1e-4,-0.0481 -0.005,-0.0937 -0.0124,-0.13849 0.006,-0.0293 0.01,-0.0561 0.0129,-0.0791 0.003,-0.0236 0.004,-0.0432 0.004,-0.0615 0,-0.0183 0.003,-0.0382 -0.0238,-0.0615 -0.007,-0.006 -0.014,-0.0124 -0.0217,-0.0191 l 0.003,-0.1018 -0.32091,-0.23823 c -0.21498,-0.20342 -0.5437,-0.44587 -1.03663,-0.80873 -0.32525,-0.23944 -0.65566,-0.45458 -0.97514,-0.63717 -0.30784,-0.18794 -0.57902,-0.3219 -0.82527,-0.40721 -0.25315,-0.10278 -0.48501,-0.17374 -0.68471,-0.20568 -0.68201,-0.10906 -1.34837,-0.48381 -2.21692,-1.25522 -1.26259,-1.12136 -1.9576,-1.71026 -2.78381,-2.0376 -0.82622,-0.32735 -1.77289,-0.38913 -3.5388,-0.46767 l -3.18172,-0.14159 -1.30483,0.89762 c -0.60407,0.41552 -0.93752,0.62923 -1.18184,0.69763 -0.12215,0.0342 -0.22148,0.0344 -0.33073,0.007 -0.10922,-0.0272 -0.22793,-0.0838 -0.37982,-0.16381 -0.17082,-0.09 -0.47227,-0.31522 -0.80977,-0.60203 -0.3375,-0.28681 -0.71429,-0.63571 -1.04748,-0.97668 -0.4866,-0.49798 -0.83249,-0.81152 -1.14205,-1.00253 -0.0739,-0.0456 -0.1454,-0.0841 -0.21653,-0.11627 -0.11065,-0.0573 -0.21732,-0.0908 -0.32866,-0.10697 -0.11666,-0.0238 -0.23609,-0.034 -0.36328,-0.0341 z m -17.27905,6.61717 c -0.3839,0.41857 -0.68875,0.7455 -0.94671,1.02578 0.16824,-0.1858 0.34665,-0.38152 0.54932,-0.60203 0.15387,-0.16743 0.2399,-0.25318 0.39739,-0.42375 z m 30.89837,1.84795 c 0.0197,0.002 0.0406,0.005 0.062,0.008 0.0117,0.002 0.0226,0.004 0.0341,0.006 0.11139,0.056 0.21131,0.15695 0.26355,0.2744 0.0117,0.032 0.0233,0.0666 0.0331,0.10387 0.0226,0.0866 0.0533,0.16237 0.10335,0.22583 -0.18422,-0.0445 -0.31303,-0.064 -0.42478,-0.0522 -0.0929,0.01 -0.16989,0.0426 -0.24908,0.0971 0.008,-0.0578 0.0119,-0.12203 0.0119,-0.19482 0,-0.16106 0.0298,-0.28255 0.0729,-0.36277 0.0278,-0.0518 0.0597,-0.086 0.093,-0.10542 z m -16.67133,5.91488 c 0.0244,0.004 0.0519,0.008 0.0822,0.0114 0.1008,0.0111 0.23444,0.0178 0.39171,0.0207 0.10086,0.002 0.21151,0.002 0.32918,0.001 -0.077,0.0471 -0.14,0.1105 -0.1881,0.18603 -0.0517,0.0513 -0.0848,0.11662 -0.10491,0.19431 -0.0246,0.095 -0.0315,0.2094 -0.0315,0.35191 0,0.0926 0.0147,0.18992 0.0424,0.29042 0.0289,0.26585 0.11942,0.54373 0.262,0.80616 -0.23841,-0.2111 -0.51337,-0.32073 -0.80822,-0.32401 v -5.2e-4 c -0.25557,-0.003 -0.52324,0.0728 -0.79581,0.22479 0.0449,-0.042 0.0876,-0.0826 0.12867,-0.12247 0.17174,-0.10749 0.29531,-0.21834 0.38034,-0.35295 0.0289,-0.0457 0.0529,-0.0936 0.0729,-0.1447 0.0323,-0.0424 0.0617,-0.0836 0.0884,-0.12402 0.16865,-0.25516 0.22733,-0.47804 0.19585,-0.70021 z"
     style="baseline-shift:baseline;display:inline;overflow:visible;fill:#fdeebb;stroke-width:0.1;enable-background:accumulate;stop-color:#000000;stroke:#000080"
     id="path3" />
  <path
     id="path3799"
     style="baseline-shift:baseline;display:inline;overflow:visible;vector-effect:none;fill:#fdeebb;enable-background:accumulate;stop-color:#000000"
     d="m 91.793073,174.72846 -3.80597,0.0186 c -3.15966,0.0151 -5.13143,0.10743 -6.63577,0.43511 -1.50437,0.32769 -2.53897,0.89269 -3.81217,1.84434 -0.87374,0.65307 -2.31055,1.60964 -3.18688,2.12235 -3.12351,1.82753 -4.0441,2.76368 -5.74797,5.84512 -0.50347,0.91056 -1.18506,1.78142 -2.16111,2.76004 -2.16905,2.17469 -3.35809,2.89114 -9.05216,5.45445 -0.54208,0.24402 -1.05794,0.60431 -1.62316,0.88676 -1.02808,0.51366 -1.92408,1.02146 -2.8081,1.53376 -0.70655,0.40994 -1.51849,0.7613 -2.12648,1.16169 -0.54915,0.36164 -1.15033,0.83385 -1.78284,1.39733 -0.72751,0.58995 -1.31248,1.15786 -1.73529,1.69292 -0.38878,0.41044 -0.78169,0.84569 -1.17512,1.30173 -0.39992,0.46355 -1.1566,1.12415 -1.66915,1.45779 -3.05361,1.98787 -3.91138,2.62972 -5.3759,4.01939 -0.88908,0.84362 -2.27311,1.99971 -3.06855,2.56367 -1.73337,1.22893 -3.90977,3.18031 -5.77381,5.08238 -1.86407,1.90203 -3.41402,3.74786 -3.8995,4.7904 -0.25773,0.55346 -0.38555,1.07324 -0.37931,1.71928 0.006,0.64603 0.14519,1.41792 0.41652,2.48408 0.6504,2.5558 0.56272,3.25956 -0.72451,5.82755 -1.61771,3.22734 -2.86332,4.5691 -5.81721,6.26474 -0.60291,0.34609 -1.12632,0.72019 -1.68776,1.07797 -0.003,0.002 -0.005,0.003 -0.008,0.005 l -5.1e-4,5.1e-4 c -1.71761,1.09512 -3.32135,2.23828 -4.8457,3.58222 -1.09726,0.96734 -2.4493,2.00081 -2.98277,2.28513 -0.6491597,0.34599 -2.1780397,0.82425 -4.5470097,1.41696 -0.59511,0.14889 -1.03159,0.31548 -1.66656,0.49248 -0.0667,0.0184 -0.10805,0.0331 -0.17467,0.0517 -0.002,4.2e-4 -0.003,6.1e-4 -0.004,0.001 -1.38595,0.39011 -2.94266996,0.81049 -3.64938996,1.07849 -1.86743004,0.7081 -1.96109004,0.7256 -3.71244004,0.70073 l -1.85621,-0.0264 v 22.7924 c 0,9.03992 0.0109,14.72557 0.0424,18.15187 0.004,0.39085 0.008,0.75202 0.0119,1.08572 v 3.46697 l 0.13177,0.0119 v 5.1e-4 c 0.004,0.0137 0.009,0.0258 0.0145,0.0372 0.004,0.008 0.009,0.0161 0.0181,0.0243 0.009,0.008 0.0238,0.0157 0.0408,0.016 0.0212,0 0.10124,0.008 0.21549,0.0217 0.11422,0.0138 0.26624,0.0333 0.44494,0.0574 0.35738,0.0481 0.82164,0.11383 1.30638,0.18604 0.97177,0.14475 2.55869004,0.32657 3.53053004,0.40462 l 0.0227,0.003 0.003,-0.003 c 0.16781,0.0132 1.07004996,-0.0225 1.34616996,-0.0124 0.5082,0.0141 0.81663,0.0346 1.53273,0.0413 0.11072,0.002 0.22274,0.005 0.33641,0.007 2.14636,0.0389 4.79915,0.0405 7.4377897,-0.002 1.40683,-0.0227 2.71474,-0.0555 3.93309,-0.0992 1.02072,-0.0238 1.54489,-0.0572 2.2748,-0.0873 0.41623,-0.0189 1.42209,0.005 1.68155,-0.0155 5.0818,-0.40688 7.80952,-0.9898 10.89236,-2.32957 4.43818,-1.92884 9.33895,-2.80176 16.81758,-2.9931 2.88251,-0.0737 4.79827,-0.0259 7.56284,0.18913 1.42092,0.1106 2.11875,0.10484 2.92541,0.11162 0.0504,0.002 0.11244,0.005 0.16174,0.006 1.41047,2e-4 2.52091,-0.12833 4.14342,-0.61133 3.53192,-1.05143 5.54691,-1.41564 8.74313,-1.57923 l 2.27428,-0.11627 1.93994,-1.93373 c 0.53027,-0.52877 1.03845,-1.06691 1.4304,-1.50792 0.19598,-0.22051 0.36296,-0.41637 0.48938,-0.57568 0.12641,-0.1593 0.21129,-0.27877 0.24804,-0.35915 0.0707,-0.15454 0.13722,-0.48615 0.19844,-0.91467 0.0612,-0.42852 0.1133,-0.94875 0.14211,-1.45831 0.11845,-2.09436 0.27043,-2.48331 1.79059,-4.59352 0.50163,-0.69633 1.20121,-1.81676 1.55856,-2.497 0.0693,-0.13182 0.15734,-0.4158 0.23255,-0.57775 0.17957,-0.36309 0.3317,-0.70008 0.41289,-0.95446 0.0247,-0.0775 0.051,-0.15894 0.0786,-0.24391 0.0214,-0.055 0.036,-0.11169 0.0574,-0.16743 0.20423,-0.52518 0.40319,-0.91691 0.58808,-1.46348 0.21524,-0.63625 0.40529,-1.25077 0.54157,-1.76062 0.13629,-0.50988 0.22014,-0.91172 0.22014,-1.13791 0,-0.83532 -0.57089,-1.95174 -1.68982,-3.34967 l -0.86041,-1.0759 0.11265,-1.35651 c 0.0316,-0.37986 0.0478,-0.76388 0.0486,-1.07797 0,-0.15706 -0.003,-0.29666 -0.0103,-0.40979 -0.007,-0.11311 -0.018,-0.19813 -0.0362,-0.25528 -0.0209,-0.0661 -0.0729,-0.13316 -0.14883,-0.21084 -0.0759,-0.0777 -0.17654,-0.16395 -0.29817,-0.25632 -0.2432,-0.18478 -0.56895,-0.39358 -0.93741,-0.59583 -0.34229,-0.18785 -0.67341,-0.39483 -0.92966,-0.57671 -0.12811,-0.0909 -0.23749,-0.17556 -0.31988,-0.24753 -0.0824,-0.072 -0.13796,-0.13451 -0.15503,-0.1664 -0.0185,-0.0346 -0.0464,-0.11989 -0.0734,-0.23564 -0.027,-0.11573 -0.0552,-0.26362 -0.0827,-0.43253 -0.0549,-0.33785 -0.10732,-0.7605 -0.14315,-1.18494 -0.14806,-1.75395 -0.24896,-1.99882 -1.3193,-3.20394 -1.05537,-1.18835 -1.21956,-1.66147 -1.21956,-3.51607 v -1.62367 l -0.15916,-0.008 v -0.002 h -0.0295 l -1.79265,-0.0884 c -1.40583,-0.0692 -2.3171,-0.22995 -2.94453,-0.59634 -0.62743,-0.36643 -0.981,-0.93894 -1.27485,-1.85932 -0.0557,-0.17457 -0.2094,-0.50142 -0.41445,-0.89814 -0.20505,-0.39672 -0.46096,-0.86034 -0.71882,-1.29553 -0.62188,-1.0496 -1.09892,-1.90683 -1.42007,-2.54868 -0.16058,-0.32094 -0.28232,-0.58828 -0.36328,-0.79788 -0.081,-0.20963 -0.11989,-0.36363 -0.11989,-0.44597 0,-0.0915 -0.0322,-0.21454 -0.0935,-0.38086 -0.0612,-0.16634 -0.15267,-0.37484 -0.27543,-0.62786 -0.24549,-0.50602 -0.61589,-1.1906 -1.11828,-2.06809 -0.58359,-1.01929 -0.65175,-1.64373 -0.28009,-2.53318 0.18467,-0.44202 0.27513,-0.70244 0.20361,-0.91519 -0.0357,-0.10636 -0.11293,-0.19327 -0.22686,-0.27389 -0.11393,-0.0806 -0.26636,-0.15778 -0.46405,-0.2496 -0.46453,-0.21576 -0.76895,-0.49077 -0.9245,-0.81235 -0.15552,-0.3216 -0.16479,-0.69304 -0.0274,-1.11053 0.27488,-0.83499 1.14497,-1.84586 2.58433,-2.92385 0.84114,-0.62994 2.75109,-2.16283 4.24781,-3.40909 0.53467,-0.4452 1.21596,-0.94978 1.81797,-1.43454 3.664,-2.93153 8.12472,-6.37165 8.9545,-6.76031 0.1158,-0.0678 0.21185,-0.1203 0.26355,-0.13901 0.4857,-0.17582 1.54666,-0.24371 4.1832,-0.25218 1.72681,-0.006 2.61354,-0.006 3.17655,0.0481 0.56303,0.0535 0.80136,0.15775 1.25316,0.37 0.4971,0.23355 1.49183,0.92494 2.19263,1.52756 1.38192,1.1884 1.97714,2.14514 1.97714,3.14606 0,0.41005 0.0932,0.71156 0.30541,0.9064 0.21225,0.19487 0.53407,0.27648 0.97513,0.27285 0.64085,-0.005 1.4871,-0.27661 2.39417,-0.69918 0.90705,-0.42256 1.87348,-0.9975 2.74505,-1.6154 0.87156,-0.61791 1.647677,-1.27821 2.175577,-1.87379 0.26392,-0.29779 0.46607,-0.57945 0.58653,-0.83406 0.12044,-0.25458 0.16119,-0.48564 0.0879,-0.67696 v -5.2e-4 -5.1e-4 c -0.002,-0.008 0.006,-0.0515 0.0393,-0.11266 0.0367,-0.0653 0.0982,-0.15051 0.18035,-0.24856 0.16425,-0.19608 0.40988,-0.44544 0.70383,-0.71727 0.58788,-0.54369 1.3698,-1.17762 2.08877,-1.66398 0.85315,-0.57711 1.00088,-0.62115 2.07067,-0.62115 h 1.20044 l 0.27286,-0.65268 c 0.042,-0.10046 0.0592,-0.17549 0.0496,-0.23926 -0.003,-0.0193 -0.01,-0.0369 -0.0186,-0.0527 0.004,-0.0166 0.009,-0.0334 0.0129,-0.0506 0.17517,-0.69793 0.0479,-1.34568 -0.36535,-1.82831 -0.0979,-0.11431 -0.20946,-0.21335 -0.36329,-0.29663 l 0.0103,-0.0708 h 0.48369 c 0.28654,0 0.50688,-0.0494 0.6475,-0.1912 0.14063,-0.14179 0.18855,-0.36542 0.15297,-0.68368 -0.0712,-0.63657 -0.47073,-1.68147 -1.22215,-3.37861 -0.42085,-0.95049 -0.63208,-1.43123 -0.7059,-1.74976 -0.0738,-0.31851 -0.0175,-0.47571 0.10387,-0.81649 0.13621,-0.38211 0.33604,-1.09613 0.44648,-1.5937 0.1166,-0.52536 0.39155,-1.10904 0.66508,-1.42059 0.41708,-0.47503 0.64115,-0.79004 0.68626,-1.24023 0.0451,-0.45019 -0.0845,-1.02365 -0.35191,-2.03295 -0.11833,-0.44662 -0.27008,-0.79566 -0.39585,-1.21181 -0.089,-0.29647 -0.1874,-0.57596 -0.28112,-0.85938 -0.60304,-1.81196 -1.27628,-3.46959 -2.20606,-5.07618 -0.37002,-0.63939 -0.65589,-1.02028 -1.05213,-1.23972 -0.39626,-0.21942 -0.89224,-0.27182 -1.67639,-0.27182 -0.41034,0 -0.67384,0.0156 -0.88056,0.078 -0.20671,0.0624 -0.35276,0.17281 -0.51677,0.34778 -0.44887,0.47887 -1.10815,0.74982 -1.833477,0.74982 -0.29077,0 -0.6055,-0.0982 -0.84387,-0.23823 -0.23839,-0.13999 -0.39223,-0.32194 -0.39223,-0.46715 0,-0.10625 -0.0254,-0.20086 -0.0894,-0.27492 -0.064,-0.0741 -0.16155,-0.12468 -0.29662,-0.15968 -0.27011,-0.07 -0.69883,-0.0809 -1.37304,-0.0579 -0.35449,0.0122 -0.71504,0.003 -1.00925,-0.0217 -0.14711,-0.0124 -0.27777,-0.029 -0.38188,-0.0481 -0.10414,-0.019 -0.18306,-0.0424 -0.21963,-0.062 -0.21669,-0.11597 -0.3934,-0.40919 -0.50436,-0.8506 -0.111,-0.4414 -0.15669,-1.02665 -0.12557,-1.71462 l 0.0506,-1.12551 1.08365,0.0568 c 0.3071,0.0161 0.53916,0.0271 0.71675,0.0165 0.17761,-0.0106 0.30511,-0.0424 0.3912,-0.12299 0.0861,-0.0806 0.11859,-0.20149 0.12454,-0.36432 0.006,-0.16282 -0.0135,-0.37309 -0.0408,-0.65112 -0.0278,-0.2817 -0.21834,-0.67102 -0.49764,-1.10898 -0.27929,-0.43797 -0.64893,-0.9213 -1.04128,-1.37149 -0.39237,-0.45016 -0.80683,-0.86702 -1.17616,-1.17306 -0.18466,-0.15301 -0.35826,-0.27843 -0.51315,-0.36638 -0.15491,-0.088 -0.29082,-0.14005 -0.40824,-0.14005 -0.10184,0 -0.26695,-0.0489 -0.43977,-0.13074 -0.17283,-0.0819 -0.35541,-0.19567 -0.50281,-0.31936 z m -1.98541,28.64476 c -0.0537,0.0382 -0.0911,0.0892 -0.11472,0.15038 -0.0295,0.0765 -0.0415,0.16759 -0.0548,0.28422 -0.0159,0.13824 -0.009,0.28321 0.0145,0.40876 0.007,0.0356 0.0145,0.0699 0.0238,0.1018 -0.21438,-0.16012 -0.35037,-0.30517 -0.41135,-0.42478 -0.065,-0.12747 -0.0541,-0.21675 0.0279,-0.30282 0.082,-0.086 0.24937,-0.16305 0.49919,-0.21446 0.005,-0.001 0.0103,-0.002 0.0155,-0.003 z m 16.359727,1.9544 c 0.1946,0.15827 0.37916,0.30684 0.54363,0.43718 0.32002,0.25363 0.55911,0.43625 0.65526,0.4961 0.0592,0.0369 0.0818,0.0559 0.11266,0.0791 -0.0521,-0.003 -0.11299,-0.006 -0.23203,-0.0232 -0.14923,-0.0225 -0.35195,-0.0569 -0.61598,-0.10387 -0.0614,-0.0109 -0.17923,-0.0206 -0.34985,-0.03 0.006,-0.014 0.0104,-0.0293 0.015,-0.0455 0.0238,-0.0837 0.0366,-0.19796 0.0351,-0.32866 -0.003,-0.16461 -0.0487,-0.31609 -0.16381,-0.48111 z m -6.05648,4.40387 c 0.0274,0.005 0.0471,0.009 0.0574,0.0119 0.0269,0.009 0.0524,0.0178 0.0765,0.0284 -0.0405,-0.0141 -0.0853,-0.0272 -0.13384,-0.0403 z m -6.237857,2.16989 c 0.0581,0.0637 0.1303,0.11747 0.21859,0.16226 10e-4,5.1e-4 0.002,0.001 0.003,0.002 -0.004,-0.001 -0.007,-0.002 -0.0103,-0.003 -0.11393,-0.0343 -0.16581,-0.0724 -0.18862,-0.10852 -0.006,-0.01 -0.0144,-0.0277 -0.0227,-0.0522 z m 6.794417,0.18862 c -0.003,0.0336 -0.007,0.0652 -0.0109,0.0946 -0.0108,0.0828 -0.0246,0.14816 -0.0377,0.18758 -0.005,0.0151 -0.009,0.0222 -0.0119,0.0279 -0.005,0 -0.008,-0.003 -0.014,-0.003 -0.006,-8.9e-4 -0.0118,-10e-4 -0.0186,-0.002 3.4e-4,-4.6e-4 7e-4,-0.001 0.001,-0.002 0.0177,-0.0243 0.0308,-0.0537 0.0429,-0.0884 0.02,-0.0576 0.0363,-0.1304 0.0491,-0.21549 z m -65.836807,14.49111 c 0.0458,-0.001 0.0883,0.0186 0.14314,0.0641 0.0456,0.0378 0.10479,0.0677 0.17208,0.0904 0.0124,0.0187 0.0249,0.0382 0.0377,0.0589 0.0792,0.12809 0.14363,0.22545 0.20515,0.29094 0.0615,0.0655 0.12699,0.10637 0.19741,0.0941 0.0704,-0.0123 0.12063,-0.0711 0.17001,-0.15451 0.0178,-0.03 0.0354,-0.064 0.0538,-0.10232 -0.007,0.0432 -0.0143,0.0809 -0.0217,0.11213 l -0.11937,0.50437 c -0.10094,-0.009 -0.19541,-0.0185 -0.2837,-0.0284 -0.60375,-0.0681 -0.91711,-0.1703 -1.01545,-0.27595 -0.0492,-0.0528 -0.0553,-0.0995 -0.031,-0.17105 0.0244,-0.0715 0.087,-0.16198 0.17983,-0.26458 0.11126,-0.12293 0.19818,-0.18967 0.26459,-0.20981 0.0166,-0.005 0.0323,-0.008 0.0475,-0.008 z m -1.09399,7.80779 c 0.13154,0.0443 0.27934,0.0788 0.44493,0.10593 -0.0723,-0.003 -0.11863,-0.006 -0.13126,-0.008 -0.10944,-0.0169 -0.21445,-0.0508 -0.31367,-0.0982 z" />
  <path
     id="path3823"
     style="baseline-shift:baseline;display:inline;overflow:visible;vector-effect:none;fill:#fdeebb;enable-background:accumulate;stop-color:#000000"
     d="m 129.946,261.19824 c -0.29064,-0.007 -0.57304,0.0727 -0.95498,0.21084 -0.60209,0.21777 -1.52702,0.30315 -2.02727,0.19327 -1.24774,-0.27404 -2.63876,0.36516 -4.4297,2.00969 -0.0672,0.0616 -0.057,0.10367 -0.0997,0.15813 -0.12382,-0.0767 -0.25314,-0.15177 -0.38757,-0.22479 -0.16704,-0.11756 -0.33858,-0.23267 -0.55345,-0.33176 -1.43778,-0.66301 -3.20804,-1.10249 -4.40439,-1.08779 -1.04414,0.0128 -2.20555,0.002 -2.57245,-0.0233 -0.17254,-0.0118 -0.36464,-0.0143 -0.56637,-0.008 l -0.0563,0.002 0.002,0.008 c -0.69596,0.0268 -1.5163,0.14207 -2.21486,0.30696 -0.3579,0.0845 -0.68412,0.18102 -0.94154,0.28112 -0.25742,0.1001 -0.446,0.20018 -0.54105,0.31471 -0.19722,0.23764 -0.67395,0.447 -1.03146,0.447 -0.23126,0 -0.55837,0.16132 -0.9493,0.41807 -0.39092,0.25674 -0.84157,0.61331 -1.28881,1.01337 -0.89447,0.80011 -1.7795,1.77357 -2.16628,2.49442 -0.14721,0.27433 -0.35921,0.5385 -0.58187,0.73846 -0.22265,0.19997 -0.45595,0.33475 -0.63252,0.36122 -0.066,0.01 -0.12271,0.054 -0.17932,0.0987 -0.0396,0.0155 -0.0787,0.0342 -0.11679,0.0558 -0.0393,-0.0715 -0.0675,-0.1388 -0.11059,-0.21136 -0.1919,-0.32342 -0.38947,-0.64542 -0.53485,-0.92759 -0.14539,-0.28216 -0.23432,-0.52715 -0.21859,-0.67955 0.0607,-0.5876 0.0846,-0.90934 -0.0294,-1.10587 -0.057,-0.0983 -0.15118,-0.15605 -0.27544,-0.18552 -0.12427,-0.0295 -0.28111,-0.0351 -0.48266,-0.0351 h -0.0527 v 0.0139 c -0.48913,0.0112 -1.17605,0.17383 -1.581807,0.39429 -0.18999,0.10322 -0.61533,0.21275 -1.13275,0.29508 -0.51742,0.0823 -1.13059,0.14137 -1.71307,0.15606 -0.85724,0.0216 -1.43236,0.074 -1.88258,0.20154 -0.45021,0.12758 -0.77336,0.3325 -1.11362,0.65215 -0.33862,0.3181 -0.63759,0.50845 -1.07229,0.62684 -0.4347,0.11839 -1.00771,0.16202 -1.88826,0.17415 -0.65694,0.009 -1.2558,0.0634 -1.73477,0.15193 -0.47897,0.0885 -0.83663,0.20877 -1.02526,0.36535 -0.22695,0.18833 -0.41913,0.27954 -0.68937,0.29094 -0.27025,0.0114 -0.62206,-0.0612 -1.15445,-0.22066 -1.46943,-0.44024 -2.91312,-0.0424 -3.71088,1.03146 -0.21587,0.29053 -0.7839,0.63942 -1.24024,0.75396 -0.56757,0.14244 -1.05756,0.65036 -1.37097,1.40043 -0.26057,0.62367 -0.4091,2.37057 -1.16908,3.33201 -0.75816,0.95914 -1.16377,1.33627 -1.40818,2.0552 -0.24441,0.71892 0.0647,1.21775 -0.0544,2.83799 -0.078,1.06078 -1.21958,1.73812 -1.44046,2.19432 -0.22088,0.45619 -0.61124,0.82426 -1.37304,1.4981 -0.58769,0.51984 -1.01598,0.94393 -1.26969,1.31672 -0.25371,0.37279 -0.33313,0.70347 -0.20516,1.00975 0.12798,0.30627 0.45139,0.57703 0.97669,0.86506 0.52529,0.28804 1.25487,0.59212 2.20917,0.95137 2.3157,0.87176 3.60094,1.15435 5.27719,1.15807 1.20434,0.003 3.46528,0.30884 5.01158,0.67954 1.97869,0.47436 4.00271,0.678 6.74636,0.678 1.8674,0 3.522,0.10756 4.79816,0.30592 0.028,0.005 0.0571,0.009 0.0847,0.0134 0.4099,0.0659 0.78335,0.14058 1.10536,0.22531 1.135467,0.29872 2.799107,0.65144 3.741887,0.79685 v 0.004 l 0.0429,0.008 c 1.39515,0.2117 2.77883,0.27177 3.8871,0.17984 0.50247,-0.0417 0.92575,-0.12511 1.29088,-0.23048 0.0569,0.1073 0.12538,0.20075 0.23616,0.25941 0.25644,0.1358 0.65509,0.14752 1.28157,0.0941 0.62647,-0.0535 1.48235,-0.17387 2.65411,-0.3204 1.76677,-0.22092 4.00004,-0.80857 5.77122,-1.51773 1.99078,-0.79707 3.46308,-1.24643 4.67413,-1.37667 1.21104,-0.13023 2.15946,0.0561 3.11299,0.53279 0.8152,0.40755 2.0451,1.34024 2.71715,2.06086 0.51378,0.55093 0.88091,0.88518 1.26142,1.0821 0.38052,0.19692 0.77178,0.25171 1.32033,0.2496 0.75028,-0.003 1.23391,-0.0534 1.60197,-0.23823 0.36805,-0.18485 0.61001,-0.50096 0.8785,-1.01131 0.14991,-0.28492 0.21772,-0.55704 0.19172,-0.88883 -0.026,-0.3318 -0.14189,-0.72332 -0.35347,-1.26194 -0.24729,-0.62954 -0.36909,-0.99131 -0.37103,-1.27744 -0.002,-0.28614 0.11132,-0.50844 0.3514,-0.87489 0.19034,-0.29049 0.36164,-0.77044 0.50436,-1.24798 0.0397,-0.11959 0.0763,-0.23898 0.10852,-0.35605 0.007,0.005 0.0128,0.0133 0.0217,0.016 0.14673,0.0452 0.33073,0.0188 0.53692,-0.0289 0.41237,-0.0953 0.91196,-0.28732 1.26401,-0.28732 0.50369,0 1.30474,-0.2827 1.81022,-0.63459 0.48862,-0.34019 1.37728,-0.69283 2.32441,-0.95704 0.94712,-0.26422 1.95543,-0.44224 2.68356,-0.43977 0.24953,9.6e-4 0.69661,0.0991 1.20509,0.25632 0.50847,0.15729 1.081,0.37363 1.59164,0.61133 1.03048,0.47967 2.70886,1.07908 3.74034,1.33583 1.0198,0.25386 3.1935,1.00619 4.82037,1.66967 1.93181,0.78786 3.51766,1.21129 4.55838,1.21129 0.70636,0 1.12809,0.039 1.54513,0.24391 0.41703,0.20491 0.83498,0.58073 1.51773,1.26349 0.5989,0.5989 0.96852,1.02284 1.16996,1.37511 0.20143,0.35228 0.23839,0.62912 0.1757,0.95705 -0.0656,0.34332 -0.0346,0.63838 0.14469,0.95705 0.17627,0.31316 0.50086,0.65539 1.00149,1.10949 v 0.006 l 0.0181,0.016 c 1.29181,1.16709 2.49648,1.50747 3.437,1.07022 0.94053,-0.43724 1.59541,-1.63901 1.81487,-3.50624 0.0921,-0.78387 0.12385,-1.28559 0.0739,-1.64021 -0.0499,-0.35463 -0.18885,-0.56252 -0.42168,-0.73277 -0.20787,-0.152 -0.33425,-0.32328 -0.38861,-0.50592 -0.0544,-0.18263 -0.0377,-0.37882 0.0507,-0.58756 0.17664,-0.41748 0.64483,-0.87643 1.38286,-1.30276 0.67869,-0.39207 1.03145,-0.58402 1.62677,-0.61133 0.59533,-0.0273 1.44034,0.1126 3.07837,0.39842 0.51933,0.0906 0.86981,0.1046 1.23455,-0.0491 0.36475,-0.15368 0.73588,-0.46791 1.32188,-1.02319 0.64971,-0.61568 0.98944,-0.949 1.14257,-1.35754 0.15313,-0.40855 0.11421,-0.8759 0.0238,-1.75183 -0.0883,-0.85575 -0.11869,-1.31202 0.002,-1.67018 0.12019,-0.35816 0.39517,-0.63478 0.93586,-1.12862 0.31115,-0.28419 0.64182,-0.54195 0.92397,-0.72863 0.14108,-0.0933 0.27016,-0.16932 0.37672,-0.22066 0.10657,-0.0513 0.19297,-0.076 0.23617,-0.076 0.19765,0 0.34352,-0.0566 0.41444,-0.17776 0.0709,-0.12113 0.0604,-0.28774 -0.0119,-0.4961 -0.1446,-0.41673 -0.5456,-1.01978 -1.20302,-1.82418 -0.69837,-0.85452 -1.74914,-2.24387 -2.33216,-3.08249 -0.68096,-0.97948 -1.42179,-1.62831 -2.06447,-1.78491 -0.52168,-0.12711 -1.52999,-0.6071 -2.22054,-1.05885 -0.31092,-0.20339 -0.68639,-0.43297 -1.03508,-0.61495 0.0723,-0.0453 0.12887,-0.0939 0.16175,-0.14831 0.0356,-0.0589 0.0441,-0.12637 0.0253,-0.18965 -0.0375,-0.12656 -0.16555,-0.2349 -0.35915,-0.34778 -0.77439,-0.45151 -2.69344,-0.94155 -4.95887,-1.40612 -2.04848,-0.42007 -4.33028,-0.79442 -6.32261,-1.10278 -0.007,-0.0108 -0.016,-0.0172 -0.0243,-0.0227 -0.0214,-0.0143 -0.0451,-0.0221 -0.0749,-0.0295 -0.0191,-0.005 -0.0402,-0.009 -0.0636,-0.0129 -1.11069,-0.57992 -2.23659,-1.17441 -3.12023,-1.63297 -0.6146,-0.31894 -1.15267,-0.59033 -1.58388,-0.7891 -0.43122,-0.19877 -0.7529,-0.3256 -0.9493,-0.35347 -0.85884,-0.12184 -1.88297,-0.39322 -2.24999,-0.58963 -0.39671,-0.21233 -1.12219,-0.3793 -1.63659,-0.3793 -0.48289,0 -1.39429,-0.30462 -1.99419,-0.67541 -0.44569,-0.27544 -0.77215,-0.43376 -1.08418,-0.48628 -0.31202,-0.0525 -0.60509,0.003 -0.97255,0.14263 -0.48996,0.18628 -1.30837,0.34158 -1.79885,0.34158 -0.26614,3.5e-4 -0.79674,0.12148 -1.45521,0.31264 -0.65847,0.19116 -1.43978,0.45455 -2.18746,0.74414 -2.44774,0.94808 -3.70581,1.42471 -4.52531,1.53479 -0.40975,0.055 -0.70817,0.0203 -0.99994,-0.0915 -0.29177,-0.11181 -0.57722,-0.30348 -0.95136,-0.56276 -0.36324,-0.25173 -0.73723,-0.48011 -1.04852,-0.64647 -0.15565,-0.0832 -0.29647,-0.15168 -0.41237,-0.19896 -0.1159,-0.0473 -0.20373,-0.0744 -0.27337,-0.0744 -0.0353,0 -0.13965,-0.0272 -0.27544,-0.0801 -0.13578,-0.0529 -0.30888,-0.13101 -0.50591,-0.22634 -0.39404,-0.19066 -0.88504,-0.45427 -1.37666,-0.74414 -0.99367,-0.58589 -1.47062,-0.82159 -1.94355,-0.84595 l 0.002,-0.0212 z m -8.21862,6.26215 c 0.0227,0.0537 0.0474,0.10911 0.0744,0.16588 -0.0476,-0.0492 -0.0938,-0.0855 -0.14159,-0.11214 0.008,0 0.0156,-1e-4 0.0243,-0.003 0.005,0 0.009,-0.003 0.0171,-0.007 h 5.2e-4 5.2e-4 5.1e-4 l 5.2e-4,-5.2e-4 c 3.2e-4,-1.5e-4 0.001,-8.4e-4 0.002,-10e-4 8.4e-4,-6.5e-4 0.002,-0.002 0.003,-0.002 l 0.008,-0.008 c 1.3e-4,-1.6e-4 0.008,-0.0137 0.008,-0.0139 4e-5,-1.3e-4 0.002,-0.0135 0.003,-0.0176 z m 44.77763,0.0982 c 0.43599,0.0819 0.88034,0.14086 1.30224,0.22738 0.13921,0.0285 0.23715,0.0585 0.37362,0.0873 -0.53847,-0.11421 -1.10149,-0.20455 -1.67586,-0.31471 z m -45.4949,0.0791 c -0.003,0.0331 -0.004,0.0704 -0.004,0.11317 0,0.0487 0.0148,0.10844 0.0398,0.18707 0.0151,0.0472 0.0341,0.10026 0.0568,0.15916 -0.0837,-0.15571 -0.16432,-0.3053 -0.2403,-0.44648 0.0192,0.006 0.0381,0.007 0.0558,0.007 0.0325,0 0.0633,-0.007 0.0915,-0.0202 z m 23.48746,0.82579 c -2e-5,10e-4 0,0.002 0,0.004 v 0.29663 l -0.10801,-0.001 z m 7.97625,1.0511 c 0.005,0.052 0.0183,0.0976 0.0491,0.1328 0.006,0.007 0.0123,0.0129 0.0191,0.0186 -0.007,-0.006 -0.0131,-0.0122 -0.0191,-0.0186 -0.0119,-0.0127 -0.022,-0.0261 -0.0295,-0.0408 -0.0129,-0.0255 -0.0201,-0.0563 -0.0196,-0.092 z m 19.67167,0.0811 c 0.0417,-8.5e-4 0.0895,0.004 0.14263,0.0145 0.10817,0.0212 0.2472,0.0822 0.38447,0.14262 -0.27287,0.12458 -0.71121,0.24391 -1.44539,0.34469 0.15788,-0.083 0.30492,-0.17095 0.44028,-0.2651 0.12392,-0.0519 0.23433,-0.11126 0.31781,-0.18501 0.0373,-0.0329 0.0907,-0.0503 0.1602,-0.0517 z m -19.55746,0.0997 c 0.0186,0.009 0.039,0.0155 0.061,0.0212 0.0471,0.0122 0.10303,0.0194 0.1726,0.0264 -0.026,4e-5 -0.0507,-10e-4 -0.0744,-0.004 -0.064,-0.007 -0.11693,-0.022 -0.15916,-0.0439 z m 16.68322,0.37621 c 0.0975,0.0199 0.19291,0.0377 0.28577,0.0527 0.28135,0.0573 0.54009,0.0923 0.77256,0.1018 -0.31537,0.13349 -0.5786,0.2934 -0.89659,0.42323 0.0106,-0.0273 0.0177,-0.0581 0.0233,-0.0909 0.0111,-0.0663 0.0128,-0.1418 0.003,-0.21446 -0.0159,-0.10813 -0.0679,-0.19742 -0.17777,-0.26613 -0.003,-0.002 -0.007,-0.004 -0.0103,-0.006 z m 1.29604,0.16174 c 0.034,-0.002 0.10794,0.0365 0.14056,0.0331 0.0762,-0.008 0.15045,-0.0161 0.22221,-0.0243 -0.40794,0.18387 -0.87231,0.33857 -1.37408,0.46974 0.35466,-0.1484 0.6545,-0.32935 1.01131,-0.47853 z m -3.06906,0.87075 c -0.27517,0.0395 -0.54917,0.0697 -0.82889,0.10232 0.16755,-0.0197 0.32728,-0.042 0.49351,-0.0641 0.10577,-0.014 0.23444,-0.0241 0.33538,-0.0382 z m -43.53171,0.42582 c 0.0354,0.0411 0.0716,0.0822 0.10852,0.12402 -0.0375,-0.0188 -0.0739,-0.0335 -0.10955,-0.0444 0.009,-0.0118 0.0104,-0.0238 0.0108,-0.032 0,-0.01 -1e-4,-0.0172 -0.003,-0.0243 -0.002,-0.008 -0.004,-0.0154 -0.007,-0.0232 z m -21.35942,0.0155 c 0.029,0.0272 0.0594,0.0548 0.092,0.0837 -0.0115,-0.009 -0.0221,-0.0173 -0.032,-0.0248 -0.013,-0.01 -0.0238,-0.018 -0.0336,-0.0243 -0.005,-0.003 -0.009,-0.006 -0.0145,-0.008 -0.003,-0.003 -0.006,-0.003 -0.009,-0.004 h -5.1e-4 -5.2e-4 -5.2e-4 -5.1e-4 l -5.2e-4,-5.2e-4 c -7.7e-4,-5.2e-4 -0.002,-0.002 -0.003,-0.002 h -5.2e-4 -5.1e-4 c -0.002,0 -0.008,-0.002 -0.0109,-0.003 0.005,-0.006 0.0102,-0.0117 0.015,-0.017 z m 58.78814,0.0563 c 0.0206,0.009 0.0417,0.0173 0.0631,0.0243 -0.0111,0.001 -0.0226,0.002 -0.0336,0.004 -0.0107,-0.01 -0.0203,-0.0189 -0.0295,-0.0279 z m -38.21317,0.13952 c 0.0343,0.0138 0.07,0.0212 0.10697,0.0227 0.0577,0.003 0.11801,-0.007 0.1912,-0.0202 -0.0152,0.0526 -0.0176,0.11822 -0.0176,0.19947 0,0.0854 0.012,0.16838 0.0419,0.25735 -0.10707,-0.14801 -0.21529,-0.30225 -0.32246,-0.45941 z m 38.80125,1.09916 c 0.0408,0.004 0.0819,0.007 0.12299,0.0109 -0.0481,0.001 -0.0938,0.003 -0.13591,0.006 0.003,-0.006 0.006,-0.0122 0.0129,-0.0165 z m 2.35748,0.0429 c 1.03328,0.0318 1.57262,0.0398 2.54196,0.045 -0.28661,-0.002 -0.40114,-3.3e-4 -0.69918,-0.004 -0.59773,-0.009 -1.18803,-0.0146 -1.61385,-0.0269 -0.0829,-0.003 -0.14769,-0.0104 -0.22893,-0.0139 z m -60.07024,0.12092 c 0.0438,0.0366 0.0867,0.0729 0.1292,0.10853 -0.0511,-0.0297 -0.0993,-0.0553 -0.1447,-0.0765 0.003,-0.004 0.006,-0.008 0.008,-0.0119 0.004,-0.008 0.006,-0.0146 0.007,-0.0202 z m 0.41755,0.28526 c 0.0428,0.0361 0.0955,0.0796 0.13694,0.11472 -0.009,-0.007 -0.0156,-0.0101 -0.0248,-0.0171 -0.0367,-0.0317 -0.0741,-0.065 -0.11214,-0.0977 z m -0.9431,0.28525 c 0.001,0.006 0.003,0.011 0.004,0.0165 -0.004,-0.005 -0.009,-0.009 -0.0129,-0.0134 0.003,-8.1e-4 0.006,-0.002 0.009,-0.003 z m 21.79661,1.28261 c 0.0415,0.0391 0.0858,0.0723 0.13487,0.1018 -0.0407,-0.002 -0.0794,-0.003 -0.11679,-0.002 -0.004,-0.0327 -0.01,-0.0658 -0.0181,-0.10025 z m -38.946977,0.85266 c -0.0685,0.008 -0.12267,0.0157 -0.16536,0.0243 -0.0228,0.004 -0.0425,0.009 -0.0594,0.0145 0.0138,-0.0203 0.0264,-0.0287 0.0351,-0.03 0.004,-5.3e-4 0.0311,-0.002 0.0703,-0.004 0.0306,-0.002 0.071,-0.003 0.11937,-0.005 z m 85.644387,0.20206 -0.002,0.0284 h -0.0155 l 5.1e-4,-5.2e-4 c 0.006,-0.009 0.0116,-0.0178 0.0171,-0.0279 z m -86.207147,2.00246 c -0.0399,0.019 -0.0738,0.0472 -0.0997,0.0822 0.0119,-0.0266 0.0271,-0.0461 0.0434,-0.0589 0.0164,-0.0129 0.0348,-0.0213 0.0563,-0.0232 z m 87.278397,0.44287 c 0.15612,0.0201 0.2814,0.0425 0.37982,0.0672 0.12091,0.0302 0.20129,0.0646 0.2465,0.0977 0.0452,0.0331 0.0563,0.0588 0.0563,0.092 0,0.13868 -0.0426,0.21122 -0.11885,0.24598 -0.0762,0.0348 -0.20285,0.0289 -0.37517,-0.0372 -0.0479,-0.0184 -0.0923,-0.0335 -0.13333,-0.045 0.006,-0.006 0.0126,-0.0134 0.0181,-0.0207 0.038,-0.0509 0.0489,-0.11608 0.0403,-0.18035 -0.0104,-0.0777 -0.0495,-0.15756 -0.11369,-0.21962 z m -42.63564,1.76423 c 0.1157,0.12041 0.28045,0.28767 0.42943,0.43718 -0.1491,-0.14687 -0.30258,-0.30291 -0.42943,-0.43718 z m 3.37964,3.21427 c 0.11105,0.0689 0.19372,0.0972 0.26871,0.0972 0.0649,0 0.11766,-0.003 0.1633,-0.0119 0.0266,-0.006 0.0514,-0.0142 0.0734,-0.0264 -0.0126,0.11795 -0.0317,0.23863 -0.0548,0.35967 -0.0132,0.0694 -0.0218,0.11096 -0.0372,0.17984 -0.0287,-0.0547 -0.0219,-0.10464 -0.0605,-0.16227 -0.0887,-0.13236 -0.20421,-0.2745 -0.35295,-0.43615 z m -25.59792,6.05803 c -8.9e-4,0.0139 -0.002,0.0279 -0.003,0.0419 -0.0148,0.23043 -0.0146,0.32956 -0.0289,0.52348 -0.17726,-0.14488 -0.36244,-0.28991 -0.50023,-0.44339 -0.009,-0.01 -0.017,-0.0194 -0.0253,-0.0289 0.064,0.0232 0.13927,0.0325 0.22738,0.0325 0.0774,0 0.13829,2.4e-4 0.19327,-0.0145 0.055,-0.0146 0.1027,-0.0494 0.13281,-0.10387 0.001,-0.002 0.002,-0.005 0.004,-0.007 z"
     sodipodi:nodetypes="csssccssscccssssssssscccsssssccssssssssssssssssssssssscssccscccscssssssssssssssscccssssssssssssssscccssssscssssssscsssssssssscsssscsccsssssssscssssssssssscccccccccccccccsccsscsscssccscccsccccscsscsccccsscsccccccccccsccssccssscssscccccccccscccccccsscsccccccccsccscssccccccccccccccsccsccsscccccccccccccsccccccsccscsssssssssccssscccssccscssscccscscscc" />
</svg>
